<mxfile host="app.diagrams.net" modified="2023-10-13T22:50:21.237Z" agent="Mozilla/5.0 (Macintosh; Intel Mac OS X 10_15_7) AppleWebKit/537.36 (KHTML, like Gecko) Chrome/118.0.0.0 Safari/537.36" etag="pGRG-6Ie8kZEADBJK12q" version="22.0.4" type="device" pages="3">
  <diagram name="Page-1" id="v1PvocLTnj-raOggpWmx">
    <mxGraphModel dx="954" dy="610" grid="1" gridSize="10" guides="1" tooltips="1" connect="1" arrows="1" fold="1" page="1" pageScale="1" pageWidth="827" pageHeight="1169" math="0" shadow="0">
      <root>
        <mxCell id="0" />
        <mxCell id="1" parent="0" />
        <mxCell id="mO3aQg89ZUERfdInFRNJ-1" value="" style="shape=table;startSize=0;container=1;collapsible=0;childLayout=tableLayout;strokeWidth=1;" vertex="1" parent="1">
          <mxGeometry x="140" y="280" width="390" height="70" as="geometry" />
        </mxCell>
        <mxCell id="mO3aQg89ZUERfdInFRNJ-2" value="" style="shape=tableRow;horizontal=0;startSize=0;swimlaneHead=0;swimlaneBody=0;strokeColor=inherit;top=0;left=0;bottom=0;right=0;collapsible=0;dropTarget=0;fillColor=none;points=[[0,0.5],[1,0.5]];portConstraint=eastwest;" vertex="1" parent="mO3aQg89ZUERfdInFRNJ-1">
          <mxGeometry width="390" height="35" as="geometry" />
        </mxCell>
        <mxCell id="mO3aQg89ZUERfdInFRNJ-3" value="" style="shape=partialRectangle;html=1;whiteSpace=wrap;connectable=0;strokeColor=#006EAF;overflow=hidden;fillColor=#1ba1e2;top=0;left=0;bottom=0;right=0;pointerEvents=1;fontColor=#ffffff;" vertex="1" parent="mO3aQg89ZUERfdInFRNJ-2">
          <mxGeometry width="43" height="35" as="geometry">
            <mxRectangle width="43" height="35" as="alternateBounds" />
          </mxGeometry>
        </mxCell>
        <mxCell id="mO3aQg89ZUERfdInFRNJ-4" value="" style="shape=partialRectangle;html=1;whiteSpace=wrap;connectable=0;strokeColor=#BD7000;overflow=hidden;fillColor=#f7983f;top=0;left=0;bottom=0;right=0;pointerEvents=1;fontColor=#000000;" vertex="1" parent="mO3aQg89ZUERfdInFRNJ-2">
          <mxGeometry x="43" width="44" height="35" as="geometry">
            <mxRectangle width="44" height="35" as="alternateBounds" />
          </mxGeometry>
        </mxCell>
        <mxCell id="mO3aQg89ZUERfdInFRNJ-5" value="" style="shape=partialRectangle;html=1;whiteSpace=wrap;connectable=0;strokeColor=#36393d;overflow=hidden;fillColor=#ACE5A1;top=0;left=0;bottom=0;right=0;pointerEvents=1;" vertex="1" parent="mO3aQg89ZUERfdInFRNJ-2">
          <mxGeometry x="87" width="43" height="35" as="geometry">
            <mxRectangle width="43" height="35" as="alternateBounds" />
          </mxGeometry>
        </mxCell>
        <mxCell id="mO3aQg89ZUERfdInFRNJ-6" value="" style="shape=partialRectangle;html=1;whiteSpace=wrap;connectable=0;strokeColor=#36393d;overflow=hidden;fillColor=#f9acab;top=0;left=0;bottom=0;right=0;pointerEvents=1;" vertex="1" parent="mO3aQg89ZUERfdInFRNJ-2">
          <mxGeometry x="130" width="43" height="35" as="geometry">
            <mxRectangle width="43" height="35" as="alternateBounds" />
          </mxGeometry>
        </mxCell>
        <mxCell id="mO3aQg89ZUERfdInFRNJ-7" value="" style="shape=partialRectangle;html=1;whiteSpace=wrap;connectable=0;strokeColor=#6D1F00;overflow=hidden;fillColor=#a3786f;top=0;left=0;bottom=0;right=0;pointerEvents=1;fontColor=#ffffff;" vertex="1" parent="mO3aQg89ZUERfdInFRNJ-2">
          <mxGeometry x="173" width="44" height="35" as="geometry">
            <mxRectangle width="44" height="35" as="alternateBounds" />
          </mxGeometry>
        </mxCell>
        <mxCell id="mO3aQg89ZUERfdInFRNJ-8" value="" style="shape=partialRectangle;html=1;whiteSpace=wrap;connectable=0;strokeColor=inherit;overflow=hidden;fillColor=#e892c8;top=0;left=0;bottom=0;right=0;pointerEvents=1;" vertex="1" parent="mO3aQg89ZUERfdInFRNJ-2">
          <mxGeometry x="217" width="43" height="35" as="geometry">
            <mxRectangle width="43" height="35" as="alternateBounds" />
          </mxGeometry>
        </mxCell>
        <mxCell id="mO3aQg89ZUERfdInFRNJ-9" value="" style="shape=partialRectangle;html=1;whiteSpace=wrap;connectable=0;strokeColor=inherit;overflow=hidden;fillColor=#d2d2d2;top=0;left=0;bottom=0;right=0;pointerEvents=1;" vertex="1" parent="mO3aQg89ZUERfdInFRNJ-2">
          <mxGeometry x="260" width="43" height="35" as="geometry">
            <mxRectangle width="43" height="35" as="alternateBounds" />
          </mxGeometry>
        </mxCell>
        <mxCell id="mO3aQg89ZUERfdInFRNJ-10" value="" style="shape=partialRectangle;html=1;whiteSpace=wrap;connectable=0;strokeColor=inherit;overflow=hidden;fillColor=#e2e2a4;top=0;left=0;bottom=0;right=0;pointerEvents=1;" vertex="1" parent="mO3aQg89ZUERfdInFRNJ-2">
          <mxGeometry x="303" width="44" height="35" as="geometry">
            <mxRectangle width="44" height="35" as="alternateBounds" />
          </mxGeometry>
        </mxCell>
        <mxCell id="mO3aQg89ZUERfdInFRNJ-11" value="" style="shape=partialRectangle;html=1;whiteSpace=wrap;connectable=0;strokeColor=inherit;overflow=hidden;fillColor=#b1e1ea;top=0;left=0;bottom=0;right=0;pointerEvents=1;" vertex="1" parent="mO3aQg89ZUERfdInFRNJ-2">
          <mxGeometry x="347" width="43" height="35" as="geometry">
            <mxRectangle width="43" height="35" as="alternateBounds" />
          </mxGeometry>
        </mxCell>
        <mxCell id="mO3aQg89ZUERfdInFRNJ-12" value="" style="shape=tableRow;horizontal=0;startSize=0;swimlaneHead=0;swimlaneBody=0;strokeColor=inherit;top=0;left=0;bottom=0;right=0;collapsible=0;dropTarget=0;fillColor=none;points=[[0,0.5],[1,0.5]];portConstraint=eastwest;" vertex="1" parent="mO3aQg89ZUERfdInFRNJ-1">
          <mxGeometry y="35" width="390" height="35" as="geometry" />
        </mxCell>
        <mxCell id="mO3aQg89ZUERfdInFRNJ-13" value="&lt;font style=&quot;font-size: 14px;&quot;&gt;1&lt;/font&gt;" style="shape=partialRectangle;html=1;whiteSpace=wrap;connectable=0;strokeColor=inherit;overflow=hidden;fillColor=none;top=0;left=0;bottom=0;right=0;pointerEvents=1;" vertex="1" parent="mO3aQg89ZUERfdInFRNJ-12">
          <mxGeometry width="43" height="35" as="geometry">
            <mxRectangle width="43" height="35" as="alternateBounds" />
          </mxGeometry>
        </mxCell>
        <mxCell id="mO3aQg89ZUERfdInFRNJ-14" value="&lt;font style=&quot;font-size: 14px;&quot;&gt;2&lt;/font&gt;" style="shape=partialRectangle;html=1;whiteSpace=wrap;connectable=0;strokeColor=inherit;overflow=hidden;fillColor=none;top=0;left=0;bottom=0;right=0;pointerEvents=1;" vertex="1" parent="mO3aQg89ZUERfdInFRNJ-12">
          <mxGeometry x="43" width="44" height="35" as="geometry">
            <mxRectangle width="44" height="35" as="alternateBounds" />
          </mxGeometry>
        </mxCell>
        <mxCell id="mO3aQg89ZUERfdInFRNJ-15" value="&lt;font style=&quot;font-size: 14px;&quot;&gt;3&lt;/font&gt;" style="shape=partialRectangle;html=1;whiteSpace=wrap;connectable=0;strokeColor=inherit;overflow=hidden;fillColor=none;top=0;left=0;bottom=0;right=0;pointerEvents=1;" vertex="1" parent="mO3aQg89ZUERfdInFRNJ-12">
          <mxGeometry x="87" width="43" height="35" as="geometry">
            <mxRectangle width="43" height="35" as="alternateBounds" />
          </mxGeometry>
        </mxCell>
        <mxCell id="mO3aQg89ZUERfdInFRNJ-16" value="&lt;font style=&quot;font-size: 14px;&quot;&gt;4&lt;/font&gt;" style="shape=partialRectangle;html=1;whiteSpace=wrap;connectable=0;strokeColor=inherit;overflow=hidden;fillColor=none;top=0;left=0;bottom=0;right=0;pointerEvents=1;" vertex="1" parent="mO3aQg89ZUERfdInFRNJ-12">
          <mxGeometry x="130" width="43" height="35" as="geometry">
            <mxRectangle width="43" height="35" as="alternateBounds" />
          </mxGeometry>
        </mxCell>
        <mxCell id="mO3aQg89ZUERfdInFRNJ-17" value="&lt;font style=&quot;font-size: 14px;&quot;&gt;5&lt;/font&gt;" style="shape=partialRectangle;html=1;whiteSpace=wrap;connectable=0;strokeColor=inherit;overflow=hidden;fillColor=none;top=0;left=0;bottom=0;right=0;pointerEvents=1;" vertex="1" parent="mO3aQg89ZUERfdInFRNJ-12">
          <mxGeometry x="173" width="44" height="35" as="geometry">
            <mxRectangle width="44" height="35" as="alternateBounds" />
          </mxGeometry>
        </mxCell>
        <mxCell id="mO3aQg89ZUERfdInFRNJ-18" value="&lt;font style=&quot;font-size: 14px;&quot;&gt;6&lt;/font&gt;" style="shape=partialRectangle;html=1;whiteSpace=wrap;connectable=0;strokeColor=inherit;overflow=hidden;fillColor=none;top=0;left=0;bottom=0;right=0;pointerEvents=1;" vertex="1" parent="mO3aQg89ZUERfdInFRNJ-12">
          <mxGeometry x="217" width="43" height="35" as="geometry">
            <mxRectangle width="43" height="35" as="alternateBounds" />
          </mxGeometry>
        </mxCell>
        <mxCell id="mO3aQg89ZUERfdInFRNJ-19" value="&lt;font style=&quot;font-size: 14px;&quot;&gt;7&lt;/font&gt;" style="shape=partialRectangle;html=1;whiteSpace=wrap;connectable=0;strokeColor=inherit;overflow=hidden;fillColor=none;top=0;left=0;bottom=0;right=0;pointerEvents=1;" vertex="1" parent="mO3aQg89ZUERfdInFRNJ-12">
          <mxGeometry x="260" width="43" height="35" as="geometry">
            <mxRectangle width="43" height="35" as="alternateBounds" />
          </mxGeometry>
        </mxCell>
        <mxCell id="mO3aQg89ZUERfdInFRNJ-20" value="&lt;font style=&quot;font-size: 14px;&quot;&gt;8&lt;/font&gt;" style="shape=partialRectangle;html=1;whiteSpace=wrap;connectable=0;strokeColor=inherit;overflow=hidden;fillColor=none;top=0;left=0;bottom=0;right=0;pointerEvents=1;" vertex="1" parent="mO3aQg89ZUERfdInFRNJ-12">
          <mxGeometry x="303" width="44" height="35" as="geometry">
            <mxRectangle width="44" height="35" as="alternateBounds" />
          </mxGeometry>
        </mxCell>
        <mxCell id="mO3aQg89ZUERfdInFRNJ-21" value="&lt;font style=&quot;font-size: 14px;&quot;&gt;9&lt;/font&gt;" style="shape=partialRectangle;html=1;whiteSpace=wrap;connectable=0;strokeColor=inherit;overflow=hidden;fillColor=none;top=0;left=0;bottom=0;right=0;pointerEvents=1;" vertex="1" parent="mO3aQg89ZUERfdInFRNJ-12">
          <mxGeometry x="347" width="43" height="35" as="geometry">
            <mxRectangle width="43" height="35" as="alternateBounds" />
          </mxGeometry>
        </mxCell>
      </root>
    </mxGraphModel>
  </diagram>
  <diagram id="8EhRoH73u_T4kGktu5D3" name="Page-2">
    <mxGraphModel dx="954" dy="610" grid="1" gridSize="10" guides="1" tooltips="1" connect="1" arrows="1" fold="1" page="1" pageScale="1" pageWidth="827" pageHeight="1169" math="0" shadow="0">
      <root>
        <mxCell id="0" />
        <mxCell id="1" parent="0" />
        <mxCell id="gtzwXYbAEQbTO65BLNOc-8" value="" style="shape=image;imageAspect=0;aspect=fixed;verticalLabelPosition=bottom;verticalAlign=top;image=data:image/png,iVBORw0KGgoAAAANSUhEUgAAASwAAAEsCAYAAAB5fY51AAAAOXRFWHRTb2Z0d2FyZQBNYXRwbG90bGliIHZlcnNpb24zLjcuMCwgaHR0cHM6Ly9tYXRwbG90bGliLm9yZy88F64QAAAACXBIWXMAAA9hAAAPYQGoP6dpAAA4fUlEQVR4nO3deVhU9f4H8PcBRBZZHBAEGRBToEDQFBRFUzGUlMXdJBW1uiVueFPMLTULLZcMlK5LtJjxywRBUdJiu1bcyyJB5nUDxRQkXIhFEGa+vz+ISVwyPct4xs/reeZ5hjOH8z7fr+OHMzNnzodjjDEQQogM6Gl7Bwgh5O+igkUIkQ0qWIQQ2aCCRQiRDSpYhBDZoIJFCJENKliEENmggkUIkQ0qWIQQ2aCCRQiRDSpYhBDZoIJFCJENKliEENmggkUIkQ0DPr9s6egm1H78pdqK83CxbIYex8HIyEjUrJMV9bB0sgY4PdGzfj1zGd07WoGDBOP69VeYG7cHwMHYWNysS1XX4GTpAE6Cf68zFaWwc7ADJMgqKSmBUmkJADAyMhY16+zZS1B06Qpw4mcBwNmiQtEzhEBHWIQQ2eB1hNVq0KKdQmzmvg7/c7jmft7SZ0XNMp13THP/vcOrRc2a0v0Vzf2899aLmmU6JUxzf034i6JmzdqwVXP/yKIvRM1y/ucAzf2EhARRs3x8fDT3U1PfFjXL1XWm5v6mg0dFzVo4+nlRty8kOsIihMgGFSxCiGxQwSKEyAYVLEKIbFDBIoTIhiCfEhLpRScmYemePZg/6gV8MGOGtneHl/IblVibsgXpv/yAhqZGdLNxxKYXV8LL8RlBc0aOHInLly/ftXzSpElYtmyZoFlSqq+txZ6N65DzzSFUV1XB2d0Dr6x6Bz28emt71wRHR1gylHv2LLZ/exSeTk7a3hXebtT/jqAPZsBA3wBfvB6DrKVfY1VoJCyMzQTP2rNnD9LT0zW37du3AwACAgIEz5JSbFQkCv+dhcjNW/HhkUz0HjwEK8PG42pFueBZ0dHR8Pb2hpmZGWxsbBAaGopTp07dtd7JkycRHBwMCwsLmJmZoX///igrK+OdTwVLZmpv3kTYlg+x47XX0NHUVNu7w1vst5+gi6UttoStxrNOHnC0sscg137o2kkpeJZCoYC1tbXmlpWVBaVSib59+wqeJZXGhpv48fBBhL+5Eu79fGHXtRtejFwMW6UjDn/+ieB5WVlZiIiIQE5ODo4ePYrm5mYEBASgrq5Os865c+fg5+cHNzc3ZGZm4qeffsKKFSsE+SYCvSSUmYiduzDq2Wcx3NMTa7/ep+3d4e2b4iwMfdoXL3+8GD+ezYedhQ3CB03ASwPGiprb1NSE1NRUTJ06FRzHiZolJlWzCmqVCu3at2+z3LC9EU7m/UfwvLS0tDY/x8fHw8bGBvn5+Rg8eDAAYNmyZXjhhRfw3nvvadbr1q2bIPl0hCUjCce+R0FpCaLDpmh7VwRTdvUSPj32Nbp1UiLh9a2Y5jcOy/e9j6/+e1DU3PT0dNTU1CAkJETUHLGZdOgA12f74quYTbh6pQIqlQqZiXtxurAA1yqviJ5fXV0NoOXoFQDUajVSU1Ph4uKCESNGwMbGBv369cP+/fsFyaOCJRMXq6owPz4eu+fNg5GhobZ3RzBqpkZPBzcsDZqLnko3TBs4HmG+Y/Dpsb2i5iYlJWHgwIGwsbERNUcKkR9sBWMMM308Mb6HAw5+shODQ8ZCT09f1FzGGBYuXAg/Pz94eHgAACorK1FbW4t169Zh5MiROHLkCMaMGYOxY8ciKyuLdya9JJSJ/JISVFZXo8/iKM0ylVqN7JMnEXs4DY1f7oG+vrhPUDHYmFvDpXPblws9bJ2R+tN3omVevnwZOTk52Lx5s2gZUrJzcsa7XyWjob4O9TW1UNja4r2IV2CrdBQ1d86cOSgqKsKxY39+/1atVgMAQkJCEBkZCQDo1asXfvjhB3z00Ud47rnneGVSwZIJ/549UbxpY5tlM7Zug1sXe0SFhsqyWAGAT7deOFd5vs2ykt8uwKGjnWiZ+/fvh0KhwKBBg0TL0AYjE1MYmZiitvoGCrMzMP3NlaJlzZ07FykpKcjOzoaDg4NmubW1NQwMDPDMM21PSXn66afbFLZHRQVLJsyMjeHh2PYvpmn79rAyM7truZy8OiQMQZtnYMuRXQju/TyOXziBz39IxIZJy0XJU6vVSE5ORnBwMAwMdOPpX5CVDjCgS7enUH6hFJ+8uxr23brDf4LwV+VgjGHu3LlISkpCZmYmnJ2d2zxuaGgIb2/vu051OH36NJwEOA1HN/7FiGz1dnLHxy9vwLsHYrEpbQccrezx9tg3MM77BVHycnJyUF5ejtDQUFG2rw31NTX4fP1aVFWUw8zCEr6Bo/HSoqUwaNdO8KyIiAjs2bMHycnJMDMzQ0VFBQDAwsICxsYtFxpctGgRJk2ahMGDB2Po0KFIS0vDgQMHkJmZyTufCpaMZa4R93pdUgnwGIwAj8GSZA0YMABFRUWSZEnFb3QI/EZL82lnXFwcAGDIkCFtlsfHxyM8PBwAMGbMGHz00UeIjo7GvHnz4Orqin379sHPz493PhUsQsjfxhj7W+vNnDkTM2fOfPCKD4lOayCEyAYVLEKIbFDBIoTIBhUsQohsUMEihMgGFSxCiGxw7O9+TnkPBobidtptpWq+Be6P3TQ2FLfGNjSp0Toh7YzE/ZJxU0OT5r6xCCf53a6hqQnqP+bQUOQzvJuamwG0XLLFqF37v16Zp4bmRs399u3FzWpsbAT+eHYYifzcaLjtuWEockdrAGiorxc9Qwi8nrkuls1C7cdfKr3O0K2jHhgD9ES+dNG564Ciqw3UgOjXSfqt7CpcFJ3AGIOeyFnnfvsNliZGUDNA7Ms/Xa2th3NHJRgAPU7cPzAXrl+CvbILGJjo/16XLl2Co6MCjKmhpyfuuMrKqmCldAZj4j8P5YRXwRL7P9k9ifwfAFD/GSXl+CTM4kSfw9vDJIySZA4f+QXJI6N69SdeBav1kqdStI/nAHB6evh5zYAHrs83C1zLkcGHGeK2j5/S/RVN1s8fbhE1y3RKGMBx0OM4vP+6uE0rZm3YqsnKXiHuVVGd/zkAHNdShIW6SNz9+Pj4gOM4cByH777bIGqWq+tMcODA6QHbvuV/lYO/Qq3qCSFEBFSwCCGyQQWLECIbVLAIIbJBBYsQIhuSXA8rOq0Micer8L+KmzA21MOAbuZYP8YZrp1NZJ31zaff4ZvP0/HbxSoAgNKlC8ZHhuDZYV6CZ0kp8d85SPq+bU87C1MTxM59RZQ8XWxV39yswubNidi//wdUVt6AjY0lJkwYjHnzQgQ/h+tJalUvScHKOl2NiOfs4d3VDM1qhmXJ5xHwYTF+easvTNsL2zxByiwrOwVeenMiOne1BQBk7j2G92ZuwfvfrIHS1eEBv/1462JthSWTx2h+1hPpjN3WVvUDe/TFF6/HwLqDAheqLorWqr61qwsAnD17Fq+++qoorerj4g5i9+7vsGnTP+Di4oCiolK88cZ2mJkZY9askYJmxUZFouzU/xC5eSsUtrbITPoaK8PGI/bbY7DqLF4zD22Q5CVh2ryeCB/QGe72pvBy6ID4aS4ou9aI/LIaWWf1DeiNZ/29YP9UZ9g/1RlTloyHkakRThecEzxLavp6HCw7mGpu5ibCH6ECutuqPj//DAIC+sDfvzeUyk4YNcoHgwf3RFFRqaA5Ureqv1N0dDQ4jsOCBQsAtHTUjoqKQs+ePWFqagp7e3tMmzbtnke2j0Ir72FV31QBABQm4n5/TsoslUqNY8k5aKhvhEuf7qJmSaHi+g3Mjd2JyLh4xCYfRuWNalFyvinOgpfjM3j548VwX+qP4etfxO4fEkXJul1rq/rQ0FBRzpD39nbB99+fQElJOQDgl18uIDf3FIYJ/HaB1K3qb5ebm4vt27fD09NTs6y+vh4FBQVYsWIFCgoKkJiYiNOnTyM4OFiQTMmv6c4Yw8Kvz8Gvuzk8upjKPuvCyYtYFvw2bjU2wcjUCIt3zoPSpYsoWVJ5yr4zXhsVgM6Kjqiur0fy9//Fms+/QvTLL8Hsj84oQmltVf+PoWGY//xMHC/7Gcv3vQ9DA0NM9BktaNbtxG5VP3t2EGpqbmLo0MXQ19eDSqXGokUTEBIi7Dc1bm9V79DDBZbWnfDv5EScLiyAnXO3B2/gEdXW1iIsLAw7duzA2rVrNcstLCxw9OjRNuvGxMTAx8cHZWVlcOTZkk7yI6w5CWdR9Gsdvpz1tE5k2T9lh/ePvI13D6zEiGlDEbtgBy6eviRanhS8nuoKb7ceUNpYw6OrI/45oeU/9bHik4Jn6Wqr+gMHcpCU9D1iYmbj0KG12LTpH9i+/RD27s0WPEsbreojIiIwatQoDB8+/IHrVldXg+M4WFpa8s6V9AhrbsJZpBRdRfY/veDQUdxLgUiV1c7QAHbOLW+6d/dyxtnCUhzaeQT/eE/c7+tJyciwHRw6WaHi+g3Bt62rrerfeedLzJ4dhOBgXwCAm5sSly5VYdu2A5gwQdiWZlK3qk9ISEBBQQFyc3MfuG5DQwOWLFmCKVOmwNzcnHe2JEdYjDHM+fIsEo9XIX2BF5ythX1Zoa2se+cDTbekueyOVJqam3H56nVYmgr/slpXW9XfvHnrrk9W9fT0oFaLd7UHIxNTKGxtNa3q+wUI+2kkAFy8eBHz58/H7t27NRc/uJ+mpiZMnjwZarUa27ZtEyRfkiOsiC/PYk9uJZJfd4eZkT4qqm8BACyM9WFsKOxhq5RZX0TvRe9hnrC2V+BmbQO+T/4PfvnxJJZ98YagOVLbk/5v9O7uDCtzM/xefxPJ3/8XNxtvYVBP4V9a62qr+uHDeyMmJhn29lZwcXHAiRPnsXPnYUyc+JzgWVK2qs/Pz0dlZSX69OmjWaZSqZCdnY3Y2Fg0NjZCX18fTU1NmDhxIkpLS5Geni7I0RUgUcGKy275pGTIprYdd+OnuSB8QGfZZlVX/Y6YedtxvfIGTMyM4fS0Esu+eANegz0EzZHatZpabEtJQ039TZibGOMp+85YNW0irC2EedLdTldb1a9ZMw0bNnyN5cs/QVXV77C17YiwsGGYP3/Mg3/5IUnZqt7f3x/FxcVtls2YMQNubm6IiopqU6zOnDmDjIwMWFlZCZYvScFiH0nThlzqrNkbZ0mWJaU5IYGS5uliq/oOHYyxatVUrFo1VfQsKVvVm5mZwcOj7R9kU1NTWFlZwcPDA83NzRg/fjwKCgpw8OBBqFQqVFRUAGg5D87QkN+lpalVPSFEML/++itSUlIAAL169WrzWEZGBoYMGcJr+1SwCCG8ZGZmau537doVPPraPBBdrYEQIhtUsAghskEFixAiG1SwCCGyQQWLECIbVLAIIbLBMR6fQQp9Bc/7aWhSo3UvjQ3FrbENTWpNb992RvxOcnuQpoYmzX1jEc5Kvl1DUxPUf0yioYhfSQFavnvY2vLZqJ24X3JvaG7U3G/fXtysxsZGtHZ+NhL5udFw23PD8AHf2RMkr75e9Awh8HrmWjpZC7Uff6my7Bo6OVqBMQaRrtR7zyyxW5//VnYVLopOf4xL3Kxzv/0GSxMjqJn4rc+v1tbDuaMSDC1drcV04fol2Cu7gEH8f69Lly7B0VEBxtSCX5f9TmVlVbBSOoMxiD4uOeH3p1bkJ6O2MyV9okiYxUn57ybpFEoRJt5JkfdD9epPvApW6+Ul3ju8WpCduZ8p3Vu6tejp6eHDjPW6lcW1HIX8/OEWUbNMp4QBHAc9jsP7r4t7ra5ZG7ZqsrJX7BM1y/mfA8BxLUV4//79omb5+PiA4zhwHIfvvtsgapar60xw4MDpAdu+PSZq1sLRz4u6fSHRm+6EENmggkUIkQ0qWIQQ2aCCRQiRDbq8DA+62qqe8Cdlq/onCRUsHnS5VT3hR8pW9U8SKvU86HKresKPVK3qtSE7OxtBQUGwt7cHx3F3nU6SmJiIESNGwNraGhzHobCwULBsKlgC0bVW9YQfqVrVa0NdXR28vLwQGxt738cHDhyIdevWCZ5NLwl50sVW9YQ/qVrVa0NgYCACA+/fqGTq1JbGG+fPnxc8mwoWT62t6ut+r8d/DuUidsEOrN73JhWtJ9ztrepb+hJewOrVu2Frayl45+cnCRUsnp6EVvXk4UnZqv5JQu9hCUwXW9WTh6eNVvVPAjrC4kFXW9UT/qRsVf8koYLFg662qif8Sdmq/klCBYsHXW1VT/iTslW91Gpra3H27FnNz6WlpSgsLIRCoYCjoyOuXbuGsrIyXL58GQBw6tQpAEDnzp3RuXNnXtn0HhYh5KHk5eWhd+/e6N27NwBg4cKF6N27N1auXAkASElJQe/evTFq1CgAwOTJk9G7d2989NFHvLPpCIsQ8lCGDBnyl+3ow8PDER4eLko2HWERQmSDChYhRDaoYBFCZIMKFiFENqhgEUJkgwoWIUQ2eLWqb28ibmvwVi0t3Vt2U5r28VJmtaBW9Y+GWtULlPcktKrv3tFKqP34SyWVv6Fbp5aW7pzIveq1lUWt6h8Ntap/svAqWJyUfci1kCnp+KhVPf8oalWv8wRpVZ/3nrgt3U2nhIEDwOlJ09JdV7OoVT0/1Kpe++hNd0KIbFDBIoTIBhUsQohsUMEihMgGFSxCiGzofMGKTkwCN34CFsTH61SWLim/UYmIz5bh6SVD4fzPAfBfPxk/lf2i7d3ipblZhfff34uBAyPRo8cMDBwYiQ8+SIJardb2rsmaThes3LNnsf3bo/B0ctKpLF1yo/53BH0wAwb6Bvji9RhkLf0aq0IjYWFspu1d4yUu7iB27/4Oa9ZMQ3r6e1i69EX861+piI8/ou1d4yU6Ohre3t4wMzODjY0NQkNDNZdABoCmpiZERUWhZ8+eMDU1hb29PaZNm6a5XDJfOluwam/eRNiWD7HjtdfQ0dRUZ7J0Tey3n6CLpS22hK3Gs04ecLSyxyDXfujaSantXeMlP/8MAgL6wN+/N5TKThg1ygeDB/dEUVGptneNl6ysLERERCAnJwdHjx5Fc3MzAgICUFdXBwCor69HQUEBVqxYgYKCAiQmJuL06dMIDg4WJF9nC1bEzl0Y9eyzGO7pqVNZuuab4ix4OT6Dlz9eDPel/hi+/kXs/iFR27vFm7e3C77//gRKSsoBAL/8cgG5uacwbJiXlveMn7S0NISHh8Pd3R1eXl6Ij49HWVkZ8vPzAQAWFhY4evQoJk6cCFdXV/Tv3x8xMTHIz89HWVkZ73ydvKZ7wrHvUVBagtx163QqSxeVXb2ET499jX8MDcP852fieNnPWL7vfRgaGGKiz2ht794jmz07CDU1NzF06GLo6+tBpVJj0aIJCAkZoO1dE1R1dTUAQKFQ/OU6HMfB0tKSd57OFayLVVWYHx+PIyuWw8hQ3G/US5mlq9RMDS/lM1gaNBcA0FPphlPlJfj02F5ZF6wDB3KQlPQ9YmJm/9FI9QJWr94NW1tLnWlVzxjDwoUL4efnBw+Pe/fibGhowJIlSzBlyhSYm5vzztS5gpVfUoLK6mr0WRylWaZSq5F98iRiD6eh8cs90NfXl12WrrIxt4ZL525tlvWwdUbqT99paY+E8c47X2L27CAEB/sCANzclLh0qQrbth3QmYI1Z84cFBUV4dixe3/XsampCZMnT4Zarca2bdsEydS5guXfsyeKN21ss2zG1m1w62KPqNBQQQuIlFm6yqdbL5yrPN9mWclvF+DQ0U47OySQmzdvQe+OyxPp6elBrZb+ag9imDt3LlJSUpCdnQ0HB4e7Hm9qasLEiRNRWlqK9PR0QY6uAB0sWGbGxvBwdGyzzLR9e1iZmd21XE5ZuurVIWEI2jwDW47sQnDv53H8wgl8/kMiNkxaru1d42X48N6IiUmGvb3VHy8Jz2PnzsOYOPE5be8aL4wxzJ07F0lJScjMzISzs/Nd67QWqzNnziAjIwNWVsJdN0/nChaRl95O7vj45Q1490AsNqXtgKOVPd4e+wbGeb+g7V3jZc2aadiw4WssX/4Jqqp+h61tR4SFDcP8+WO0vWu8REREYM+ePUhOToaZmRkqKioAtHw6aGxsjObmZowfPx4FBQU4ePAgVCqVZh2FQgFDnu/1PhEFK3PNap3M0hUBHoMR4KEb7+u06tDBGKtWTcWqVVO1vSuCiouLA9DS/fl28fHxCA8Px6+//oqUlBQAQK9evdqsk5GRcdfvPawnomARQoTxoBYQXbt2feA6fOjsiaOEEN1DBYsQIhtUsAghskEFixAiG1SwCCGyQQWLECIbvFrVm4rcGrxVQ1OTpn2lFC3ddTWLWtXzQ63qtY/XM9fcWJqCdau5GVYdTMAY7vp+FmX9/axOZqZ/tD4XNYpa1QuAWtXfG88/tdqYSCkzdTOLWtXzQa3qtYlXwTI2bjlUXRP+oiA7cz+zNmwF0PJtd0narFMW/yxqVc8Ltaq/N3rTnRAiG1SwCCGyQQWLECIbVLAIIbJBBYsQIhuSXA8r8d85SPr+P22WWZiaIHbuK5T1GGZJrfxGJdambEH6Lz+goakR3WwcsenFlfByfEbQnJEjR96zA/GkSZOwbNkyQbOkVF9biz0b1yHnm0OorqqCs7sHXln1Dnp49db2rglOsgv4dbG2wpLJf14eVswTJSlLPlpb1Q/s0RdfvB4D6w4KXKi6KEqr+j179kCtVmt+Pnv2LF599VUEBAQIniWl2KhIlJ36HyI3b4XC1haZSV9jZdh4xH57DFad5d3M406SvSTU1+Ng2cFUczM3MaGsxzhLKlK2qlcoFLC2ttbcsrKyoFQq0bdvX8GzpNLYcBM/Hj6I8DdXwr2fL+y6dsOLkYthq3TE4c8/ET0/OjoaHMdhwYIFAFoaUERFRaFnz54wNTWFvb09pk2bds8j20ch2RFWxfUbmBu7Ewb6+njKvjMmPjcANpYWlPWYZknlm+IsDH3aFy9/vBg/ns2HnYUNwgdNwEsDxoqa29TUhNTUVEydOlXWX31RNaugVqnQ7o7vURq2N8LJvP/c57eEkZubi+3bt8PT01OzrL6+HgUFBVixYgW8vLxw/fp1LFiwAMHBwcjLy+OdKckR1lP2nfHaqAAsnhiKWYH+qK6tw5rPv0LNzZuU9RhmSam1VX23TkokvL4V0/zGYfm+9/HVfw+Kmpueno6amhqEhISImiM2kw4d4PpsX3wVswlXr1RApVIhM3EvThcW4FrlFdFya2trERYWhh07dqBjx46a5RYWFjh69CgmTpwIV1dX9O/fHzExMcjPz0dZWRnvXEkKltdTXeHt1gNKG2t4dHXEPye0PEmOFZ+krMcwS0pqpkZPBzcsDZqLnko3TBs4HmG+Y/Dpsb2i5iYlJWHgwIGwsbERNUcKkR9sBWMMM308Mb6HAw5+shODQ8ZCT0+8Rr4REREYNWoUhg8f/sB1q6urwXEcLC0teedqpWuOkWE7OHSyQsX1G5QlgywxaaNV/eXLl5GTk4PNmzeLliElOydnvPtVMhrq61BfUwuFrS3ei3gFtkpxmvkmJCSgoKAAubm5D1y3oaEBS5YswZQpUwTp/qyV87Camptx+ep1WJqaUpYMssSkjVb1+/fvh0KhwKBBg0TL0AYjE1MobG1RW30DhdkZ6BcwUvCMixcvYv78+di9ezeMHnCdrqamJkyePBlqtRrbtm0TJF+SI6w96f9G7+7OsDI3w+/1N5H8/X9xs/EWBvV8mrIewywpSd2qXq1WIzk5GcHBwTAQ+UKGUinISgcY0KXbUyi/UIpP3l0N+27d4T9B+Kuo5Ofno7KyEn369NEsU6lUyM7ORmxsLBobG6Gvr69pV19aWor09HRBjq4AiQrWtZpabEtJQ039TZibGOMp+85YNW0irC2EGQRlyZfUrepzcnJQXl6O0NBQUbavDfU1Nfh8/VpUVZTDzMISvoGj8dKipTAQ4Sq2/v7+KC4ubrNsxowZcHNzQ1RUVJtidebMGWRkZMDKykqwfEkK1pyQQCliKEumpGxVP2DAABQVFUmSJRW/0SHwGy3Np51mZmbw8PBos8zU1BRWVlbw8PBAc3Mzxo8fj4KCAhw8eBAqlQoVFRUAWs6DMzTkd2lp3TgmJoQ8Fn799VekpKQAAHr16tXmsYyMDAwZMoTX9qlgEUJ4yczM1Nzv2rUrePS1eSC6WgMhRDaoYBFCZIMKFiFENqhgEUJkgwoWIUQ2qGARQmSDYzw+g2wvwpm099LU3Kzpt2so8tcpKEuYrNaWz0bt2v/1yjw1NDdq7rdvL25WY2MjWjs/GxnxOwHyQRoamjT3DR/wnT1B8urrRc8QAq9nrpOlg1D78ZfKrl+Gk6U91GCiX2yNsoTN0uPEPYi/cP0S7JVdwCQY16VLl+DoqABjaujpiTuusrIqWCmdwRhkfYFBofEqWNqYSCkzKUuIMAmjJBmXeCdF3g/Vqz/xKlitl5c4sugLQXbmfpz/OQDgOOhxHLJX7KMsymqTxXEAx+lh//79omb5+PiA4zhwHIfvvtsgapar60xw4MDpAdu+PSZq1sLRz4u6fSHRm+6EENmggkUIkQ0qWIQQ2aCCRQiRDSpYhBDZoOth8VR+oxJrU7Yg/Zcf0NDUiG42jtj04kp4OT6j7V2TDanmcOTIkffsQDxp0iQsW7ZM0KzmZhU2b07E/v0/oLLyBmxsLDFhwmDMmxci+Dlc9bW12LNxHXK+OYTqqio4u3vglVXvoIdXb0FzHgdUsHi4Uf87gj6YgYE9+uKL12Ng3UGBC1UXYWFspu1dkw0p53DPnj1Qq9Wan8+ePYtXX30VAQEBgmfFxR3E7t3fYdOmf8DFxQFFRaV4443tMDMzxqxZwnaziY2KRNmp/yFy81YobG2RmfQ1VoaNR+y3x2DVWdjuQ3FxcYiLi8P58+cBAO7u7li5ciUCA/+8hPfJkycRFRWFrKwsqNVquLu746uvvoKjI/+2Y1SweIj99hN0sbTFlrDVmmWOVvZa3CP5kXIOFQpFm5937doFpVKJvn37Cp6Vn38GAQF94O/fcpSjVHZCSsqPKCoqFTSnseEmfjx8EMt2fAb3fr4AgBcjF+M/Rw7j8Oef4KVFbwqa5+DggHXr1qF79+4AgE8//RQhISE4fvw43N3dce7cOfj5+WHWrFlYvXo1LCwscPLkyQe2BPu7qGDx8E1xFoY+7YuXP16MH8/mw87CBuGDJuClAWO1vWuyoa05bGpqQmpqKqZOnSrKGfLe3i744ot0lJSUo1s3O/zyywXk5p7CW2+9JGiOqlkFtUqFdnd8j9KwvRFO5v1H0CwACAoKavPzO++8g7i4OOTk5MDd3R3Lli3DCy+8gPfee0+zTrdu3e7czCOjN915KLt6CZ8e+xrdOimR8PpWTPMbh+X73sdX/z2o7V2TDW3NYXp6OmpqahASIk63mdmzgxAc7IuhQxejW7fpCAxcjpkzRyIkZICgOSYdOsD12b74KmYTrl6pgEqlQmbiXpwuLMC1yiuCZt1JpVIhISEBdXV18PX1hVqtRmpqKlxcXDBixAjY2NigX79+gn4DgY6weFAzNbyUz2Bp0FwAQE+lG06Vl+DTY3sx0We0lvdOHrQ1h0lJSRg4cCBsbGxE2f6BAzlISvoeMTGz4eLigBMnLmD16t2wtW15811IkR9sRcyiBZjp4wk9fX085eGJwSFjce7n4gf/8iMoLi6Gr68vGhoa0KFDByQlJeGZZ55BRUUFamtrsW7dOqxduxbr169HWloaxo4di4yMDDz33HO8s6lg8WBjbg2Xzm0Pd3vYOiP1p++0tEfyo405vHz5MnJycrB582bRMt5550vNURYAuLkpcelSFbZtOyB4wbJzcsa7XyWjob4O9TW1UNja4r2IV2Cr5P8m9724urqisLAQN27cwL59+zB9+nRkZWXB0tISABASEoLIyEgALa2+fvjhB3z00UeCFCx6SciDT7deOFd5vs2ykt8uwKGjsJ/M6DJtzOH+/fuhUCgwaNAg0TJu3rwFPb22743p6elBrRbvag9GJqZQ2NqitvoGCrMz0C9A2E8jWxkaGqJ79+7o27cvoqOj4eXlhS1btsDa2hoGBgZ45pm2p6M8/fTTKCsrEySbChYPrw4JQ/75n7HlyC6U/laGxLzD+PyHRMwYNFHbuyYbUs+hWq1GcnIygoODYSDihQyHD++NmJhkfPfdcVy8+BvS0nKxc+dhjBgh/CeSBVnpKMhMx5WyCyj8dyaWTx4D+27d4T/hRcGz7oUxhsbGRhgaGsLb2xunTp1q8/jp06fh5OQkSBa9JOSht5M7Pn55A949EItNaTvgaGWPt8e+gXHeL2h712RD6jnMyclBeXk5QkNDRdl+qzVrpmHDhq+xfPknqKr6Hba2HREWNgzz548RPKu+pgafr1+LqopymFlYwjdwNF5atBQGIlwReOnSpQgMDIRSqURNTQ0SEhKQmZmJtLQ0AMCiRYswadIkDB48GEOHDkVaWhoOHDjQptkqH1SweArwGIwAD2Hfk3jSSDmHAwYMQFFRkeg5HToYY9WqqVi1aqroWX6jQ+A3WpxPO+905coVTJ06FeXl5bCwsICnpyfS0tLw/PMt19QaM2YMPvroI0RHR2PevHlwdXXFvn374OfnJ0g+FSxCyN+2a9euB64zc+ZMzJw5U5R8eg+LECIbVLAIIbJBBYsQIhtUsAghskEFixAiG1SwCCGywatVvYmhsZD7cl8NzY2a/pWStD6nLHll/YFa1fPIexJa1ds5SPOduV8vXUKXLl3AGIOeyG1wKUu+WdSqXvfxO3FUGxMpaZt1ypJTFrWq132CtKpPSEgQZGfux8fHB0DLt92laEdOWZR1vyxqVa9d9KY7IUQ2qGARQmSDChYhRDaoYBFCZIMKFiFENiS5HpaULcKlJOW4dHUOdZWUreqfJJIULClbhEtJynHp6hzqKilb1UspOjoaiYmJ+N///gdjY2MMGDAA69evh6urq2adK1euICoqCkeOHMGNGzcwePBgxMTEoEePHrzzJSn1CoUC1tbWmltWVpZoLcKlJOW4dHUOddXtreqVyk4YNcoHgwf3FLxVvdSysrIQERGBnJwcHD16FM3NzQgICEBdXR2AloYUoaGhKCkpQXJyMo4fPw4nJycMHz5csw4fkh+btrYIDw0N1amvHEg5Ll2dQ13i7e2C778/gZKScgDQtKofNsxLy3vGT1paGsLDw+Hu7g4vLy/Ex8ejrKwM+fn5AIAzZ84gJycHcXFx8Pb2hqurK7Zt24ba2lp8+eWXvPMlv6a72C3CtUXKcenqHOqS2bODUFNzE0OHLoa+vh5UKjUWLZogeKt6bauurgbQ8goAaP2C+J/fggEAfX19GBoa4tixY3j55Zd55Ul+hCV2i3BtkXJcujqHuuT2VvWHDq3Fpk3/wPbth7B3b7a2d00wjDEsXLgQfn5+8PDwAAC4ubnByckJb775Jq5fv45bt25h3bp1qKioQHl5Oe9MSQtWa4vwcePGSRkrOinHpatzqGtub1Xv5qbEuHF+ePnlkdi27YC2d00wc+bMQVFRUZuXeu3atcO+fftw+vRpKBQKmJiYIDMzE4GBgdDX1+edKelLQilahGuDlOPS1TnUNdpoVS+luXPnIiUlBdnZ2XBwcGjzWJ8+fVBYWIjq6mrcunULnTp1Qr9+/QT5gEiygiVVi3CpSTkuXZ1DXdTaqt7e3gouLg44ceI8du48jIkTn9P2rvHCGMPcuXORlJSEzMxMODs733ddCwsLAC1vxOfl5eHtt9/mnS/Zs16qFuFSk3JcujqHukjKVvVSioiIwJ49e5CcnAwzMzNUVFQAaClOxsYtVyDeu3cvOnXqBEdHRxQXF2P+/PkIDQ0V5JxByQqWVC3CpSbluHR1DnWRlK3qpRQXFwcAGDJkSJvl8fHxCA8PBwCUl5dj4cKFuHLlCuzs7DBt2jSsWLFCkHx6XUEI+dv+TguIefPmYd68eaLk05eaCCGyQQWLECIbVLAIIbJBBYsQIhtUsAghskEFixAiG1SwCCGywbG/c2LFfbSe2Sq21ktWAED79u0pi7K0mNXy38XIyFDUrIaGJs19w9su1SJaXn296BlC4HXiqFJpKdBu/LWysioolVZgjIl+PWzKoqzHJctK6QzGQBdpvA2d6U7IY47q1Z94FSwjo5aXhKmp/L+F/VdcXWeC4zhwHIfvvttAWZT1ZGSBA6cHbPv2mKhZC0c/L+r2hURvuhNCZIMKFiFENqhgEUJkgwoWIUQ2JPmUUMq23bqapatoDsnDkKRgSdm2W1ezdBXNIXkYkvwJk7Jtt65m6SqaQ3mJi4uDp6cnzM3NYW5uDl9fXxw+fBhAS0fyqKgo9OzZE6amprC3t8e0adNw+fJlwfIlKVhStu3W1SxdRXMoLw4ODli3bh3y8vKQl5eHYcOGISQkBCdOnEB9fT0KCgqwYsUKFBQUIDExEadPn0ZwcLBg+ZK8JJSybbeuZukqmkN5CQoKavPzO++8g7i4OOTk5GDWrFk4evRom8djYmLg4+ODsrIyODo68s6XpGDd3ra7pUfbBaxevRu2ti1vsFLWk4vmUL5UKhX27t2Luro6+Pr63nOd6upqcBwHS0tLQTIlKVi3t+0GADc3JS5dqsK2bQcEf1LqapauojmUn+LiYvj6+qKhoQEdOnRAUlISnnnmmbvWa2howJIlSzBlyhSYm5sLki3Je1hStu3W1SxdRXMoP66urigsLEROTg5ef/11TJ8+Hb/88kubdZqamjB58mSo1Wps27ZNsGxJjrCkbNutq1m6iuZQfgwNDdG9e3cAQN++fZGbm4stW7bgX//6F4CWYjVx4kSUlpYiPT1dsKMrQKKCJWXbbl3N0lU0h/LHGNNcSLG1WJ05cwYZGRmwsrISNEuSgiVl225dzdJVNIfysnTpUgQGBkKpVKKmpgYJCQnIzMxEWloampubMX78eBQUFODgwYNQqVSoqKgAACgUChga8r9KK13AjxDyt125cgVTp05FeXk5LCws4OnpibS0NDz//PM4f/48UlJSAAC9evVq83sZGRkYMmQI73wqWISQv23Xrl33faxr167g0SLib6FvlxJCZIMKFiFENqhgEUJkgwoWIUQ2qGARQmSDChYhRDZ4tao3MRG3NXirlrbdUrYIpyzKehyyWlCr+j/xOg9L0aWrQLvx1yovXkAnpVNLi3CR2+BSFmU9blnUqv5P/E4c1cY8SplJWZT1GGRRvfqTIK3qNx08+oA1+Zno5gQA0NPjRG/bTVmU9aRlUat6QggRARUsQohsUMEihMgGFSxCiGxQwSKEyIZkBau+thY7Vy/HywOexQQXRywe8wLO/HRcqnjR6Oq4pKSrcyjVuHR1/u5FsoIVGxWJwn9nIXLzVnx4JBO9Bw/ByrDxuFpRLtUuiEJXxyUlXZ1DqcalzfmLjo4Gx3FYsGCBZll4eDg4jmtz69+/vyB5khSsxoab+PHwQYS/uRLu/Xxh17UbXoxcDFulIw5//okUuyAKXR2XlHR1DqUalzbnLzc3F9u3b4enp+ddj40cORLl5eWa26FDhwTJlKRgqZpVUKtUaNe+7XcPDdsb4WTef6TYBVHo6rikpKtzKNW4tDV/tbW1CAsLw44dO9CxY8e7Hm/fvj06d+6suSkUCkFyJSlYJh06wPXZvvgqZhOuXqmASqVCZuJenC4swLXKK1Lsgih0dVxS0tU5lGpc2pq/iIgIjBo1CsOHD7/n45mZmbCxsYGLiwteeeUVVFZWCpIr2XtYkR9sBWMMM308Mb6HAw5+shODQ8ZCT09fql0Qha6OS0q6OodSjUvq+UtISEBBQQGio6Pv+XhgYCC++OILpKenY+PGjcjNzcWwYcM0vQv5kKxrjp2TM979KhkN9XWor6mFwtYW70W8Alulo1S7IApdHZeUdHUOpRqXlPN38eJFzJ8/H0eOHIHRfS57M2nSJM19Dw8P9O3bF05OTkhNTcXYsWN55Ut+HpaRiSkUtraorb6BwuwM9AsYKfUuiEJXxyUlXZ1DqcYlRU5+fj4qKyvRp08fGBgYwMDAAFlZWfjwww9hYGAAlUp11+/Y2dnByckJZ86c4Z0v2RFWQVY6wIAu3Z5C+YVSfPLuath36w7/CS9KtQui0NVxSUlX51CqcUk5f/7+/iguLm6zbMaMGXBzc0NUVBT09e9+GXr16lVcvHgRdnZ2vPMlK1j1NTX4fP1aVFWUw8zCEr6Bo/HSoqUwaNdOql0Qha6OS0q6OodSjUvK+TMzM4OHh0ebZaamprCysoKHhwdqa2uxatUqjBs3DnZ2djh//jyWLl0Ka2trjBkzhne+ZAXLb3QI/EaHSBUnGV0dl5R0dQ6lGtfjNH/6+vooLi7GZ599hhs3bsDOzg5Dhw7F//3f/8HMzIz39qlVPSGEl8zMTM19Y2NjfPPNN6Jl0ZefCSGyQQWLECIbVLAIIbJBBYsQIhtUsAghskEFixAiG7xa1Xf37CXgrtzfr2dPw6qLEhz3Zy9EyqIsyhLO2aJC0TOEwKtgEUKIlOglISFENqhgEUJkgwoWIUQ2qGARQmSDChYhRDaoYBFCZIMKFiFENqhgEUJkgwoWIUQ2qGARQmRDlIIVFxcHT09PmJubw9zcHL6+vjh8+LDm8cTERIwYMQLW1tbgOA6FhYWPnJWdnY2goCDY29uD4zjs37+/zeNXrlxBeHg47O3tYWJigpEjRwrSbig6Ohocx2HBggWaZeHh4eA4rs2tf//+j7T9B40LAE6ePIng4GBYWFjAzMwM/fv3R1lZ2SOO6E+rVq26axydO3fmvd073WsO78xtvb3//vsPvW1vb2+YmZnBxsYGoaGhOHXqVJt1amtrMWfOHDg4OMDY2BhPP/004uLiRBmXXJ+HjxtRCpaDgwPWrVuHvLw85OXlYdiwYQgJCcGJEycAAHV1dRg4cCDWrVvHO6uurg5eXl6IjY296zHGGEJDQ1FSUoLk5GQcP34cTk5OGD58OOrq6h45Mzc3F9u3b4enp+ddj40cORLl5eWa26FDhx4p46/GBQDnzp2Dn58f3NzckJmZiZ9++gkrVqy4b3PLh+Xu7t5mHHe2duLrfnN4e2Z5eTk+/vhjcByHcePGPdT2s7KyEBERgZycHBw9ehTNzc0ICAho8+8eGRmJtLQ07N69GydPnkRkZCTmzp2L5ORkQccl5+fhY4dJpGPHjmznzp1tlpWWljIA7Pjx44JkAGBJSUman0+dOsUAsJ9//lmzrLm5mSkUCrZjx45HyqipqWE9evRgR48eZc899xybP3++5rHp06ezkJCQR9z7+7tzXIwxNmnSJPbSSy8JnsUYY2+99Rbz8vISZduM/fUc3ikkJIQNGzaMd2ZlZSUDwLKysjTL3N3d2Zo1a9qs9+yzz7Lly5c/Usb9xqUrz8PHgejvYalUKiQkJKCurg6+vr5ix7XR2NgIAG2OOvT19WFoaIhjx4490jYjIiIwatQoDB8+/J6PZ2ZmwsbGBi4uLnjllVdQWVn5SDl/Ra1WIzU1FS4uLhgxYgRsbGzQr1+/e75sfFRnzpyBvb09nJ2dMXnyZJSUlAi27QfNYasrV64gNTUVs2bN4p1ZXV0NAFAoFJplfn5+SElJwaVLl8AYQ0ZGBk6fPo0RI0Y8Usb9xqWrz0OtEKsSFhUVMVNTU6avr88sLCxYamrqXeuIfYR169Yt5uTkxCZMmMCuXbvGGhsbWXR0NAPAAgICHnr7X375JfPw8GA3b95kjLG7/rIlJCSwgwcPsuLiYpaSksK8vLyYu7s7a2hoEHRc5eXlDAAzMTFhmzZtYsePH2fR0dGM4ziWmZnJK4sxxg4dOsS+/vprVlRUpPkLbmtry6qqqnhv+0FzeLv169ezjh07atZ9VGq1mgUFBTE/P782yxsbG9m0adMYAGZgYMAMDQ3ZZ5999kgZfzUuXXkePg5EK1iNjY3szJkzLDc3ly1ZsoRZW1uzEydOtFlH7ILFGGN5eXnMy8uLAWD6+vpsxIgRLDAwkAUGBj7UtsvKypiNjQ0rLCzULHvQy5nLly+zdu3asX379j1U1p3uHNelS5cYAPbiiy+2WS8oKIhNnjyZV9a91NbWMltbW7Zx40Ze23nYOXR1dWVz5szhlckYY7Nnz2ZOTk7s4sWLbZa///77zMXFhaWkpLCffvqJxcTEsA4dOrCjR48+1Pb/zrh04Xn4OJDsPSx/f3/26quvtlkmRcFqdePGDVZZWckYY8zHx4fNnj37obadlJSkebK13gAwjuOYvr4+a25uvufvde/ena1bt+6hsu5057gaGxuZgYEBe/vtt9ust3jxYjZgwABeWfczfPhw9tprr/HaxsPMYXZ2NgPQ5j/mo5gzZw5zcHBgJSUlbZbX19ezdu3asYMHD7ZZPmvWLDZixIiHyniYccn5efg4kKzzM2NM81peGywsLAC0vDeTl5eHt99++6F+39/f/65PymbMmAE3NzdERUVBX1//rt+5evUqLl68CDs7u0ff8XswNDSEt7f3XR/Tnz59Gk5OToJmAS3vwZw8eRKDBg3itZ2HmcNdu3ahT58+8PLyeqQsxhjmzp2LpKQkZGZmwtnZuc3jTU1NaGpqgp5e27dx9fX1oVarHyrrYcalS89DbRClYC1duhSBgYFQKpWoqalBQkICMjMzkZaWBgC4du0aysrKcPnyZQDQ/Mfr3LnzQ5/vU1tbi7Nnz2p+Li0tRWFhIRQKBRwdHbF371506tQJjo6OKC4uxvz58xEaGoqAgICHyjEzM4OHh0ebZaamprCysoKHhwdqa2uxatUqjBs3DnZ2djh//jyWLl0Ka2trjBkz5qGy/s64Fi1ahEmTJmHw4MEYOnQo0tLScODAgTZtwx/VG2+8gaCgIDg6OqKyshJr167F77//junTp/Pa7oPmsNXvv/+OvXv3YuPGjY+cFRERgT179iA5ORlmZmaoqKgA0FIwjI2NYW5ujueeew6LFi2CsbExnJyckJWVhc8++wybNm0SfFxyfR4+dsQ4bJs5cyZzcnJihoaGrFOnTszf358dOXJE83h8fDwDcNftrbfeeuisjIyMe25r+vTpjDHGtmzZwhwcHFi7du2Yo6MjW758OWtsbBRknLe/d1BfX88CAgJYp06dNFnTp09nZWVlj7TtB42LMcZ27drFunfvzoyMjJiXlxfbv3+/AKNqOWXCzs6OtWvXjtnb27OxY8fe9f6jUO71/su//vUvZmxszG7cuPHI273X3AFg8fHxmnXKy8tZeHg4s7e3Z0ZGRszV1ZVt3LiRqdXqR85tdee45Po8fNxQEwpCiGzQdwkJIbJBBYsQIhtUsAghskEFixAiG1SwCCGyQQWLECIbVLAIIbJBBYsQIhtUsAghskEFixAiG1SwCCGyQQWLECIbVLAIIbJBBYsQIhtUsAghskEFixAiG1SwCCGy8f/D6dxUsSyD2AAAAABJRU5ErkJggg==;" vertex="1" parent="1">
          <mxGeometry x="80" y="160" width="300" height="300" as="geometry" />
        </mxCell>
        <mxCell id="gtzwXYbAEQbTO65BLNOc-9" value="&lt;div class=&quot;lm-Widget p-Widget lm-Panel p-Panel jp-OutputArea-child&quot; style=&quot;box-sizing: border-box; position: relative; overflow: hidden; cursor: default; display: flex; flex-direction: row;&quot;&gt;&lt;div class=&quot;lm-Widget p-Widget jp-RenderedHTMLCommon jp-RenderedMarkdown jp-mod-trusted jp-OutputArea-output&quot; data-mime-type=&quot;text/markdown&quot; style=&quot;box-sizing: border-box; position: relative; overflow: auto; cursor: default; color: var(--jp-content-font-color1); font-family: var(--jp-content-font-family); font-size: var(--jp-content-font-size1); line-height: var(--jp-content-line-height); padding-right: 20px; height: auto; user-select: text; flex-grow: 1; flex-shrink: 1;&quot;&gt;&lt;p style=&quot;box-sizing: unset; margin: 0px 0px 0.5em; text-align: left;&quot;&gt;&lt;strong style=&quot;box-sizing: unset; font-weight: bold;&quot;&gt;Solved in 0.0749 seconds. Answer is : 150&lt;/strong&gt;&lt;/p&gt;&lt;/div&gt;&lt;/div&gt;&lt;div class=&quot;lm-Widget p-Widget lm-Panel p-Panel jp-OutputArea-child&quot; style=&quot;box-sizing: border-box; position: relative; overflow: hidden; cursor: default; display: flex; flex-direction: row;&quot;&gt;&lt;div class=&quot;lm-Widget p-Widget jp-OutputPrompt jp-OutputArea-prompt&quot; style=&quot;box-sizing: border-box; position: relative; overflow: hidden; cursor: default; flex: 0 0 var(--jp-cell-prompt-width); color: var(--jp-cell-outprompt-font-color); font-family: var(--jp-cell-prompt-font-family); padding: 0px; letter-spacing: normal; line-height: var(--jp-code-line-height); font-size: var(--jp-code-font-size); border: 0px; opacity: var(--jp-cell-prompt-opacity); text-align: right; text-overflow: ellipsis; user-select: none; font-style: normal; font-variant-ligatures: normal; font-variant-caps: normal; font-weight: 400; orphans: 2; text-indent: 0px; text-transform: none; widows: 2; word-spacing: 0px; -webkit-text-stroke-width: 0px; background-color: rgb(255, 255, 255); text-decoration-thickness: initial; text-decoration-style: initial; text-decoration-color: initial;&quot;&gt;&lt;/div&gt;&lt;br class=&quot;Apple-interchange-newline&quot;&gt;&lt;/div&gt;" style="text;whiteSpace=wrap;html=1;" vertex="1" parent="1">
          <mxGeometry x="90" y="130" width="290" height="30" as="geometry" />
        </mxCell>
        <mxCell id="gtzwXYbAEQbTO65BLNOc-10" value="" style="shape=image;imageAspect=0;aspect=fixed;verticalLabelPosition=bottom;verticalAlign=top;image=data:image/png,iVBORw0KGgoAAAANSUhEUgAAASwAAAEsCAYAAAB5fY51AAAAOXRFWHRTb2Z0d2FyZQBNYXRwbG90bGliIHZlcnNpb24zLjcuMCwgaHR0cHM6Ly9tYXRwbG90bGliLm9yZy88F64QAAAACXBIWXMAAA9hAAAPYQGoP6dpAAA2t0lEQVR4nO3deVhU9f4H8PcBRBZZHBAEGRBSIEHQFBRFcwslFXDfUlGzews3LMXc0rJQc7kGSdclW9T4ZYKgKGmxmBVdFgkyr7tiChIqxCIIM9/fH1wmR3E9y3jGz+t55nmGM4fz/p6vw8czM2fOh2OMMRBCiAwY6HoAhBDyqKhgEUJkgwoWIUQ2qGARQmSDChYhRDaoYBFCZIMKFiFENqhgEUJkgwoWIUQ2qGARQmSDChYhRDaoYBFCZIMKFiFENqhgEUJkw4jPL1s7ewo1jgeqKrkId+sGGHAcTExMRM06WVIDaxdbgDMQPeuPM1fRobUNOEiwX3/8AUvTlgA4mJqKm3Wl7AZcrJ3ASfDvdabkAhycHAAJss6fPw+l0hoAYGJiKmrW2bNXoGjXHuDEzwKAswX5omcIgY6wCCGywesIq0mfBduE2Mx9HXpzkOZ+zuIXRM0yn3NMc3/toZWiZk3sMFNzP2ftGlGzzCdO0tx/N3yCqFkz1n2suX94wS5Rs1zf7KW5Hx8fL2qWv7+/5n5KynuiZnl4TNfc33DgiKhZ84e9JOr2hURHWIQQ2aCCRQiRDSpYhBDZoIJFCJENKliEENkQ5FPCZ9W3n3+Pb79Mw5+XywAASvd2GB0ZihcG+Op4ZPJSXF6KVcmbkPb7T6itr4ObnTM2TFgOX+dOuh7aE2toUGHjxgTs2/cTSkvLYWdnjTFj+mLOnFAYGAh7nFBTVYXd61cj69uDqCgrg6uXN2aueB8dfbsKmvM0oCMsHmwcFHjl7bFYc3Al1hxcCe/enbB2+iZcPvWHrocmG+U1f2H4v6bByNAIu16PQebib7AiLBJWpha6HhovcXEHsHPn93j33SlIS1uLxYsn4N//TsGOHYcFz4qNikT+D5mI3PgxPjqcga59+2H5pNG4XlIseFZ0dDT8/PxgYWEBOzs7hIWF4dSpU/esd/LkSYSEhMDKygoWFhbo2bMnioqKeOdTweKhe1BXvDDQF47PtYXjc20xcdFomJib4HTeOV0PTTZiv/sM7aztsWnSSrzg4g1nG0f08eiB9m2Uuh4aL7m5ZxAU1A0DB3aFUtkGQ4f6o2/fzigouCBoTl3tLfx86ADC314Orx4BcGjvhgmRC2GvdMahLz8TNAsAMjMzERERgaysLBw5cgQNDQ0ICgpCdXW1Zp1z584hMDAQnp6eyMjIwK+//oply5YJ8k0EekkoEJVKjZ8P/Ae1NXVw79ZB18ORjW8LM9H/+QC8+ulC/Hw2Fw5WdgjvMwav9Bqp66Hx4ufnjl270nD+fDHc3Bzw+++XkJ19Cu+884qgOaoGFdQqFVq0bKm13LilCU7m/CJoFgCkpqZq/bxjxw7Y2dkhNzcXffv2BQAsWbIEL7/8MtauXatZz83NTZB8Klg8XTp5GUtC3sPtunqYmJtg4bY5ULq30/WwZKPo+hV8fuwb/KP/JMx9aTqOF/2GpXs/hLGRMcb6D9P18J7YG28MR2XlLfTvvxCGhgZQqdRYsGAMQkN7PfyXH4NZq1bweKE7vo7ZAKeO7rC2bYMfkhJwOj8PDq7CFIkHqaioAAAoFAoAgFqtRkpKChYuXIjBgwfj+PHjcHV1xdtvv42wsDDeefSSkCfH5xzw4eH38MH+5Rg8pT9i523F5dNXdD0s2VAzNTo7eWLx8NnorPTElN6jMSlgBD4/tkfXQ+Nl//4sJCb+iJiYN3Dw4Cps2PAPbNlyEHv2HBU8K/JfH4Mxhun+Phjd0QkHPtuGvqEjYWBgKHjWnRhjmD9/PgIDA+Ht7Q0AKC0tRVVVFVavXo0hQ4bg8OHDGDFiBEaOHInMzEzemXSExVMLYyM4uNoDADr4uuJs/gUc3HYY/1g7Tccjkwc7S1u4t9U+Euho74qUX7/X0YiE8f77X+GNN4YjJCQAAODpqcSVK2XYvHk/xozpK2iWg4srPvg6CbU11aiprILC3h5rI2bCXuksaM7dZs2ahYKCAhw79vf3b9VqNQAgNDQUkZGRAIAuXbrgp59+wieffIIXX3yRVyYdYQmMMaD+doOuhyEb/m5dcK70otay839eglNrB90MSCC3bt2GgQGntczAwABqNRMt08TMHAp7e1RVlCP/aDp6BA0RLWv27NlITk5Geno6nJycNMttbW1hZGSETp20T0l5/vnnBfmUkI6weNgVvQddB/jA1lGBW1W1+DHpF/z+80ks2fWWrocmG6/1m4ThG6dh0+HtCOn6Eo5fOoEvf0rAunFLdT00XgYN6oqYmCQ4OtrA3d0JJ05cxLZthzB2LL8jjObkZaYBDGjn9hyKL13AZx+shKNbBwwcI/xVORhjmD17NhITE5GRkQFXV1etx42NjeHn53fPqQ6nT5+Gi4sL73wqWDxUlP2FmDlbcLO0HGYWpnB5Xoklu96Cb19vXQ9NNrq6eOHTV9fhg/2x2JC6Fc42jnhv5FsY5feyrofGy7vvTsG6dd9g6dLPUFb2F+ztW2PSpAGYO3eE4Fk1lZX4cs0qlJUUw8LKGgHBw/DKgsUwatFC8KyIiAjs3r0bSUlJsLCwQElJCQDAysoKpqaNFxpcsGABxo0bh759+6J///5ITU3F/v37kZGRwTufChYPb6yfoesh6IUg774I8hb2fR1da9XKFCtWTMaKFZNFzwocForAYaGi5wBAXFwcAKBfv35ay3fs2IHw8HAAwIgRI/DJJ58gOjoac+bMgYeHB/bu3YvAwEDe+VSwCCGPjLFHew9u+vTpmD59+sNXfEz0pjshRDaoYBFCZIMKFiFENqhgEUJkgwoWIUQ2qGARQmSDY4/6OWUzjIzF7bTbRNVwG9z/hmlqLG6Nra1Xo2lCWpgYi5pVX1uvuW8qwkl+d6qtr4f6f3NobCTu2Sz1DQ0AGr+WYtKi5YNX5qm2oU5zv2VLcbPq6uqA/z07TER+btTe8dwwFrmjNQDU1tSIniEEXs9cd2tpvjN34SaDW2sDMAbc9fUswZ27CSja20ENgOPEDfuz6DrcFW3AGIOByFnn/vwT1mYmUDNA5Chcr6qBa2slGAADTtz/YC7dvAJHZTswMNH/va5cuQJnZwUYUwt+meO7FRWVwUbpCsbEfx7KCa+CJfYfWbNE/gMA1H9HSbl/EmZxos/hnWESRkkyh+J9efl+qF79jVfBarrkqRTt4zkAnIEBfntX2AugNZcFrvHI4KN0cdvHT+wwU5P120ebRM0ynzgJ4DgYcBw+fF3cS9/MWPexJuvosr2iZrm+2Qsc11iE9+3bJ2qWv78/OI4Dx3H4/vt1omZ5eEwHBw6cAbD5u2MP/wUeqFU9IYSIgAoWIUQ2qGARQmSDChYhRDaoYBFCZEOS62FFpxYh4XgZ/ltyC6bGBujlZok1I1zh0dZM1ln62qo+4YcsJP6o3dPOytwMsbNnipInVav6IUOG4OrVq/csHzduHJYsWSJoFrWqF4ckBSvzdAUiXnSEX3sLNKgZliRdRNBHhfj9ne4wbylsKyIps5pa1bdt39g1J2PPMaydvgkffvsulB5OD/ntp1s7WxssGv/35XzvbqgglKZW9b07dseu12Ng20qBS2WXRWlVv3v3bk1XFwA4e/YsXnvtNQQFBQme1dSqfsOGf8Dd3QkFBRfw1ltbYGFhihkzhG0OERsViaJT/0Xkxo+hsLdHRuI3WD5pNGK/OwabtvJu5nE3SV4Sps7pjPBebeHlaA5fp1bYMcUdRTfqkFtUKessfW5Vb2jAwbqVueZmaSb8ESogbat6hUIBW1tbzS0zMxNKpRLdu3cXPEtfW9XfLTo6GhzHYd68eQCA+vp6REVFoXPnzjA3N4ejoyOmTJnS7JHtk9DJe1gVt1QAAIWZuN+fkzJLpVLjWFKW3rSqL7lZjtmx2xAZtwOxSYdQWl4hSs63hZnwde6EVz9dCK/FAzFozQTs/ClBlKw71dfXIyUlBWFhYaKcIe/n544ffzyB8+eLAUDTqn6AwG8XSN2q/k7Z2dnYsmULfHx8NMtqamqQl5eHZcuWIS8vDwkJCTh9+jRCQkIEyZT8mu6MMcz/5hwCO1jCu5257LP0sVX9c45t8c+hQWiraI2Kmhok/fgfvPvl14h+9RVY/K8zilB01ao+LS0NlZWVCA0Vp3mDvreqr6qqwqRJk7B161asWrVKs9zKygpHjhzRWjcmJgb+/v4oKiqCszO/5q6SH2HNij+Lgj+q8dWM5/UiSx9b1fs+1x5+nh2htLOFd3tnvDmm8Y/6WOFJwbN01ao+MTERvXv3hp2dnSjb1/dW9RERERg6dCgGDRr00HUrKirAcRysra1550p6hDU7/iySC67j6Ju+cGot7qVApMp6FlrVmxi3gFMbG5TcLBd827poVX/16lVkZWVh48aNomXoc6v6+Ph45OXlITs7+6Hr1tbWYtGiRZg4cSIsLS15Z0tyhMUYw6yvziLheBnS5vnC1VbYlxW6ymo+X/9a1dc3NODq9ZuwNhf+ZbUuWtXv27cPCoUCffr0ES1DX1vVX758GXPnzsXOnTs1Fz+4n/r6eowfPx5qtRqbN28WJF+SI6yIr85id3Ypkl73goWJIUoqbgMArEwNYWos7GGrlFn62qp+d9oP6NrBFTaWFvir5haSfvwPbtXdRp/Owr+0lrpVvVqtRlJSEkJCQmAk4oUM9bVVfW5uLkpLS9GtWzfNMpVKhaNHjyI2NhZ1dXUwNDREfX09xo4diwsXLiAtLU2QoytAooIVd7Txk5J+Gwq0lu+Y4o7wXm1lm6WvrepvVFZhc3IqKmtuwdLMFM85tsWKKWNhayXMk+5OUreqz8rKQnFxMcLCwkTZfhN9bVU/cOBAFBYWai2bNm0aPD09ERUVpVWszpw5g/T0dNjY2AiWL0nBYp9I14Zcyix9bVU/KzRY0jwpW9X36tULBQUFD1+RJ31tVW9hYQFvb+3/kM3NzWFjYwNvb280NDRg9OjRyMvLw4EDB6BSqVBSUgKg8Tw4Y2N+l5amVvWEEMH88ccfSE5OBgB06dJF67H09HT069eP1/apYBFCeMnIyNDcb9++PXj0tXkouloDIUQ2qGARQmSDChYhRDaoYBFCZIMKFiFENqhgEUJkg2M8PoMU+gqe91Nbr0bTKE2Nxa2xtfVqTW/fFib8TnJ7mPraes19UxHOSr5TbX091P+bRGMRv5ICNH73sKnls0kLcb/kXttQp7nfsqW4WXV1dWjq/Gwi8nOj9o7nhvFDvrMnSF5NjegZQuD1zLV2sRVqHA9UWnQDbZxtwBiDSFfqbTZL7NbnfxZdh7uizf/2S9ysc3/+CWszE6iZ+K3Pr1fVwLW1EgyNXa3FdOnmFTgq24FB/H+vK1euwNlZAcbUgl+X/W5FRWWwUbqCMYi+X3LC779akZ+Mus6U9IkiYRYn5b+bpFMoRZh4J0XeD9Wrv/EqWE2Xl1h7aKUgg7mfiR0au7UYGBjgo/Q1+pXFNR6F/PbRJlGzzCdOAjgOBhyHD18X91pdM9Z9rMk6umyvqFmub/YCxzUW4X379oma5e/vD47jwHEcvv9+nahZHh7TwYEDZwBs/u6YqFnzh70k6vaFRG+6E0JkgwoWIUQ2qGARQmSDChYhRDYkubyMvrZ0J+R+pGxV/yyRpGDpc0t3QpojZav6Z4kkpV6fW7oT0hypWtXrwtGjRzF8+HA4OjqC47h7TidJSEjA4MGDYWtrC47jkJ+fL1i25Mem+tbSnZDmSNWqXheqq6vh6+uL2NjY+z7eu3dvrF69WvBsyS6RrI8t3Qm5H6la1etCcHAwgoPv36hk8uTGxhsXL14UPFuygtXU0r36rxr8cjAbsfO2YuXet6loEb10Z6v6xr6El7By5U7Y21sL3vn5WSJZwXoWWroT0kTKVvXPEp19vqqPLd0JaaKLVvXPAkmOsPS1pTsh9yNlq/pniSQFS19buhNyP1K2qn+WSFKw9LWlOyH3I2WreqlVVVXh7Nmzmp8vXLiA/Px8KBQKODs748aNGygqKsLVq1cBAKdOnQIAtG3bFm3btuWVTd8RIIQ8lpycHHTt2hVdu3YFAMyfPx9du3bF8uXLAQDJycno2rUrhg4dCgAYP348unbtik8++YR3NrWqJ4Q8ln79+j2wHX14eDjCw8NFyaYjLEKIbFDBIoTIBhUsQohsUMEihMgGFSxCiGxQwSKEyAavVvUtzcRtDd6ksaV74zClaR8vZVYjalX/ZKhVvUB5z0Kr+g6tbYQaxwOdL/0Tbm0aW7pzIveq11UWtap/MtSq/tnCq2BxUvYh10GmpPtHrer5R1Grer0nSKv6nLXitnQ3nzgJHADOQJqW7vqaRa3q+aFW9bpHb7oTQmSDChYhRDaoYBFCZIMKFiFENqhgEUJkQycFKzohEdzoMZi3YwdlySBLbMXlpYj4YgmeX9Qfrm/2wsA14/Fr0e+6HhZ5CklesLLPnsWW747Ax8WFsmSQJbbymr8w/F/TYGRohF2vxyBz8TdYERYJK1MLXQ+NNCM6Ohp+fn6wsLCAnZ0dwsLCNJdABoD6+npERUWhc+fOMDc3h6OjI6ZMmaK5XDJfkhasqlu3MGnTR9j6z3+itbk5ZT3lWVKI/e4ztLO2x6ZJK/GCizecbRzRx6MH2rdR6npopBmZmZmIiIhAVlYWjhw5goaGBgQFBaG6uhoAUFNTg7y8PCxbtgx5eXlISEjA6dOnERISIki+pAUrYtt2DH3hBQzy8aEsGWRJ4dvCTPg6d8Krny6E1+KBGLRmAnb+lKDrYZH7SE1NRXh4OLy8vODr64sdO3agqKgIubm5AAArKyscOXIEY8eOhYeHB3r27ImYmBjk5uaiqKiId75kBSv+2I/Iu3Ae0ZMmUpYMsqRSdP0KPj/2DdzaKBH/+seYEjgKS/d+iK//c0DXQyOPoKKiAgCgUCgeuA7HcbC2tuadJ0kTistlZZi7YwcOL1sKE2Nxv+VOWfKiZmr4Kjth8fDZAIDOSk+cKj6Pz4/twVj/YToeHXkQxhjmz5+PwMBAeHs332O0trYWixYtwsSJE2Fpack7U5KClXv+PEorKtBtYZRmmUqtxtGTJxF7KBV1X+2GoaEhZT0lWVKys7SFe1s3rWUd7V2R8uv3OhoReVSzZs1CQUEBjh1r/ruO9fX1GD9+PNRqNTZv3ixIpiQFa2DnzijcsF5r2bSPN8OznSOiwsIE/UOjLHnxd+uCc6UXtZad//MSnFo76GZA5JHMnj0bycnJOHr0KJycnO55vL6+HmPHjsWFCxeQlpYmyNEVIFHBsjA1hbezs9Yy85YtYWNhcc9yytJ9lpRe6zcJwzdOw6bD2xHS9SUcv3QCX/6UgHXjlup6aKQZjDHMnj0biYmJyMjIgKur6z3rNBWrM2fOID09HTY2wl03jxqpEp3q6uKFT19dhw/2x2JD6lY42zjivZFvYZTfy7oeGmlGREQEdu/ejaSkJFhYWKCkpARA46eDpqamaGhowOjRo5GXl4cDBw5ApVJp1lEoFDDm+f6rzgpWxrsrKUtGWWIK8u6LIO++uh4GeQRxcXEAGrs/32nHjh0IDw/HH3/8geTkZABAly5dtNZJT0+/5/ceFx1hEUIe2cNaQLRv3/6h6/BBX34mhMgGFSxCiGxQwSKEyAYVLEKIbFDBIoTIBhUsQohs8GpVby5ya/AmtfX1mvaVUrR019csalXPD7Wq1z1ez1xLU2kK1u2GBti0MgNjgIHI7eP1OauNhfn/Wp+LGkWt6gVAreqbx/O/Wl1MpJSZ+plFrer5oFb1usSrYJmaNh6qvhs+QZDB3M+MdR8DAAwMDKRps05Z/LOoVT0v1Kq+efSmOyFENqhgEUJkgwoWIUQ2qGARQmSDChYhRDYkuR5Wwg9ZSPzxF61lVuZmiJ09k7KewiypFZeXYlXyJqT9/hNq6+vgZueMDROWw9e5k6A5Q4YMabYD8bhx47BkyRJBs6RUU1WF3etXI+vbg6goK4OrlzdmrngfHX276npogpPsAn7tbG2waPwIzc9inihJWfLR1Kq+d8fu2PV6DGxbKXCp7LIorep3794NtVqt+fns2bN47bXXEBQUJHiWlGKjIlF06r+I3PgxFPb2yEj8BssnjUbsd8dg01a/mnlI9pLQ0ICDdStzzc3SzIyynuIsqUjZql6hUMDW1lZzy8zMhFKpRPfu3QXPkkpd7S38fOgAwt9eDq8eAXBo74YJkQthr3TGoS8/Ez0/OjoaHMdh3rx5ABobUERFRaFz584wNzeHo6MjpkyZ0uyR7ZOQ7Air5GY5Zsdug5GhIZ5zbIuxL/aCnbUVZT2lWVL5tjAT/Z8PwKufLsTPZ3PhYGWH8D5j8EqvkaLm1tfXIyUlBZMnT5b1V19UDSqoVSq0uOt7lMYtTXAy55f7/JYwsrOzsWXLFvj4+GiW1dTUIC8vD8uWLYOvry9u3ryJefPmISQkBDk5ObwzJTnCes6xLf45NAgLx4ZhRvBAVFRV490vv0blrVuU9RRmSUlXrerT0tJQWVmJ0NBQUXPEZtaqFTxe6I6vYzbg+rUSqFQqZCTswen8PNwovSZablVVFSZNmoStW7eidevWmuVWVlY4cuQIxo4dCw8PD/Ts2RMxMTHIzc1FUVER71xJCpbvc+3h59kRSjtbeLd3xptjGp8kxwpPUtZTmCUlNVOjs5MnFg+fjc5KT0zpPRqTAkbg82N7RM1NTExE7969YWdnJ2qOFCL/9TEYY5ju74PRHZ1w4LNt6Bs6EgYG4jXXjYiIwNChQzFo0KCHrltRUQGO42Btbc07Vyddc0yMW8CpjQ1KbpZTlgyyxKSLVvVXr15FVlYWNm7cKFqGlBxcXPHB10moralGTWUVFPb2WBsxE/ZKcRrsxsfHIy8vD9nZ2Q9dt7a2FosWLcLEiRMF6f6sk/Ow6hsacPX6TVibm1OWDLLEpItW9fv27YNCoUCfPn1Ey9AFEzNzKOztUVVRjvyj6egRNETwjMuXL2Pu3LnYuXMnTB5yna76+nqMHz8earUamzdvFiRfkiOs3Wk/oGsHV9hYWuCvmltI+vE/uFV3G306P09ZT2GWlKRuVa9Wq5GUlISQkBAYiXwhQ6nkZaYBDGjn9hyKL13AZx+shKNbBwwcI/xVVHJzc1FaWopu3bpplqlUKhw9ehSxsbGoq6uDoaGhpl39hQsXkJaWJsjRFSBRwbpRWYXNyamorLkFSzNTPOfYFiumjIWtlTA7QVnyJXWr+qysLBQXFyMsLEyU7etCTWUlvlyzCmUlxbCwskZA8DC8smAxjES4iu3AgQNRWFiotWzatGnw9PREVFSUVrE6c+YM0tPTYWNjI1i+JAVrVmiwFDGUJVNStqrv1asXCgoKJMmSSuCwUAQOk+bTTgsLC3h7e2stMzc3h42NDby9vdHQ0IDRo0cjLy8PBw4cgEqlQklJCYDG8+CMjfldWlo/jokJIU+FP/74A8nJyQCALl26aD2Wnp6Ofv368do+FSxCCC8ZGRma++3btwePvjYPRVdrIITIBhUsQohsUMEihMgGFSxCiGxQwSKEyAYVLEKIbHCMx2eQLUU4k7Y59Q0Nmn67xiJ/nYKyhMlqavls0qLlg1fmqbahTnO/ZUtxs+rq6tDU+dnEhN8JkA9TW1uvuW/8kO/sCZJXUyN6hhB4PXNdrJ2EGscDFd28ChdrR6jBRL/YGmUJm2XAiXsQf+nmFTgq24FJsF9XrlyBs7MCjKlhYCDufhUVlcFG6QrGIOsLDAqNV8HSxURKmUlZQoRJGCXJfol3UuT9UL36G6+C1XR5icMLdgkymPtxfbMXwHEw4DgcXbaXsihLK4vjAI4zwL59+0TN8vf3B8dx4DgO33+/TtQsD4/p4MCBMwA2f3dM1Kz5w14SdftCojfdCSGyQQWLECIbVLAIIbJBBYsQIhtUsAghskHXw+KpuLwUq5I3Ie33n1BbXwc3O2dsmLAcvs6ddD002ZBqDocMGdJsB+Jx48ZhyZIlgmY1NKiwcWMC9u37CaWl5bCzs8aYMX0xZ06o4Odw1VRVYff61cj69iAqysrg6uWNmSveR0ffroLmPA2oYPFQXvMXhv9rGnp37I5dr8fAtpUCl8ouw8rUQtdDkw0p53D37t1Qq9Wan8+ePYvXXnsNQUFBgmfFxR3Azp3fY8OGf8Dd3QkFBRfw1ltbYGFhihkzhO1mExsViaJT/0Xkxo+hsLdHRuI3WD5pNGK/OwabtsJ2H4qLi0NcXBwuXrwIAPDy8sLy5csRHPz3JbxPnjyJqKgoZGZmQq1Ww8vLC19//TWcnfm3HaOCxUPsd5+hnbU9Nk1aqVnmbOOowxHJj5RzqFAotH7evn07lEolunfvLnhWbu4ZBAV1w8CBjUc5SmUbJCf/jIKCC4Lm1NXews+HDmDJ1i/g1SMAADAhciF+OXwIh778DK8seFvQPCcnJ6xevRodOnQAAHz++ecIDQ3F8ePH4eXlhXPnziEwMBAzZszAypUrYWVlhZMnTz60JdijooLFw7eFmej/fABe/XQhfj6bCwcrO4T3GYNXeo3U9dBkQ1dzWF9fj5SUFEyePFmUM+T9/Nyxa1cazp8vhpubA37//RKys0/hnXdeETRH1aCCWqVCi7u+R2nc0gQnc34RNAsAhg8frvXz+++/j7i4OGRlZcHLywtLlizByy+/jLVr12rWcXNzu3szT4zedOeh6PoVfH7sG7i1USL+9Y8xJXAUlu79EF//54CuhyYbuprDtLQ0VFZWIjRUnG4zb7wxHCEhAejffyHc3KYiOHgppk8fgtDQXoLmmLVqBY8XuuPrmA24fq0EKpUKGQl7cDo/DzdKrwmadTeVSoX4+HhUV1cjICAAarUaKSkpcHd3x+DBg2FnZ4cePXoI+g0EOsLiQc3U8FV2wuLhswEAnZWeOFV8Hp8f24Ox/sN0PDp50NUcJiYmonfv3rCzsxNl+/v3ZyEx8UfExLwBd3cnnDhxCStX7oS9feOb70KK/NfHiFkwD9P9fWBgaIjnvH3QN3Qkzv1W+PBffgKFhYUICAhAbW0tWrVqhcTERHTq1AklJSWoqqrC6tWrsWrVKqxZswapqakYOXIk0tPT8eKLL/LOpoLFg52lLdzbah/udrR3Rcqv3+toRPKjizm8evUqsrKysHHjRtEy3n//K81RFgB4eipx5UoZNm/eL3jBcnBxxQdfJ6G2pho1lVVQ2NtjbcRM2Cv5v8ndHA8PD+Tn56O8vBx79+7F1KlTkZmZCWtrawBAaGgoIiMjATS2+vrpp5/wySefCFKw6CUhD/5uXXCu9KLWsvN/XoJTa2E/mdFnupjDffv2QaFQoE+fPqJl3Lp1GwYG2u+NGRgYQK0W72oPJmbmUNjbo6qiHPlH09EjSNhPI5sYGxujQ4cO6N69O6Kjo+Hr64tNmzbB1tYWRkZG6NRJ+3SU559/HkVFRYJkU8Hi4bV+k5B78TdsOrwdF/4sQkLOIXz5UwKm9Rmr66HJhtRzqFarkZSUhJCQEBiJeCHDQYO6IiYmCd9/fxyXL/+J1NRsbNt2CIMHC/+JZF5mGvIy0nCt6BLyf8jA0vEj4OjWAQPHTBA8qzmMMdTV1cHY2Bh+fn44deqU1uOnT5+Gi4uLIFn0kpCHri5e+PTVdfhgfyw2pG6Fs40j3hv5Fkb5vazrocmG1HOYlZWF4uJihIWFibL9Ju++OwXr1n2DpUs/Q1nZX7C3b41JkwZg7twRgmfVVFbiyzWrUFZSDAsrawQED8MrCxbDSIQrAi9evBjBwcFQKpWorKxEfHw8MjIykJqaCgBYsGABxo0bh759+6J///5ITU3F/v37tZqt8kEFi6cg774I8hb2PYlnjZRz2KtXLxQUFIie06qVKVasmIwVKyaLnhU4LBSBw8T5tPNu165dw+TJk1FcXAwrKyv4+PggNTUVL73UeE2tESNG4JNPPkF0dDTmzJkDDw8P7N27F4GBgYLkU8EihDyy7du3P3Sd6dOnY/r06aLk03tYhBDZoIJFCJENKliEENmggkUIkQ0qWIQQ2aCCRQiRDV6t6s2MTYUcy33VNtRp+ldK0vqcsuSV9T/Uqp5H3rPQqt7BSZrvzP1x5QratWsHxhgMRG6DS1nyzaJW9fqP34mjuphISdusU5acsqhVvf4TpFV9fHy8IIO5H39/fwCN33aXoh05ZVHW/bKoVb1u0ZvuhBDZoIJFCJENKliEENmggkUIkQ0qWIQQ2aDrYfEgZetzKbP0lb62qn+WUMHiQcrW51Jm6St9bVUvpejoaCQkJOC///0vTE1N0atXL6xZswYeHh6ada5du4aoqCgcPnwY5eXl6Nu3L2JiYtCxY0fe+VTqeVAoFLC1tdXcMjMzRWt9LmWWvpJyDu9sVa9UtsHQof7o27ez4K3qpZaZmYmIiAhkZWXhyJEjaGhoQFBQEKqrqwE0NqQICwvD+fPnkZSUhOPHj8PFxQWDBg3SrMMHFSyBNLU+DwsLE/2Maymz9JXYc+jn544ffzyB8+eLAUDTqn7AAF/Bs6SUmpqK8PBweHl5wdfXFzt27EBRURFyc3MBAGfOnEFWVhbi4uLg5+cHDw8PbN68GVVVVfjqq69459NLQoGI3fpcV1n6SopW9ZWVt9C//0IYGhpApVJjwYIxgreq17WKigoAjUevQNMXxP/+FgwAGBoawtjYGMeOHcOrr77KK4+OsAQidutzXWXpKylb1R88uAobNvwDW7YcxJ49R0XJ0wXGGObPn4/AwEB4e3sDADw9PeHi4oK3334bN2/exO3bt7F69WqUlJSguLiYdyYVLAE0tT4fNWqUXmXpKynm8M5W9Z6eSowaFYhXXx2CzZv3i5YptVmzZqGgoEDrpV6LFi2wd+9enD59GgqFAmZmZsjIyEBwcDAMDQ15Z9JLQgFI0fpcF1n6Sl9b1Utp9uzZSE5OxtGjR+Hk5KT1WLdu3ZCfn4+Kigrcvn0bbdq0QY8ePQT5cIMKFk9StT6XOktfSd2q3tHRBu7uTjhx4iK2bTuEsWNfFC1TCowxzJ49G4mJicjIyICrq+t917WysgLQ+EZ8Tk4O3nvvPd759KznSarW51Jn6St9bFUvpYiICOzevRtJSUmwsLBASUkJgMbiZGraeAXiPXv2oE2bNnB2dkZhYSHmzp2LsLAwQc53o4LFk1Stz6XO0lf62KpeSnFxcQCAfv36aS3fsWMHwsPDAQDFxcWYP38+rl27BgcHB0yZMgXLli0TJJ8KFiHkkT1KC4g5c+Zgzpw5ouTTp4SEENmggkUIkQ0qWIQQ2aCCRQiRDSpYhBDZoIJFCJENKliEENng2KOcWHEfTWe2iq3pkhUA0LJlS8qiLB1mNf65mJgYi5pVW1uvuW98x6VaRMurqRE9Qwi8ThxVKq0FGsaDFRWVQam0AWNM9OthUxZlPS1ZNkpXMAa6SOMd6Ex3Qp5yVK/+xqtgmZg0viRMSeH/LewH8fCYDo7jwHEcvv9+HWVR1rORBQ6cAbD5u2OiZs0f9pKo2xcSvelOCJENKliEENmggkUIkQ0qWIQQ2ZDkU0Ip23bra5a+ojkkj0OSgiVl2259zdJXNIfkcUjyX5iUbbv1NUtf0RzKS1xcHHx8fGBpaQlLS0sEBATg0KFDABq7aUdFRaFz584wNzeHo6MjpkyZgqtXrwqWL0nBkrJtt75m6SuaQ3lxcnLC6tWrkZOTg5ycHAwYMAChoaE4ceIEampqkJeXh2XLliEvLw8JCQk4ffo0QkJCBMuX5CWhlG279TVLX9Ecysvw4cO1fn7//fcRFxeHrKwszJgxA0eOHNF6PCYmBv7+/igqKoKzszPvfEkK1p1tuxt7tF3CypU7YW/f+AYrZT27aA7lS6VSYc+ePaiurkZAQECz61RUVIDjOFhbWwuSKUnBurNtNwB4eipx5UoZNm/eL/iTUl+z9BXNofwUFhYiICAAtbW1aNWqFRITE9GpU6d71qutrcWiRYswceJEWFpaCpItyXtYUrbt1tcsfUVzKD8eHh7Iz89HVlYWXn/9dUydOhW///671jr19fUYP3481Go1Nm/eLFi2JEdYUrbt1tcsfUVzKD/Gxsbo0KEDAKB79+7Izs7Gpk2b8O9//xtAY7EaO3YsLly4gLS0NMGOrgCJCpaUbbv1NUtf0RzKH2NMcyHFpmJ15swZpKenw8bGRtAsSQqWlG279TVLX9EcysvixYsRHBwMpVKJyspKxMfHIyMjA6mpqWhoaMDo0aORl5eHAwcOQKVSoaSkBACgUChgbMz/Kq10AT9CyCO7du0aJk+ejOLiYlhZWcHHxwepqal46aWXcPHiRSQnJwMAunTpovV76enp6NevH+98KliEkEe2ffv2+z7Wvn178GgR8Ujo26WEENmggkUIkQ0qWIQQ2aCCRQiRDSpYhBDZoIJFCJENXq3qzczEbQ3epLFtt5QtwimLsp6GrEbUqv5vvM7DUrRrL9AwHqz08iW0Ubo0tggXuQ0uZVHW05ZFrer/xu/EUV3Mo5SZlEVZT0EW1au/CdKqfsOBIw9Zk5+xni4AAAMDTvS23ZRFWc9aFrWqJ4QQEVDBIoTIBhUsQohsUMEihMgGFSxCiGxIVrBqqqqwbeVSvNrrBYxxd8bCES/jzK/HpYoXjb7ul5T0dQ6l2i99nb/mSFawYqMikf9DJiI3foyPDmega99+WD5pNK6XFEs1BFHo635JSV/nUKr90uX8RUdHg+M4zJs3T7MsPDwcHMdp3Xr27ClIniQFq672Fn4+dADhby+HV48AOLR3w4TIhbBXOuPQl59JMQRR6Ot+SUlf51Cq/dLl/GVnZ2PLli3w8fG557EhQ4aguLhYczt48KAgmZIULFWDCmqVCi1aan/30LilCU7m/CLFEEShr/slJX2dQ6n2S1fzV1VVhUmTJmHr1q1o3br1PY+3bNkSbdu21dwUCoUguZIULLNWreDxQnd8HbMB16+VQKVSISNhD07n5+FG6TUphiAKfd0vKenrHEq1X7qav4iICAwdOhSDBg1q9vGMjAzY2dnB3d0dM2fORGlpqSC5kr2HFfmvj8EYw3R/H4zu6IQDn21D39CRMDAwlGoIotDX/ZKSvs6hVPsl9fzFx8cjLy8P0dHRzT4eHByMXbt2IS0tDevXr0d2djYGDBig6V3Ih2RdcxxcXPHB10moralGTWUVFPb2WBsxE/ZKZ6mGIAp93S8p6escSrVfUs7f5cuXMXfuXBw+fBgm97nszbhx4zT3vb290b17d7i4uCAlJQUjR47klS/5eVgmZuZQ2NujqqIc+UfT0SNoiNRDEIW+7peU9HUOpdovKXJyc3NRWlqKbt26wcjICEZGRsjMzMRHH30EIyMjqFSqe37HwcEBLi4uOHPmDO98yY6w8jLTAAa0c3sOxZcu4LMPVsLRrQMGjpkg1RBEoa/7JSV9nUOp9kvK+Rs4cCAKCwu1lk2bNg2enp6IioqCoeG9L0OvX7+Oy5cvw8HBgXe+ZAWrprISX65ZhbKSYlhYWSMgeBheWbAYRi1aSDUEUejrfklJX+dQqv2Scv4sLCzg7e2ttczc3Bw2Njbw9vZGVVUVVqxYgVGjRsHBwQEXL17E4sWLYWtrixEjRvDOl6xgBQ4LReCwUKniJKOv+yUlfZ1DqfbraZo/Q0NDFBYW4osvvkB5eTkcHBzQv39//N///R8sLCx4b59a1RNCeMnIyNDcNzU1xbfffitaFn35mRAiG1SwCCGyQQWLECIbVLAIIbJBBYsQIhtUsAghssGrVX0Hny4CDuX+/jh7GjbtlOC4v3shUhZlUZZwzhbki54hBF4FixBCpEQvCQkhskEFixAiG1SwCCGyQQWLECIbVLAIIbJBBYsQIhtUsAghskEFixAiG1SwCCGyQQWLECIbohSsuLg4+Pj4wNLSEpaWlggICMChQ4c0jyckJGDw4MGwtbUFx3HIz89/4qyjR49i+PDhcHR0BMdx2Ldvn9bj165dQ3h4OBwdHWFmZoYhQ4YI0m4oOjoaHMdh3rx5mmXh4eHgOE7r1rNnzyfa/sP2CwBOnjyJkJAQWFlZwcLCAj179kRRUdET7tHfVqxYcc9+tG3blvd279bcHN6d23T78MMPH3vbfn5+sLCwgJ2dHcLCwnDq1CmtdaqqqjBr1iw4OTnB1NQUzz//POLi4kTZL7k+D582ohQsJycnrF69Gjk5OcjJycGAAQMQGhqKEydOAACqq6vRu3dvrF69mndWdXU1fH19ERsbe89jjDGEhYXh/PnzSEpKwvHjx+Hi4oJBgwahurr6iTOzs7OxZcsW+Pj43PPYkCFDUFxcrLkdPHjwiTIetF8AcO7cOQQGBsLT0xMZGRn49ddfsWzZsvs2t3xcXl5eWvtxd2snvu43h3dmFhcX49NPPwXHcRg1atRjbT8zMxMRERHIysrCkSNH0NDQgKCgIK1/98jISKSmpmLnzp04efIkIiMjMXv2bCQlJQm6X3J+Hj51mERat27Ntm3bprXswoULDAA7fvy4IBkAWGJioubnU6dOMQDst99+0yxraGhgCoWCbd269YkyKisrWceOHdmRI0fYiy++yObOnat5bOrUqSw0NPQJR39/d+8XY4yNGzeOvfLKK4JnMcbYO++8w3x9fUXZNmMPnsO7hYaGsgEDBvDOLC0tZQBYZmamZpmXlxd79913tdZ74YUX2NKlS58o4377pS/Pw6eB6O9hqVQqxMfHo7q6GgEBAWLHaamrqwMAraMOQ0NDGBsb49ixY0+0zYiICAwdOhSDBg1q9vGMjAzY2dnB3d0dM2fORGlp6RPlPIharUZKSgrc3d0xePBg2NnZoUePHs2+bHxSZ86cgaOjI1xdXTF+/HicP39esG0/bA6bXLt2DSkpKZgxYwbvzIqKCgCAQqHQLAsMDERycjKuXLkCxhjS09Nx+vRpDB48+Iky7rdf+vo81AmxKmFBQQEzNzdnhoaGzMrKiqWkpNyzjthHWLdv32YuLi5szJgx7MaNG6yuro5FR0czACwoKOixt//VV18xb29vduvWLcYYu+d/tvj4eHbgwAFWWFjIkpOTma+vL/Py8mK1tbWC7ldxcTEDwMzMzNiGDRvY8ePHWXR0NOM4jmVkZPDKYoyxgwcPsm+++YYVFBRo/ge3t7dnZWVlvLf9sDm805o1a1jr1q016z4ptVrNhg8fzgIDA7WW19XVsSlTpjAAzMjIiBkbG7MvvvjiiTIetF/68jx8GohWsOrq6tiZM2dYdnY2W7RoEbO1tWUnTpzQWkfsgsUYYzk5OczX15cBYIaGhmzw4MEsODiYBQcHP9a2i4qKmJ2dHcvPz9cse9jLmatXr7IWLVqwvXv3PlbW3e7erytXrjAAbMKECVrrDR8+nI0fP55XVnOqqqqYvb09W79+Pa/tPO4cenh4sFmzZvHKZIyxN954g7m4uLDLly9rLf/www+Zu7s7S05OZr/++iuLiYlhrVq1YkeOHHms7T/KfunD8/BpINl7WAMHDmSvvfaa1jIpClaT8vJyVlpayhhjzN/fn73xxhuPte3ExETNk63pBoBxHMcMDQ1ZQ0NDs7/XoUMHtnr16sfKutvd+1VXV8eMjIzYe++9p7XewoULWa9evXhl3c+gQYPYP//5T17beJw5PHr0KAOg9Yf5JGbNmsWcnJzY+fPntZbX1NSwFi1asAMHDmgtnzFjBhs8ePBjZTzOfsn5efg0kKzzM2NM81peF6ysrAA0vjeTk5OD995777F+f+DAgfd8UjZt2jR4enoiKioKhoaG9/zO9evXcfnyZTg4ODz5wJthbGwMPz+/ez6mP336NFxcXATNAhrfgzl58iT69OnDazuPM4fbt29Ht27d4Ovr+0RZjDHMnj0biYmJyMjIgKurq9bj9fX1qK+vh4GB9tu4hoaGUKvVj5X1OPulT89DXRClYC1evBjBwcFQKpWorKxEfHw8MjIykJqaCgC4ceMGioqKcPXqVQDQ/OG1bdv2sc/3qaqqwtmzZzU/X7hwAfn5+VAoFHB2dsaePXvQpk0bODs7o7CwEHPnzkVYWBiCgoIeK8fCwgLe3t5ay8zNzWFjYwNvb29UVVVhxYoVGDVqFBwcHHDx4kUsXrwYtra2GDFixGNlPcp+LViwAOPGjUPfvn3Rv39/pKamYv/+/Vptw5/UW2+9heHDh8PZ2RmlpaVYtWoV/vrrL0ydOpXXdh82h03++usv7NmzB+vXr3/irIiICOzevRtJSUmwsLBASUkJgMaCYWpqCktLS7z44otYsGABTE1N4eLigszMTHzxxRfYsGGD4Psl1+fhU0eMw7bp06czFxcXZmxszNq0acMGDhzIDh8+rHl8x44dDMA9t3feeeexs9LT05vd1tSpUxljjG3atIk5OTmxFi1aMGdnZ7Z06VJWV1cnyH7e+d5BTU0NCwoKYm3atNFkTZ06lRUVFT3Rth+2X4wxtn37dtahQwdmYmLCfH192b59+wTYq8ZTJhwcHFiLFi2Yo6MjGzly5D3vPwqlufdf/v3vfzNTU1NWXl7+xNttbu4AsB07dmjWKS4uZuHh4czR0ZGZmJgwDw8Ptn79eqZWq584t8nd+yXX5+HThppQEEJkg75LSAiRDSpYhBDZoIJFCJENKliEENmggkUIkQ0qWIQQ2aCCRQiRDSpYhBDZoIJFCJENKliEENmggkUIkQ0qWIQQ2aCCRQiRDSpYhBDZoIJFCJENKliEENmggkUIkY3/B9r7JOYUb1N8AAAAAElFTkSuQmCC;" vertex="1" parent="1">
          <mxGeometry x="400" y="160" width="300" height="300" as="geometry" />
        </mxCell>
        <mxCell id="gtzwXYbAEQbTO65BLNOc-11" value="&lt;strong style=&quot;box-sizing: unset; font-weight: bold; color: rgba(0, 0, 0, 0.87); font-family: -apple-system, &amp;quot;system-ui&amp;quot;, &amp;quot;Segoe UI&amp;quot;, Helvetica, Arial, sans-serif, &amp;quot;Apple Color Emoji&amp;quot;, &amp;quot;Segoe UI Emoji&amp;quot;, &amp;quot;Segoe UI Symbol&amp;quot;; font-style: normal; font-variant-ligatures: normal; font-variant-caps: normal; letter-spacing: normal; orphans: 2; text-align: left; text-indent: 0px; text-transform: none; widows: 2; word-spacing: 0px; -webkit-text-stroke-width: 0px; background-color: rgb(255, 255, 255); text-decoration-thickness: initial; text-decoration-style: initial; text-decoration-color: initial;&quot;&gt;&lt;font style=&quot;font-size: 12px;&quot;&gt;Solved in 0.0770 seconds. Answer is : 142&lt;/font&gt;&lt;/strong&gt;" style="text;whiteSpace=wrap;html=1;" vertex="1" parent="1">
          <mxGeometry x="410" y="130" width="320" height="30" as="geometry" />
        </mxCell>
        <mxCell id="gtzwXYbAEQbTO65BLNOc-12" value="" style="shape=image;imageAspect=0;aspect=fixed;verticalLabelPosition=bottom;verticalAlign=top;image=data:image/png,iVBORw0KGgoAAAANSUhEUgAAASwAAAEsCAYAAAB5fY51AAAAOXRFWHRTb2Z0d2FyZQBNYXRwbG90bGliIHZlcnNpb24zLjcuMCwgaHR0cHM6Ly9tYXRwbG90bGliLm9yZy88F64QAAAACXBIWXMAAA9hAAAPYQGoP6dpAAA3xElEQVR4nO3deVhU9f4H8PcBRBZZHBAEGRBSIEHQFBRFcwslFXDfFTW7N3HDUswtLQs1l2ugdF2yxYxfJgiKkiaLWdEFkSD1uisuILlALIIw8/39wWV0EnOZc854jp/X88zzDGcO532+X4ePZ2bOnA/HGGMghBAJMND3DhBCyJOigkUIkQwqWIQQyaCCRQiRDCpYhBDJoIJFCJEMKliEEMmggkUIkQwqWIQQyaCCRQiRDCpYhBDJoIJFCJEMKliEEMmggkUIkQwjXX7Z2tmTr/34WxXFl+BuXQcDjoOJiYmgWaeKq2DtYgtwBoJnXT17HW2a24CDCOO6ehWWpk0BcDA1FTbr2s3bcLF2AifCv9fZ4otwcHIARMi6cOEClEprAICJiamgWefOXYOiVWuAEz4LAM7l5wmewQc6wiKESIZOR1gNeszbysdmHunA2/0093MWviJolvmso5r7qw8sFzRrbJtpmvs5q1cJmmU+dpzm/vvhYwTNmrpmo+b+wXlfC5rl+nY3zf34+HhBs/z9/TX3U1I+EDTLw2OK5v66fYcEzZo76DVBt88nOsIihEgGFSxCiGRQwSKESAYVLEKIZFDBIoRIBi+fEj6JW+fycP7wNyi7cho1f95C5zc+REufnmLFC+L7Lw7j+6/S8MeVmwAApXsrDI8MxSt9fPW8Z9JSVFqCFckbkHbyZ1TX1sDNzhnrxiyFr3M7XnMGDBiA69evP7R81KhRWLRoEa9ZYqqqqMDOtSuR9f1+lN28CVcvb0xb9iHa+nbU967xTrQjLNW9ali2agPvEZFiRQrOxkGB8e+OxKr9y7Fq/3J4d2+H1VM24Mrpq/reNckorfoTg/81GUaGRvj6rRhkLvwOy8IiYWVqwXvWzp07kZaWprlt3rwZABAUFMR7lphioyKR92MmItdvxCcHM9CxZy8sHTcct4qLeM+Kjo6Gn58fLCwsYGdnh7CwMJw+ffqh9U6dOoWQkBBYWVnBwsICXbt2RWFhoc75oh1h2bXrCrt2XcWKE0XnIO3/wcYuGI6DX6XhTO55KD2c9LRX0hL7w+doZW2PDePun/PmbOMoSJZCodD6edu2bVAqlejcubMgeWKoqb6LXw7sw6ItX8KrSwAAYEzkfPx68AAOfPU5xs97l9e8zMxMREREwM/PD3V1dVi0aBGCgoJw8uRJmJubAwDOnz+PwMBATJ06FcuXL4eVlRVOnTrFyzcRRCtYcqdSqfHLvv+guqoG7p3a6Ht3JOP7gkz0fjkAb3w2H7+cOwYHKzuE9xiB8d2GCppbW1uLlJQUTJgwARzHCZolJFWdCmqVCk2aNtVabtzUBKdyfuU9LzU1Vevn7du3w87ODseOHUPPnvVv8SxatAivv/46Vq9erVnPzc2Nl3x6011Hl09dwfi2b2KM61RsXvAF5m+dBaV7K33vlmQU3rqGL45+B7cWSsS/tRETA4dh8e6P8e1/9gmam5aWhvLycoSGhgqaIzSzZs3g8UpnfBuzDrduFEOlUiEjYRfO5OXidskNwfPLysoA3D96VavVSElJgbu7O/r37w87Ozt06dIFe/bs4SWPCpaOHF9ywMcHP8BHe5ei/8TeiJ2zBVfOXNP3bkmGmqnR3skTCwfPRHulJyZ2H45xAUPwxdFdguYmJiaie/fusLOzEzRHDJH/2gjGGKb4+2B4Wyfs+3wreoYOhYGBoaC5jDHMnTsXgYGB8Pb2BgCUlJSgoqICK1euxIABA3Dw4EEMGTIEQ4cORWZmps6Z9JJQR02MjeDgag8AaOPrinN5F7F/60H8Y/VkPe+ZNNhZ2sK9pfbLhbb2rkj57bBgmdevX0dWVhbWr18vWIaYHFxc8dG3SaiuqkRVeQUU9vZYHTEN9kpnQXNnzJiB/Px8HD16//u3arUaABAaGorIyPoP2Dp06ICff/4Zn376KV599VWdMukIi2eMAbX36vS9G5Lh79YB50suaS278MdlODV3ECxzz549UCgU6NGjh2AZ+mBiZg6FvT0qykqRdyQdXYIGCJY1c+ZMJCcnIz09HU5O9z9gsrW1hZGREdq10z4l5eWXX5bWp4R1NVWo/OP+S6WqW0Uou3oWxmaWMFXYi7UbvPo6ehc69vGBraMCdyuq8VPSrzj5yyks+vodfe+aZLzZaxwGr5+MDQe3IaTjazh++QS++jkBa0YtFiRPrVYjKSkJISEhMDKSxwuM3Mw0gAGt3F5C0eWL+Pyj5XB0a4O+I/i/KgdjDDNnzkRiYiIyMjLg6uqq9bixsTH8/PweOtXhzJkzcHFx0TlftH+x0sLTyIqZpfn5ZGIsAMDJfwA6jJfmSXtlN/9EzKzNuFNSCjMLU7i8rMSir9+Bb09vfe+aZHR08cJnb6zBR3tjsS51C5xtHPHB0HcwzO91QfKysrJQVFSEsLAwQbavD1Xl5fhq1QrcLC6ChZU1AoIHYfy8hTBq0oT3rIiICOzcuRNJSUmwsLBAcXExAMDKygqmpvUXGpw3bx5GjRqFnj17onfv3khNTcXevXuRkZGhc75oBcu2bUcM+uRHseJEMX3tVH3vgiwEefdEkLc433ro1q0b8vPzRckSS+CgUAQOEufTzri4OABAr169tJZv374d4eHhAIAhQ4bg008/RXR0NGbNmgUPDw/s3r0bgYGBOufL45iYECIKxtgTrTdlyhRMmTLl8Ss+JXrTnRAiGVSwCCGSQQWLECIZVLAIIZJBBYsQIhlUsAghksGxJ/2cshFGxsJ22m2gqrsH7n+7aWosbI2trlWjYUKamBgLmlVbXau5byrASX4Pqq6thfp/c2gs8BnetXV1AOov2WLSpOnfr6yj6roazf2mTYXNqqmpAf737DAR+LlR/cBzw1jgjtYAUF1VJXgGH3R65rpbi/OduYt3GNyaG4AxwEDgSxedvwMoWttBDQh+naQ/Cm/BXdECjDEYCJx1/o8/YG1mAjUDhL78062KKrg2V4IBMOCE/Q/m8p1rcFS2AgMT/N/r2rVrcHZWgDE1DAyEHVdh4U3YKF3BmPDPQynRqWAJ/UfWKIH/AAD1/SgxxydiFif4HD4YJmKUKHP4zC9InhnVq/t0KlgNlzwVo308B4AzMMDv73d77Pq6ZoGrPzL4JF3Y9vFj20zTZP3+yQZBs8zHjgM4DgYch4/fEvbSN1PXbNRkHVmyW9As17e7gePqizBfF4l7FH9/f3AcB47jcPjwGkGzPDymgAMHzgDY9MPRx/+CDqhVPSGECIAKFiFEMqhgEUIkgwoWIUQyqGARQiRDlOthRacWIuH4Tfy3+C5MjQ3Qzc0Sq4a4wqOlmaSz5NqqPuHHLCT+pN3TzsrcDLEzpwmSJ8dW9XV1Kqxfn4A9e35GSUkp7OysMWJET8yaFcr7OVwvUqt6UQpW5pkyRLzqCL/WFqhTMyxKuoSgTwpw8r3OMG/KbysiMbMaWtW3bF1/TfqMXUexesoGfPz9+5Lv/NzK1gYLRg/R/Gwg0Bm7Da3qu7ftjK/fioFtMwUu37wiWKv6hq4uAHDu3Dm8+eabgrSqj4vbhx07DmPdun/A3d0J+fkX8c47m2FhYYqpU/ltDhEbFYnC0/9F5PqNUNjbIyPxOywdNxyxPxyFTUvhmnnogygvCVNntUd4t5bwcjSHr1MzbJ/ojsLbNThWWC7prM5BHfFKX184vtQSji+1xNgFw2FiboIzued5zxKboQEH62bmmpulGf9HqIB2q/pXXLzhbOOIHh5d0LqFkvcshUIBW1tbzS0zM1OwVvXHjp1FUFAn9O3bEUplCwwc6I+ePdsjP/8irzkNrerD310Kry4BcGjthjGR82GvdMaBrz7nNasx0dHR4DgOc+bMAVDfUTsqKgrt27eHubk5HB0dMXHixEaPbJ+FXt7DKrurAgAozIT9/pyYWSqVGkeTsmTTqr74Tilmxm5FZNx2xCYdQElpmSA53xdkwte5Hd74bD68FvZFv1VjsOPnBEGyHtTQqj4sLEyQM+T9/Nzx008ncOFCEQDg5MnLyM4+jT48v10gdqv6B2VnZ2Pz5s3w8fHRLKuqqkJubi6WLFmC3NxcJCQk4MyZMwgJCeElU/RrujPGMPe78whsYwnvVuaSz7p86goWhXyAezW1MDE3kUWr+pccW+KfA4PQUtEcZVVVSPrpP3j/q28R/cZ4WPyvMwpfGlrV/6P3OMx+bQqOF/6Oxbs/hrGRMUb6D+I160FCt6qfPn0wysvvonfv+TA0NIBKpca8eSMQGsrvNzUebFXv1NYd1rYt8GNSAs7k5cLB1e3xG3hGFRUVGDduHLZs2YIVK1ZolltZWeHQoUNa68bExMDf3x+FhYVwdtatuavoR1gz4s8h/2olvpn6siyy5Niq3vel1vDzbAulnS28Wzvj7RH1f9RHC07xniXXVvV792YhMfEnxMRMx/79K7Bu3T+wefN+7Np1hPcsfbSqj4iIwMCBA9GvX7/HrltWVgaO42Btba1zrqhHWDPjzyE5/xaOvO0Lp+bCXgpErKwXoVW9iXETOLWwQfGdUt63LddW9R9++A2mTx+MkJAAAICnpxLXrt3Epk17MWIEvy3NxG5VHx8fj9zcXGRnZz923erqaixYsABjx46FpaWlztmiHGExxjDjm3NIOH4TaXN84WrL78sKfWU1ni+/VvW1dXW4fusOrM35f1kt11b1d+/ee+iTVQMDA6jVwl3tQYxW9VeuXMHs2bOxY8cOzcUPHqW2thajR4+GWq3Gpk2beMkX5Qgr4ptz2JldgqS3vGBhYojisnsAACtTQ5ga83vYKmaWXFvV70z7ER3buMLG0gJ/Vt1F0k//wd2ae+jRnv+X1nJtVd+vX0fExCTB0dEG7u5OOHHiErZuPYCRI1/lPUvMVvXHjh1DSUkJOnXqpFmmUqlw5MgRxMbGoqamBoaGhqitrcXIkSNx8eJFpKWl8XJ0BYhUsOKO1H9S0muddsfd7RPdEd6tpWSz5Nqq/nZ5BTYlp6K86i4szUzxkmNLLJs4ErZW/DzpHiTXVvXvvz8Ra9Z8h8WLP8fNm3/C3r45xo3rg9mzhzz+l5+SmK3q+/bti4KCAq1lkydPhqenJ6KiorSK1dmzZ5Geng4bGxve8kUpWOxTcdqQi50l11b1M0KDRc2TY6v6Zs1MsWzZBCxbNkHwLDFb1VtYWMDbW/s/ZHNzc9jY2MDb2xt1dXUYPnw4cnNzsW/fPqhUKhQXFwOoPw/O2Fi3S0tTq3pCCG+uXr2K5ORkAECHDh20HktPT0evXr102j4VLEKITjIyMjT3W7duDR362jwWXa2BECIZVLAIIZJBBYsQIhlUsAghkkEFixAiGVSwCCGSwTEdPoPk+wqej1Jdq0bDXpoaC1tjq2vVmt6+TUx0O8ntcWqrazX3TQU4K/lB1bW1UP9vEo0F/EoKUP/dw4aWzyZNhP2Se3VdjeZ+06bCZtXU1KCh87OJwM+N6geeG8aP+c4eL3lVVYJn8EGnZ661iy1f+/G3Sgpvo4WzDRhjEOhKvY1mCd36/I/CW3BXtPjfuITNOv/HH7A2M4GaCd/6/FZFFVybK8FQ39VaSJfvXIOjshUYhP/3unbtGpydFWBMzft12f+qsPAmbJSuYAyCj0tKdPuvVuAno74zRX2iiJjFifnvJuoUihEm3EmRj0L16j6dClbD5SVWH1jOy848ytg29d1aDAwM8En6KnllcfVHIb9/skHQLPOx4wCOgwHH4eO3hL1W19Q1GzVZR5bsFjTL9e1u4Lj6Irxnzx5Bs/z9/cFxHDiOw+HDawTN8vCYAg4cOANg0w9HBc2aO+g1QbfPJ3rTnRAiGVSwCCGSQQWLECIZVLAIIZIhyuVl5NrSnZBHEbNV/YtElIIl55buhDRGzFb1LxJRSr2cW7oT0hixWtXrw5EjRzB48GA4OjqC47iHTidJSEhA//79YWtrC47jkJeXx1u26MemcmvpTkhjxGpVrw+VlZXw9fVFbGzsIx/v3r07Vq5cyXu2aJdIlmNLd0IeRaxW9foQHByM4OBHNyqZMKG+8calS5d4zxatYDW0dK/8swq/7s9G7JwtWL77XSpaRJYebFVf35fwMpYv3wF7e2veOz+/SEQrWC9CS3dCGojZqv5ForfPV+XY0p2QBvpoVf8iEOUIS64t3Ql5FDFb1b9IRClYcm3pTsijiNmq/kUiSsGSa0t3Qh5FzFb1YquoqMC5c+c0P1+8eBF5eXlQKBRwdnbG7du3UVhYiOvXrwMATp8+DQBo2bIlWrZsqVM2fUeAEPJUcnJy0LFjR3Ts2BEAMHfuXHTs2BFLly4FACQnJ6Njx44YOHAgAGD06NHo2LEjPv30U52zqVU9IeSp9OrV62/b0YeHhyM8PFyQbDrCIoRIBhUsQohkUMEihEgGFSxCiGRQwSKESAYVLEKIZOjUqr6pmbCtwRvUt3Sv301x2seLmVWPWtU/G2pVz1Pei9Cqvk1zG772429dKPkDbi3qW7pzAveq11cWtap/NtSq/sWiU8HixOxDrodMUcdHrep1j6JW9bLHS6v6nNXCtnQ3HzsOHADOQJyW7nLNolb1uqFW9fpHb7oTQiSDChYhRDKoYBFCJIMKFiFEMqhgEUIkQy8FKzohEdzwEZizfTtlSSBLaEWlJYj4chFeXtAbrm93Q99Vo/Fb4Ul97xZ5DolesLLPncPmHw7Bx8WFsiSQJbTSqj8x+F+TYWRohK/fikHmwu+wLCwSVqYW+t410ojo6Gj4+fnBwsICdnZ2CAsL01wCGQBqa2sRFRWF9u3bw9zcHI6Ojpg4caLmcsm6ErVgVdy9i3EbPsGWf/4Tzc3NKes5zxJD7A+fo5W1PTaMW45XXLzhbOOIHh5d0LqFUt+7RhqRmZmJiIgIZGVl4dChQ6irq0NQUBAqKysBAFVVVcjNzcWSJUuQm5uLhIQEnDlzBiEhIbzki1qwIrZuw8BXXkE/Hx/KkkCWGL4vyISvczu88dl8eC3si36rxmDHzwn63i3yCKmpqQgPD4eXlxd8fX2xfft2FBYW4tixYwAAKysrHDp0CCNHjoSHhwe6du2KmJgYHDt2DIWFhTrni1aw4o/+hNyLFxA9bixlSSBLLIW3ruGLo9/BrYUS8W9txMTAYVi8+2N8+599+t418gTKysoAAAqF4m/X4TgO1tbWOueJ0oTiys2bmL19Ow4uWQwTY2G/5U5Z0qJmavgq22Hh4JkAgPZKT5wuuoAvju7CSP9Bet478ncYY5g7dy4CAwPh7d14j9Hq6mosWLAAY8eOhaWlpc6ZohSsYxcuoKSsDJ3mR2mWqdRqHDl1CrEHUlHzzU4YGhpS1nOSJSY7S1u4t3TTWtbW3hUpvx3W0x6RJzVjxgzk5+fj6NHGv+tYW1uL0aNHQ61WY9OmTbxkilKw+rZvj4J1a7WWTd64CZ6tHBEVFsbrHxplSYu/WwecL7mktezCH5fh1NxBPztEnsjMmTORnJyMI0eOwMnJ6aHHa2trMXLkSFy8eBFpaWm8HF0BIhUsC1NTeDs7ay0zb9oUNhYWDy2nLP1nienNXuMweP1kbDi4DSEdX8Pxyyfw1c8JWDNqsb53jTSCMYaZM2ciMTERGRkZcHV1fWidhmJ19uxZpKenw8aGv+vmUSNVolcdXbzw2Rtr8NHeWKxL3QJnG0d8MPQdDPN7Xd+7RhoRERGBnTt3IikpCRYWFiguLgZQ/+mgqakp6urqMHz4cOTm5mLfvn1QqVSadRQKBYx1fP9VbwUr4/3llCWhLCEFefdEkHdPfe8GeQJxcXEA6rs/P2j79u0IDw/H1atXkZycDADo0KGD1jrp6ekP/d7ToiMsQsgTe1wLiNatWz92HV3Ql58JIZJBBYsQIhlUsAghkkEFixAiGVSwCCGSQQWLECIZOrWqNxe4NXiD6tpaTftKMVq6yzWLWtXrhlrV659Oz1xLU3EK1r26Otg0MwNjgIHA7ePlnNXCwvx/rc8FjaJW9TygVvWN0/G/Wn1MpJiZ8syiVvW6oFb1+qRTwTI1rT9UfT98DC878yhT12wEABgYGIjTZp2ydM+iVvU6oVb1jaM33QkhkkEFixAiGVSwCCGSQQWLECIZVLAIIZIhyvWwEn7MQuJPv2otszI3Q+zMaZT1HGaJrai0BCuSNyDt5M+orq2Bm50z1o1ZCl/ndrzmDBgwoNEOxKNGjcKiRYt4zRJTVUUFdq5diazv96Ps5k24enlj2rIP0da3o753jXeiXcCvla0NFoweovlZyBMlKUs6GlrVd2/bGV+/FQPbZgpcvnlFkFb1O3fuhFqt1vx87tw5vPnmmwgKCuI9S0yxUZEoPP1fRK7fCIW9PTISv8PSccMR+8NR2LSUVzMP0V4SGhpwsG5mrrlZmplR1nOcJRYxW9UrFArY2tpqbpmZmVAqlejcuTPvWWKpqb6LXw7sQ/i7S+HVJQAOrd0wJnI+7JXOOPDV54LnR0dHg+M4zJkzB0B9A4qoqCi0b98e5ubmcHR0xMSJExs9sn0Woh1hFd8pxczYrTAyNMRLji0x8tVusLO2oqznNEss3xdkovfLAXjjs/n45dwxOFjZIbzHCIzvNlTQ3NraWqSkpGDChAmS/uqLqk4FtUqFJn/5HqVxUxOcyvn1Eb/Fj+zsbGzevBk+Pj6aZVVVVcjNzcWSJUvg6+uLO3fuYM6cOQgJCUFOTo7OmaIcYb3k2BL/HBiE+SPDMDW4L8oqKvH+V9+i/O5dynoOs8Skr1b1aWlpKC8vR2hoqKA5QjNr1gwer3TGtzHrcOtGMVQqFTISduFMXi5ul9wQLLeiogLjxo3Dli1b0Lx5c81yKysrHDp0CCNHjoSHhwe6du2KmJgYHDt2DIWFhTrnilKwfF9qDT/PtlDa2cK7tTPeHlH/JDlacIqynsMsMamZGu2dPLFw8Ey0V3piYvfhGBcwBF8c3SVobmJiIrp37w47OztBc8QQ+a+NYIxhir8Phrd1wr7Pt6Jn6FAYGAjXXDciIgIDBw5Ev379HrtuWVkZOI6DtbW1zrl66ZpjYtwETi1sUHynlLIkkCUkfbSqv379OrKysrB+/XrBMsTk4OKKj75NQnVVJarKK6Cwt8fqiGmwVwrTYDc+Ph65ubnIzs5+7LrV1dVYsGABxo4dy0v3Z72ch1VbV4frt+7A2tycsiSQJSR9tKrfs2cPFAoFevToIViGPpiYmUNhb4+KslLkHUlHl6ABvGdcuXIFs2fPxo4dO2DymOt01dbWYvTo0VCr1di0aRMv+aIcYe1M+xEd27jCxtICf1bdRdJP/8Hdmnvo0f5lynoOs8Qkdqt6tVqNpKQkhISEwEjgCxmKJTczDWBAK7eXUHT5Ij7/aDkc3dqg7wj+r6Jy7NgxlJSUoFOnTpplKpUKR44cQWxsLGpqamBoaKhpV3/x4kWkpaXxcnQFiFSwbpdXYFNyKsqr7sLSzBQvObbEsokjYWvFzyAoS7rEblWflZWFoqIihIWFCbJ9fagqL8dXq1bgZnERLKysERA8COPnLYSRAFex7du3LwoKCrSWTZ48GZ6enoiKitIqVmfPnkV6ejpsbGx4yxelYM0IDRYjhrIkSsxW9d26dUN+fr4oWWIJHBSKwEHifNppYWEBb29vrWXm5uawsbGBt7c36urqMHz4cOTm5mLfvn1QqVQoLi4GUH8enLGxbpeWlscxMSHkuXD16lUkJycDADp06KD1WHp6Onr16qXT9qlgEUJ0kpGRobnfunVr6NDX5rHoag2EEMmggkUIkQwqWIQQyaCCRQiRDCpYhBDJoIJFCJEMjunwGWRTAc6kbUxtXZ2m366xwF+noCx+shpaPps0afr3K+uouq5Gc79pU2Gzampq0ND52cREtxMgH6e6ulZz3/gx39njJa+qSvAMPuj0zHWxduJrP/5W4Z3rcLF2hBpM8IutURa/WQacsAfxl+9cg6OyFZgI47p27RqcnRVgTA0DA2HHVVh4EzZKVzAGSV9gkG86FSx9TKSYmZTFR5iIUaKMS7iTIh+F6tV9OhWshstLHJz3NS878yiub3cDOA4GHIcjS3ZTFmVpZXEcwHEG2LNnj6BZ/v7+4DgOHMfh8OE1gmZ5eEwBBw6cAbDph6OCZs0d9Jqg2+cTvelOCJEMKliEEMmggkUIkQwqWIQQyaCCRQiRDLoelo6KSkuwInkD0k7+jOraGrjZOWPdmKXwdW6n712TDLHmcMCAAY12IB41ahQWLVrEa1ZdnQrr1ydgz56fUVJSCjs7a4wY0ROzZoXyfg5XVUUFdq5diazv96Ps5k24enlj2rIP0da3I685zwMqWDoorfoTg/81Gd3bdsbXb8XAtpkCl29egZWphb53TTLEnMOdO3dCrVZrfj537hzefPNNBAUF8Z4VF7cPO3Ycxrp1/4C7uxPy8y/inXc2w8LCFFOn8tvNJjYqEoWn/4vI9RuhsLdHRuJ3WDpuOGJ/OAqblvx2H4qLi0NcXBwuXboEAPDy8sLSpUsRHHz/Et6nTp1CVFQUMjMzoVar4eXlhW+//RbOzrq3HaOCpYPYHz5HK2t7bBi3XLPM2cZRj3skPWLOoUKh0Pp527ZtUCqV6Ny5M+9Zx46dRVBQJ/TtW3+Uo1S2QHLyL8jPv8hrTk31XfxyYB8WbfkSXl0CAABjIufj14MHcOCrzzF+3ru85jk5OWHlypVo06YNAOCLL75AaGgojh8/Di8vL5w/fx6BgYGYOnUqli9fDisrK5w6deqxLcGeFBUsHXxfkIneLwfgjc/m45dzx+BgZYfwHiMwvttQfe+aZOhrDmtra5GSkoIJEyYIcoa8n587vv46DRcuFMHNzQEnT15GdvZpvPfeeF5zVHUqqFUqNPnL9yiNm5rgVM6vvGYBwODBg7V+/vDDDxEXF4esrCx4eXlh0aJFeP3117F69WrNOm5ubn/dzDOjN911UHjrGr44+h3cWigR/9ZGTAwchsW7P8a3/9mn712TDH3NYVpaGsrLyxEaKky3menTByMkJAC9e8+Hm9skBAcvxpQpAxAa2o3XHLNmzeDxSmd8G7MOt24UQ6VSISNhF87k5eJ2yQ1es/5KpVIhPj4elZWVCAgIgFqtRkpKCtzd3dG/f3/Y2dmhS5cuvH4DgY6wdKBmavgq22Hh4JkAgPZKT5wuuoAvju7CSP9Bet47adDXHCYmJqJ79+6ws7MTZPt792YhMfEnxMRMh7u7E06cuIzly3fA3r7+zXc+Rf5rI2LmzcEUfx8YGBriJW8f9AwdivO/Fzz+l59BQUEBAgICUF1djWbNmiExMRHt2rVDcXExKioqsHLlSqxYsQKrVq1Camoqhg4divT0dLz66qs6Z1PB0oGdpS3cW2of7ra1d0XKb4f1tEfSo485vH79OrKysrB+/XrBMj788BvNURYAeHoqce3aTWzatJf3guXg4oqPvk1CdVUlqsoroLC3x+qIabBX6v4md2M8PDyQl5eH0tJS7N69G5MmTUJmZiasra0BAKGhoYiMjARQ3+rr559/xqeffspLwaKXhDrwd+uA8yWXtJZd+OMynJrz+8mMnOljDvfs2QOFQoEePXoIlnH37j0YGGi/N2ZgYAC1WrirPZiYmUNhb4+KslLkHUlHlyB+P41sYGxsjDZt2qBz586Ijo6Gr68vNmzYAFtbWxgZGaFdO+3TUV5++WUUFhbykk0FSwdv9hqHY5d+x4aD23Dxj0Ik5BzAVz8nYHKPkfreNckQew7VajWSkpIQEhICIwEvZNivX0fExCTh8OHjuHLlD6SmZmPr1gPo35//TyRzM9OQm5GGG4WXkfdjBhaPHgJHtzboO2IM71mNYYyhpqYGxsbG8PPzw+nTp7UeP3PmDFxcXHjJopeEOujo4oXP3liDj/bGYl3qFjjbOOKDoe9gmN/r+t41yRB7DrOyslBUVISwsDBBtt/g/fcnYs2a77B48ee4efNP2Ns3x7hxfTB79hDes6rKy/HVqhW4WVwECytrBAQPwvh5C2EkwBWBFy5ciODgYCiVSpSXlyM+Ph4ZGRlITU0FAMybNw+jRo1Cz5490bt3b6SmpmLv3r1azVZ1QQVLR0HePRHkze97Ei8aMeewW7duyM/PFzynWTNTLFs2AcuWTRA8K3BQKAIHCfNp51/duHEDEyZMQFFREaysrODj44PU1FS89lr9NbWGDBmCTz/9FNHR0Zg1axY8PDywe/duBAYG8pJPBYsQ8sS2bdv22HWmTJmCKVOmCJJP72ERQiSDChYhRDKoYBFCJIMKFiFEMqhgEUIkgwoWIUQydGpVb2Zsyue+PFJ1XY2mf6Uorc8pS1pZ/0Ot6nXIexFa1Ts4ifOduavXrqFVq1ZgjMFA4Da4lCXdLGpVL3+6nTiqj4kUtc06ZUkpi1rVyx8vrerj4+N52ZlH8ff3B1D/bXcx2pFTFmU9Kota1esXvelOCJEMKliEEMmggkUIkQwqWIQQyaCCRQiRDFGuhyVmi3AxiTkuuc6hXInZqv5FIkrBErNFuJjEHJdc51CuxGxVL6bo6GgkJCTgv//9L0xNTdGtWzesWrUKHh4emnVu3LiBqKgoHDx4EKWlpejZsydiYmLQtm1bnfNFKfUKhQK2traaW2ZmpmAtwsUk5rjkOody9WCreqWyBQYO9EfPnu15b1UvtszMTERERCArKwuHDh1CXV0dgoKCUFlZCaC+IUVYWBguXLiApKQkHD9+HC4uLujXr59mHV2Ifmza0CI8LCxMVl85EHNccp1DOfHzc8dPP53AhQtFAKBpVd+nj6+e90w3qampCA8Ph5eXF3x9fbF9+3YUFhbi2LFjAICzZ88iKysLcXFx8PPzg4eHBzZt2oSKigp88803OueLfk13oVuE64uY45LrHMrJ9OmDUV5+F717z4ehoQFUKjXmzRvBe6t6fSsrKwNQ/woAaPiC+P1vwQCAoaEhjI2NcfToUbzxxhs65Yl+hCV0i3B9EXNccp1DOXmwVf3+/Suwbt0/sHnzfuzadUTfu8Ybxhjmzp2LwMBAeHt7AwA8PT3h4uKCd999F3fu3MG9e/ewcuVKFBcXo6ioSOdMUQtWQ4vwYcOGiRkrODHHJdc5lJsHW9V7eioxbFgg3nhjADZt2qvvXePNjBkzkJ+fr/VSr0mTJti9ezfOnDkDhUIBMzMzZGRkIDg4GIaGhjpnivqSUIwW4fog5rjkOodyo49W9WKaOXMmkpOTceTIETg5OWk91qlTJ+Tl5aGsrAz37t1DixYt0KVLF14+IBKtYInVIlxsYo5LrnMoRw2t6h0dbeDu7oQTJy5h69YDGDnyVX3vmk4YY5g5cyYSExORkZEBV1fXR65rZWUFoP6N+JycHHzwwQc654v2rBerRbjYxByXXOdQjsRsVS+miIgI7Ny5E0lJSbCwsEBxcTGA+uJkalp/BeJdu3ahRYsWcHZ2RkFBAWbPno2wsDBezhkUrWCJ1SJcbGKOS65zKEditqoXU1xcHACgV69eWsu3b9+O8PBwAEBRURHmzp2LGzduwMHBARMnTsSSJUt4yafXFYSQJ/YkLSBmzZqFWbNmCZJPX2oihEgGFSxCiGRQwSKESAYVLEKIZFDBIoRIBhUsQohkUMEihEgGx57kxIpHaDizVWgNl6wAgKZNm1IWZekxq/7PxcTEWNCs6upazX3jBy7VIlheVZXgGXzQ6cRRpdKap934e4WFN6FU2oAxJvj1sCmLsp6XLBulKxgDXaTxAXSmOyHPOapX9+lUsExM6l8SpqTo/i3sv+PhMQUcx4HjOBw+vIayKOvFyAIHzgDY9MNRQbPmDnpN0O3zid50J4RIBhUsQohkUMEihEgGFSxCiGTI7lNCMVuEUzty3cl1DuU6Ln2TXcESs0W4XNuRi0mucyjXcemb7Eq9mC3C5dqOXExynUO5jisuLg4+Pj6wtLSEpaUlAgICcODAAQD1HcmjoqLQvn17mJubw9HRERMnTsT169d5y5ddwRKzRbhc25GLSa5zKNdxOTk5YeXKlcjJyUFOTg769OmD0NBQnDhxAlVVVcjNzcWSJUuQm5uLhIQEnDlzBiEhIbzly+4loZgtwl+UduRCkuscynVcgwcP1vr5ww8/RFxcHLKysjB16lQcOnRI6/GYmBj4+/ujsLAQzs7OOufLrmA92CK8vh/cZSxfvgP29vVveko1S67kOodyHdeDVCoVdu3ahcrKSgQEBDS6TllZGTiOg7W1NS+ZsitYD7YIBwBPTyWuXbuJTZv28v5EETNLruQ6h3IdFwAUFBQgICAA1dXVaNasGRITE9GuXbuH1quursaCBQswduxYWFpa8pItu/ewxGwRLvd25GKQ6xzKdVwA4OHhgby8PGRlZeGtt97CpEmTcPLkSa11amtrMXr0aKjVamzatIm3bNkdYYnZIlyu7cjFJNc5lOu4AMDY2Bht2rQBAHTu3BnZ2dnYsGED/v3vfwOoL1YjR47ExYsXkZaWxtvRFSDDgiVmi3C5tiMXk1znUK7jagxjTHMhxYZidfbsWaSnp8PGxobXLNkVLDFbhMu1HbmY5DqHch3XwoULERwcDKVSifLycsTHxyMjIwOpqamoq6vD8OHDkZubi3379kGlUqG4uBgAoFAoYGys+1VaZVewCCHCuXHjBiZMmICioiJYWVnBx8cHqampeO2113Dp0iUkJycDADp06KD1e+np6ejVq5fO+VSwCCFPbNu2bY98rHXr1tChRcQTkd2nhIQQ+aKCRQiRDCpYhBDJoIJFCJEMKliEEMmggkUIkQydWtWbmQnbGrxBfdtuMVuEUxZlPQ9Z9ahV/X06nYelaNWap934eyVXLqOF0qW+RbjAbXApi7KetyxqVX+fbieO6mMexcykLMp6DrKoXt3HS6v6dfsOPWZN3Yz0dAEAGBhwgrftpizKetGyqFU9IYQIgAoWIUQyqGARQiSDChYhRDKoYBFCJEO0glVVUYGtyxfjjW6vYIS7M+YPeR1nfzsuVrxg5DouMcl1DsUal1znrzGiFazYqEjk/ZiJyPUb8cnBDHTs2QtLxw3HreIisXZBEHIdl5jkOodijUuf8xcdHQ2O4zBnzhzNsvDwcHAcp3Xr2rUrL3miFKya6rv45cA+hL+7FF5dAuDQ2g1jIufDXumMA199LsYuCEKu4xKTXOdQrHHpc/6ys7OxefNm+Pj4PPTYgAEDUFRUpLnt37+fl0xRCpaqTgW1SoUmTbW/e2jc1ASncn4VYxcEIddxiUmucyjWuPQ1fxUVFRg3bhy2bNmC5s2bP/R406ZN0bJlS81NoVDwkitKwTJr1gwer3TGtzHrcOtGMVQqFTISduFMXi5ul9wQYxcEIddxiUmucyjWuPQ1fxERERg4cCD69evX6OMZGRmws7ODu7s7pk2bhpKSEl5yRXsPK/JfG8EYwxR/Hwxv64R9n29Fz9ChMDAwFGsXBCHXcYlJrnMo1rjEnr/4+Hjk5uYiOjq60ceDg4Px9ddfIy0tDWvXrkV2djb69Omj6V2oC9G65ji4uOKjb5NQXVWJqvIKKOztsTpiGuyVzmLtgiDkOi4xyXUOxRqXmPN35coVzJ49GwcPHoTJIy57M2rUKM19b29vdO7cGS4uLkhJScHQoUN1yhf9PCwTM3Mo7O1RUVaKvCPp6BI0QOxdEIRcxyUmuc6hWOMSI+fYsWMoKSlBp06dYGRkBCMjI2RmZuKTTz6BkZERVCrVQ7/j4OAAFxcXnD17Vud80Y6wcjPTAAa0cnsJRZcv4vOPlsPRrQ36jhgj1i4IQq7jEpNc51CscYk5f3379kVBQYHWssmTJ8PT0xNRUVEwNHz4ZeitW7dw5coVODg46JwvWsGqKi/HV6tW4GZxESysrBEQPAjj5y2EUZMmYu2CIOQ6LjHJdQ7FGpeY82dhYQFvb2+tZebm5rCxsYG3tzcqKiqwbNkyDBs2DA4ODrh06RIWLlwIW1tbDBkyROd80QpW4KBQBA4KFStONHIdl5jkOodijet5mj9DQ0MUFBTgyy+/RGlpKRwcHNC7d2/83//9HywsLHTePrWqJ4ToJCMjQ3Pf1NQU33//vWBZ9OVnQohkUMEihEgGFSxCiGRQwSKESAYVLEKIZFDBIoRIhk6t6tv4dOBxVx7t6rkzsGmlBMfd74VIWZRFWfw5l58neAYfdCpYhBAiJnpJSAiRDCpYhBDJoIJFCJEMKliEEMmggkUIkQwqWIQQyaCCRQiRDCpYhBDJoIJFCJEMKliEEMkQpGDFxcXBx8cHlpaWsLS0REBAAA4cOKB5PCEhAf3794etrS04jkNeXt4zZx05cgSDBw+Go6MjOI7Dnj17tB6/ceMGwsPD4ejoCDMzMwwYMICXdkPR0dHgOA5z5szRLAsPDwfHcVq3rl27PtP2HzcuADh16hRCQkJgZWUFCwsLdO3aFYWFhc84ovuWLVv20Dhatmyp83b/qrE5/Gtuw+3jjz9+6m37+fnBwsICdnZ2CAsLw+nTp7XWqaiowIwZM+Dk5ARTU1O8/PLLiIuLE2RcUn0ePm8EKVhOTk5YuXIlcnJykJOTgz59+iA0NBQnTpwAAFRWVqJ79+5YuXKlzlmVlZXw9fVFbGzsQ48xxhAWFoYLFy4gKSkJx48fh4uLC/r164fKyspnzszOzsbmzZvh4+Pz0GMDBgxAUVGR5rZ///5nyvi7cQHA+fPnERgYCE9PT2RkZOC3337DkiVLHtnc8ml5eXlpjeOvrZ109ag5fDCzqKgIn332GTiOw7Bhw55q+5mZmYiIiEBWVhYOHTqEuro6BAUFaf27R0ZGIjU1FTt27MCpU6cQGRmJmTNnIikpiddxSfl5+NxhImnevDnbunWr1rKLFy8yAOz48eO8ZABgiYmJmp9Pnz7NALDff/9ds6yuro4pFAq2ZcuWZ8ooLy9nbdu2ZYcOHWKvvvoqmz17tuaxSZMmsdDQ0Gfc+0f767gYY2zUqFFs/PjxvGcxxth7773HfH19Bdk2Y38/h38VGhrK+vTpo3NmSUkJA8AyMzM1y7y8vNj777+vtd4rr7zCFi9e/EwZjxqXXJ6HzwPB38NSqVSIj49HZWUlAgIChI7TUlNTAwBaRx2GhoYwNjbG0aNHn2mbERERGDhwIPr169fo4xkZGbCzs4O7uzumTZuGkpKSZ8r5O2q1GikpKXB3d0f//v1hZ2eHLl26NPqy8VmdPXsWjo6OcHV1xejRo3HhwgXetv24OWxw48YNpKSkYOrUqTpnlpWVAQAUCoVmWWBgIJKTk3Ht2jUwxpCeno4zZ86gf//+z5TxqHHJ9XmoF0JVwvz8fGZubs4MDQ2ZlZUVS0lJeWgdoY+w7t27x1xcXNiIESPY7du3WU1NDYuOjmYAWFBQ0FNv/5tvvmHe3t7s7t27jDH20P9s8fHxbN++faygoIAlJyczX19f5uXlxaqrq3kdV1FREQPAzMzM2Lp169jx48dZdHQ04ziOZWRk6JTFGGP79+9n3333HcvPz9f8D25vb89u3ryp87YfN4cPWrVqFWvevLlm3WelVqvZ4MGDWWBgoNbympoaNnHiRAaAGRkZMWNjY/bll18+U8bfjUsuz8PngWAFq6amhp09e5ZlZ2ezBQsWMFtbW3bixAmtdYQuWIwxlpOTw3x9fRkAZmhoyPr378+Cg4NZcHDwU227sLCQ2dnZsby8PM2yx72cuX79OmvSpAnbvXv3U2X91V/Hde3aNQaAjRkzRmu9wYMHs9GjR+uU1ZiKigpmb2/P1q5dq9N2nnYOPTw82IwZM3TKZIyx6dOnMxcXF3blyhWt5R9//DFzd3dnycnJ7LfffmMxMTGsWbNm7NChQ0+1/ScZlxyeh88D0d7D6tu3L3vzzTe1lolRsBqUlpaykpISxhhj/v7+bPr06U+17cTERM2TreEGgHEcxwwNDVldXV2jv9emTRu2cuXKp8r6q7+Oq6amhhkZGbEPPvhAa7358+ezbt266ZT1KP369WP//Oc/ddrG08zhkSNHGACtP8xnMWPGDObk5MQuXLigtbyqqoo1adKE7du3T2v51KlTWf/+/Z8q42nGJeXn4fNAtM7PjDHNa3l9sLKyAlD/3kxOTg4++OCDp/r9vn37PvRJ2eTJk+Hp6YmoqCgYGho+9Du3bt3ClStX4ODg8Ow73ghjY2P4+fk99DH9mTNn4OLiwmsWUP8ezKlTp9CjRw+dtvM0c7ht2zZ06tQJvr6+z5TFGMPMmTORmJiIjIwMuLq6aj1eW1uL2tpaGBhov41raGgItVr9VFlPMy45PQ/1QZCCtXDhQgQHB0OpVKK8vBzx8fHIyMhAamoqAOD27dsoLCzE9evXAUDzh9eyZcunPt+noqIC586d0/x88eJF5OXlQaFQwNnZGbt27UKLFi3g7OyMgoICzJ49G2FhYQgKCnqqHAsLC3h7e2stMzc3h42NDby9vVFRUYFly5Zh2LBhcHBwwKVLl7Bw4ULY2tpiyJAhT5X1JOOaN28eRo0ahZ49e6J3795ITU3F3r17tdqGP6t33nkHgwcPhrOzM0pKSrBixQr8+eefmDRpkk7bfdwcNvjzzz+xa9curF279pmzIiIisHPnTiQlJcHCwgLFxcUA6guGqakpLC0t8eqrr2LevHkwNTWFi4sLMjMz8eWXX2LdunW8j0uqz8PnjhCHbVOmTGEuLi7M2NiYtWjRgvXt25cdPHhQ8/j27dsZgIdu77333lNnpaenN7qtSZMmMcYY27BhA3NycmJNmjRhzs7ObPHixaympoaXcT743kFVVRULCgpiLVq00GRNmjSJFRYWPtO2Hzcuxhjbtm0ba9OmDTMxMWG+vr5sz549PIyq/pQJBwcH1qRJE+bo6MiGDh360PuPfGns/Zd///vfzNTUlJWWlj7zdhubOwBs+/btmnWKiopYeHg4c3R0ZCYmJszDw4OtXbuWqdXqZ85t8NdxSfV5+LyhJhSEEMmg7xISQiSDChYhRDKoYBFCJIMKFiFEMqhgEUIkgwoWIUQyqGARQiSDChYhRDKoYBFCJIMKFiFEMqhgEUIkgwoWIUQyqGARQiSDChYhRDKoYBFCJIMKFiFEMqhgEUIk4/8Bv6cg7y+306AAAAAASUVORK5CYII=;" vertex="1" parent="1">
          <mxGeometry x="730" y="160" width="300" height="300" as="geometry" />
        </mxCell>
        <mxCell id="gtzwXYbAEQbTO65BLNOc-13" value="&lt;strong style=&quot;box-sizing: unset; font-weight: bold; color: rgba(0, 0, 0, 0.87); font-family: -apple-system, &amp;quot;system-ui&amp;quot;, &amp;quot;Segoe UI&amp;quot;, Helvetica, Arial, sans-serif, &amp;quot;Apple Color Emoji&amp;quot;, &amp;quot;Segoe UI Emoji&amp;quot;, &amp;quot;Segoe UI Symbol&amp;quot;; font-style: normal; font-variant-ligatures: normal; font-variant-caps: normal; letter-spacing: normal; orphans: 2; text-align: left; text-indent: 0px; text-transform: none; widows: 2; word-spacing: 0px; -webkit-text-stroke-width: 0px; background-color: rgb(255, 255, 255); text-decoration-thickness: initial; text-decoration-style: initial; text-decoration-color: initial;&quot;&gt;&lt;font style=&quot;font-size: 12px;&quot;&gt;Solved in 0.0519 seconds. Answer is : 158&lt;/font&gt;&lt;/strong&gt;" style="text;whiteSpace=wrap;html=1;" vertex="1" parent="1">
          <mxGeometry x="740" y="130" width="320" height="40" as="geometry" />
        </mxCell>
      </root>
    </mxGraphModel>
  </diagram>
  <diagram id="kbK7-T7rVTIi7DjFu5zn" name="Page-3">
    <mxGraphModel dx="954" dy="610" grid="1" gridSize="10" guides="1" tooltips="1" connect="1" arrows="1" fold="1" page="1" pageScale="1" pageWidth="827" pageHeight="1169" math="0" shadow="0">
      <root>
        <mxCell id="0" />
        <mxCell id="1" parent="0" />
        <mxCell id="A9QFOPnBe-lg12iysXmt-2" value="" style="shape=image;imageAspect=0;aspect=fixed;verticalLabelPosition=bottom;verticalAlign=top;image=data:image/png,iVBORw0KGgoAAAANSUhEUgAABBsAAAIdCAIAAADzqeK0AAAAAXNSR0IArs4c6QAAAARnQU1BAACxjwv8YQUAAAAJcEhZcwAADsMAAA7DAcdvqGQAAEuZSURBVHhe7f3NeRvZ0oRrb5d6KkfaAxohKzSXHxq0J+f099nyngQiWCiA+FlrEYpsCs99aUASVcxIFJrMBMC9//f//v/+//zjH//492f8+z8AABB32Cj84f/9X+z3ceMvfkqHUTrslUs3BgAA4JWxUeRQOozSYe2lGwMAAPDKeNcT//jHvz/nn3+wAQCAIF6jyKF0GKXD2ks3BgAA4JWxUeRQOozSYe2lGwMAAPDK2ChyKB1G6bD20o0BAAB4ZWwUOZQOo3RYe+nGAAAAvDI2ihxKh1E6rL10YwAAAF4ZG0UOpcMoHdZeujEAAACvjI0ih9JhlA5rL90YAACAV8ZGkUPpMEqHtZduDAAAwCtjo8ihdBilw9pLNwYAAOCVsVHkUDqM0mHtpRsDAADwytgocigdRumw9tKNAQAAeGVsFDmUDqN0WHvpxgAAALwyNoocSodROqy9dGMAAABeGRtFDqXDKB3WXroxAAAAr4yNIofSYZQOay/dGAAAgFfGRpFD6TBKh7WXbgwAAMArY6PIoXQYpcPaSzcGAADglbFR5FA6jNJh7aUbAwAA8MrYKHIoHUbpsPbSjQEAAHhlbBQ5lA6jdFh76cYAAAC8sv/0RvHr7X87337866+f/Pvjm258++WvPDLR451vfp5ssPjU3XuqsOv7vKyNVH9O1+XxJbm08KBabvPCZ+/w7a649LjvwdLnFT60eHFHjN0Fn3+YHZyXHrzzP1/6omMZqa7SUwEAAMCz/Gc3iqvT3H7qWRp5Rnu8982vJhsfeobs6z9v3nrkwV16pfpA7YUH1XKbFz57h//ejeLB4+h68efe4Ve7/sqP8IkAAADgef6zG8VhtNgmiW3EOR/26rP3W0aGjqORHu9+c88870nej9lNRbcM370q8e3t7fitd9/ZNzwudenTXX/oe9jCg2q5zQufv8MvjN8HA6UP9/P7ffx+n5++92WpG1flik93fVH6vfJzupabd7hveFzqkkoPBwAAAM/0Rf6O4uZUMz5o2Uzpa9/cX/swBA1MQYOlXeHt161Sy/PWmOt3aaS0Lde68Pk7/Mz1O+a62a7fv/dW3I+qU60PX7jls11/vBdc+vEF+fwd/smH2ezdDgAAnuJrbBQeaa5MGp5Jhqa8o5nS1775x+nq41h0w1Dpbdq69o3f74eTwb4/2/V75be3fYKh4gsPquU2L3z+Dt97T/Vbut5a3r779pVDnPdr8vhB9vmuXXhX6v79svP5O3z50qv07N0OAACe4r+8UVxMF1cHGs8ko3PHXI/Xvvn7105pPk5gNwyU3k1bY/NWeVz4811fr1we3+8LD6rlNi98/g4/eb9XBmNMdv3e8fl3v7gfHt/XR5/t+mOnzvG49c/f4cuXXqUn73YAAPAcX2ijKB9Hi/fxZ3Damuvx6jd//+KlJ8xbFwPWx3nrzBZkYOD6bNfvXzuVer84D+/4zz6oZtq88MQ7fLhdW7nDLwtvX98M3QWf7vpjXXlc/Yl3+MEW5HFll5652wEAwNN8sb+j+DDSvd8wOulNlb71zU9pyvuflz5O8LD01Sdo5ep3Hx9zP921S+2+5q88HPY+/6CaneY3T7vDtws+HGG86y3D+fe+aHpL8ISxfqDrr/oIH7/bAQDAE32RjeI0W1xMVFfH33tmSo99cyUbfhr1jt89b4252rVL7br0Vx7W/vyDarzNC8+6w9/vkYFr/G6w6y3AZW9X7t2n3eGDXZ/ohK/wCB+82wEAwHP9VzeKwxC3H2G2UeRitujeKGaGzdm71997+9aHz3dRbt0l13y+64vZbrzv6QfVJ9q88Nk73MbH2pOR0vc6+1hzOMWTun43fqU/X/oTl16lZwMAAICn+C9vFFecxppt2jjzePQY6vHeN7+WbGTamr97r81bHw1MW0/o+vqtv2PK/EybFz57hx9tcaYSDJS+fne/17lx68A9/umur12AkSv9+dLXKk89wmcDAACAp/hCf5l9PljcH39vGyp995tfjD1D887R7N37YdQr58mGa3++64PzzgeLLz2oFtu88Mw7fGyk3gyUvn5377r9MF+P3Q+f7/qi8Pjd/8w7XIZrq/RsAAAA8BRf5u8onoXSYZQOe+XSjQEAAHhlbBQ5lA6jdFh76cYAAAC8MjaKHEqHUTqsvXRjAAAAXhkbRQ6lwygd1l66MQAAAK+MjSKH0mGUDmsv3RgAAIBX1rBR+H/FBQCep362sFEAANDisFGE//n3PwA8j368+AcbAAAIanuN4v/poNLOkaXSzpGl0s6RpdLOkaXSzpGl0s6RpdLOkaXSzpGl0pWBjQIAgBZsFCEq7RxZKu0cWSrtHFkq7RxZKu0cWSrtHFkq7RxZKl0Z2CgAAGjBRhGi0s6RpdLOkaXSzpGl0s6RpdLOkaXSzpGl0s6RpdKVgY0CAIAWbBQhKu0cWSrtHFkq7RxZKu0cWSrtHFkq7RxZKu0cWSpdGdgoAABowUYRotLOkaXSzpGl0s6RpdLOkaXSzpGl0s6RpdLOkaXSlYGNAgCAFmwUISrtHFkq7RxZKu0cWSrtHFkq7RxZKu0cWSrtHFkqXRnYKAAAaMFGEaLSzpGl0s6RpdLOkaXSzpGl0s6RpdLOkaXSzpGl0pWBjQIAgBZsFCEq7RxZKu0cWSrtHFkq7RxZKu0cWSrtHFkq7RxZKl0Z2CgAAGjBRhGi0s6RpdLOkaXSzpGl0s6RpdLOkaXSzpGl0s6RpdKVgY0CAIAWbBQhKu0cWSrtHFkq7RxZKu0cWSrtHFkq7RxZKu0cWSpdGdgoAABowUYRotLOkaXSzpGl0s6RpdLOkaXSzpGl0s6RpdLOkaXSlYGNAgCAFmwUISrtHFkq7RxZKu0cWSrtHFkq7RxZKu0cWSrtHFkqXRnYKAAAaMFGEaLSzpGl0s6RpdLOkaXSzpGl0s6RpdLOkaXSzpGl0pWBjQIAgBZfbaP45/tfOv9///v7p782Tic6R5ZKO8eoXbeb+bZ1nnNkqbRzZKm0c0z698c3nb55++WbRugU53js2lW+MHzRdbhzZKm0c0z40P5f3//xTaN0XmVgowAAoMUX2iguJ48/fKP4+bdOuWZu5tI5zpGl0s6RpdLOMe7jMmETO4VOcI7H7l1pG77gOtw5slTaOQbdbH3xEc5GAQBAiy+yUVybPP7sjeLBE9czzesM58hSaefIUmnnGHRznSi/b6N41dco7vc9s1PojMrARgEAQIsvsVFso8df33+eppBX2Cj2PZ4PYBPd6wTnyFJp58hSaecY8+tNJx1cLBC/fvz41x8+pu/gHMt213t8utbxzpGl0s4xYPcswam//VMH4w9xHV8Z2CgAAGjxdTYKTR27MevP3iiu2e8UbBQPqLRzjDi9QPFtYnu4Rt/FOVbtZus/8lqf+jvfl1b61uGVgY0CAIAWExvF+VtCrr0JZP8c7+25TLd6FpjFRiFL7wnJU2nnyFJp5xjwvIXiGV0vXuovuVFc/Id8a9W4Q4dXBjYKAABaDG4UV99gfrZUnG8TRzfeea4bPQvMet2NYv8CxVzvOsU5slTaObJU2jkGnB7Ab78uH+6TO4ZOco4luyfqpxYKNgo2CgAAGkxsFO8LwrUncz2ODU1exyPZKAacLREnczMmG8WYKyvxmYmtQic4x4L9dZ98lOsk58hSaed47FaTK8uUDq8MbBQAALRY+TuKbaXYhixNY4Mz1/FUNooB1zeK2YWCjWLE1Vfhzt14ze0jHe4c83aX/U++1rvV4QY2CgAAvoiVjWJ7Nvd9xPIX3t72T/PenL90s2eBWWwUMjNq6gznyFJp58hSaed4bL9R7Ffj/ddHVwod7RzTlt/xdKDznCNLpZ1jyKOdgo0CAIAvYmGjeF8oTnPXrTeMXJ/AdJtngVkvtVFcOB/AxqdNHe8cWSrtHFkq7RyP7TaHi4ft6dE9+sYnHe0ck/Zb5Cs8wi+2inpUn+6B4f51eGVgowAAoMXsRvHxHU+nr31cMa6uFLrJs8CsV94oyn7+mn8GN0+lnSNLpZ1jwM3FIbpRfOoFiqJTnSNLpZ3jE7a7YGFnZqMAAKDF3EaxDVfnq4K/vPuiv3J1BDvewkaxhI1imEo7x4BbL1LcfvHiJh3tHDP2L1AsLRRf/1qf7oKJO0AnVAY2CgAAWkxsFDfWifJxf/i4Y5wcb2GjuO/Y5+VMdfYOkYVncPNU2jmyVNo5RmyP77I9cHf7xPBCsdz1fqFYeHQf6GTnyFJp5xjx8+97D/CZO0BnVAY2CgAAWoxuFLfXiYP3W33jx7dB7R1vmpu3zkbpj4aHDx3uHFkq7RyP7YfLqyYGLp3gHFkq7RxZKu0cQ/bbw0ejb3kqOsE5xu0e5WsvUBSd7hxZKu0cA+4+xOfuAJ1TGdgoAABoMbhR7J+/3XvfL67dfmsE062eBYY8Gq//wI3i/hK1OG/lqbRzZKm0cwy6vVMMvz5xoFOcY9T+Qb68UHypa33zIT7dvk6rDGwUAAC0eNJGUc6nsTsTmA7wLDDm/msU4wOIjneOLJV2jkHXNqmFd8PoROfIUmnnyFJp55jwYauYWiaOdJ5zDNpf64Vr/E7fwDmyVNo5xnx8gK+1rnMrAxsFAAAt5v4y+yn069+zQJZKO0eWSjtHlko7R5ZKO0eWSjtHlko7R5ZKO0eWSjtHlkpXBjYKAABasFGEqLRzZKm0c2SptHNkqbRzZKm0c2SptHNkqbRzZKl0ZWCjAACgBRtFiEo7R5ZKO0eWSjtHlko7R5ZKO0eWSjtHlko7R5ZKVwY2CgAAWrBRhKi0c2SptHNkqbRzZKm0c2SptHNkqbRzZKm0c2SpdGVgowAAoAUbRYhKO0eWSjtHlko7R5ZKO0eWSjtHlko7R5ZKO0eWSlcGNgoAAFqwUYSotHNkqbRzZKm0c2SptHNkqbRzZKm0c2SptHNkqXRlYKMAAKAFG0WISjtHlko7R5ZKO0eWSjtHlko7R5ZKO0eWSjtHlkpXBjYKAABatG0UjZwjS6U9AWWptHNkqbRzZKm0c2SptHNkqbRzZKm0c2SpdGVgowAAoMVhowj/069/AHgi/XjxDzYAABDU9hqFP4mr0n5iM6uxa5V2jiyVdo4slXaOLJV2jiyVdo4slXaOrK00GwUAAC3YKEIau1Zp58hSaefIUmnnyFJp58hSaefIUmnnyNpKs1EAANCCjSKksWuVdo4slXaOLJV2jiyVdo4slXaOLJV2jqytNBsFAAAt2ChCGrtWaefIUmnnyFJp58hSaefIUmnnyFJp58jaSrNRAADQgo0ipLFrlXaOLJV2jiyVdo4slXaOLJV2jiyVdo6srTQbBQAALdgoQhq7VmnnyFJp58hSaefIUmnnyFJp58hSaefI2kqzUQAA0IKNIqSxa5V2jiyVdo4slXaOLJV2jiyVdo4slXaOrK00GwUAAC3YKEIau1Zp58hSaefIUmnnyFJp58hSaefIUmnnyNpKs1EAANCCjSKksWuVdo4slXaOLJV2jiyVdo4slXaOLJV2jqytNBsFAAAt2ChCGrtWaefIUmnnyFJp58hSaefIUmnnyFJp58jaSrNRAADQgo0ipLFrlXaOLJV2jiyVdo4slXaOLJV2jiyVdo6srTQbBQAALdgoQhq7VmnnyFJp58hSaefIUmnnyFJp58hSaefI2kqzUQAA0IKNIqSxa5V2jiyVdo4slXaOLJV2jiyVdo4slXaOrK00GwUAAC2+zEbx749vOnHz7ce/vm1GnegJaNg/3/9Sxc1f3//xbcN0okOM+tj0//739ss3DtN5zpGl0s4x5Nebzrlm6orrFOeY9PGK//3TN43QKc7x2LWrfGH4outw55jwseO5lovOco4JH9qf/w9b59UHbBQAALT4ChvFvSFzer6uczwBjfj5t8pcMzdx6RyHGPG00fpTs/UnqbRzDLnX9tTV1hnOMe7KaC0Tl1snOMdjd1uW4Quuw51jzM2Oy8xjXGc4x6Cbra88wusDNgoAAFp8gY3iwVO4kztFneEJaMC9Yav8znnriV3rDOfIUmnnGPK0RUqnOMegJw3XOsE5Hmt9jeLBQ3yibR3vHCPu9z1zsXVGfcBGAQBAiy/zGsVuprqYROZWijrBE9CI42sUu6HqYv76fVOmm9z3dt72RNc6wTmyVNo5hmwbxdxl/UjfxTnG7F+Ruri0P79PvNFN38E5lu2u9/h0reOdY8DuAb17K9/1rz6g451jwG53PPW3XyjHHwE6vj5gowAAoMXX/Mvss+H6d24UH53tFL9xo7hm3zYbxQP6Ls4x4nRlF/5M5oy+i3Os2s3Wv/Fan5ao88fy9vXftlGc+jvfl1b61uH1ARsFAAAtpjeKW4PA+DPoOsKfrGGjmH9PiHNkqbRzDGnbKJ63UDzjWi9e6k90ffZgvrVo3KPjneOx0w+Siyt96yfMHTq8PmCjAACgxeRGsXsCcff7/nybsJsToW72J2v2MSYnzzrDE9CaO++MuUtnOMSK9S1KpzhHlko7x5D9pd2ZGquPdJ5zDNgP0WdrY5ncMXSScyzZ3Qtznesc5xiyf0DrEb37ym98hJ9aZKMAAOCrm9oo9Lv+29vbcbY93yjex4LT4HtrHtCt/mTFfraenjTrHE9AK/aj5tyYqXMcYtDVTW2+Z53lHFkq7RxDbmwUR791jzqbrK+YuNw6wTkW7K/7/MJcnGPQ5f5ksy/V6CzneOxWkyvLlA6vD9goAABoMbFReAR4++UPbvy+3yaF37RR7CeR2Xmr1EmegOadjV4zT98WneQQg85a3awsUcU5slTaOYbc2yimetcJzvHYjbF6b/iK63DnmLe77LFrfaX937xRPLjSB8Pd6/D6gI0CAIAWwxuFx5zDCO8Pb/y+3waFW9O+bvUnk85m7Olx66DO8wQ06Wzmmp22nrlRHM30rjOcI0ulnWPR2eQ53reOd47H9pd3f3X3Xx9dKXS0c0xbeZJ+o/OcY8y9XWrmca4znGPIo51iuH0dXh+wUQAA0GJwo9jtEw82ivcp4fY0oNv9yZT9BDI/bEmd6gloyv49MfPrRNGpDrHmfAAbvwN0vHNkqbRzLNtvVsOvSulw53hsN1dfLA6nSz964XW0c0xa6vVEJzrHiGvdne0Yv/mVmYutoh7Vp3tg8lrXB2wUAAC0GNooLlaI2xvFNgzcG3d1hD8Z94x1otTZnoDGfXqdKDrbIZYt3Qk63DmyVNo51u3a/l0bxe3FIbpR7DpdepDrVOd47NTbxeJwe8G6SUc7xydsd8H4HaDj6wM2CgAAWgxtFPs59sJ+wNsOuz/16Rh/Mmif4BPrRKlv4Alo0DPWiaJv4BDLlu4HHe4cWSrtHMt2z9vPTpnOMeDWDJ2crXeNLj7Mda5zPHSnt+getXO6CybuAJ1QH7BRAADQ4mkbxeA6UXSYPxnx+Tlrp76HJ6AR+/d/fGKdKPoeDvHYsefLZs+uw++brZ9IpZ1jwKHDi8b2V39+ynSOEfvVcZuv9w+A0YViebbetzr8Wsw5newcj+16Pnt4X70vHtDRzjHi19u9B/jMHaAz6gM2CgAAWgz/ZfaOB5/dODC+ThQd6U8GnM3RV00OH56ABuwHq+t+15R5NkdfM9GzTnCOLJV2jgEPrvX8lOkcQ/bbw0cTC6VOcI5xu+YnNqdzOt05Hrvf8tFv26PuPsTn7gCdUx+wUQAA0OIpG8WtOfD6AKjb/MmAl9wo7ne9Mm85R5ZKO8eAe13PXOWik5xj0O0Be/g6H+gU5xi1H7CXF4r5rp+2Rs13ffNiT7ev0+oDNgoAAFqwUdzTuFEcXHsWd3KuPtCJzpGl0s4x6GPXSwO2TnWOCR9G7Kll4kjnOcegfdcL1/idvoFzDLu2Vky/yU+nOceYj5d6rXWdWx+wUQAA0GJlo/ik7dd/iyrtCSirsWuVdo4slXaOLJV2jiyVdo4slXaOLJV2jqytNBsFAAAt2ChCGrtWaefIUmnnyFJp58hSaefIUmnnyFJp58jaSrNRAADQgo0ipLFrlXaOLJV2jiyVdo4slXaOLJV2jiyVdo6srTQbBQAALdgoQhq7VmnnyFJp58hSaefIUmnnyFJp58hSaefI2kqzUQAA0IKNIqSxa5V2jiyVdo4slXaOLJV2jiyVdo4slXaOrK00GwUAAC3YKEIau1Zp58hSaefIUmnnyFJp58hSaefIUmnnyNpKs1EAANCCjSKksWuVdo4slXaOLJV2jiyVdo4slXaOLJV2jqytNBsFAAAt2jaK1+S7IEulPfdlqbRzZKm0c2SptHNkqbRzZKm0c2RtpdkoAABocdgowv/06x8Ankg/XvyDDQAABLW9RuEnNuOqtHPEdXV9vL95yjxHpZ0jS6WdI0ulnSNLpSsDGwUAAC3YKHK6uj7e38zWOSrtHFkq7RxZKu0cWSpdGdgoAABowUaR09X18f5mts5RaefIUmnnyFJp58hS6crARgEAQAs2ipyuro/3N7N1jko7R5ZKO0eWSjtHlkpXBjYKAABasFHkdHV9vL+ZrXNU2jmyVNo5slTaObJUujKwUQAA0IKNIqer6+P9zWydo9LOkaXSzpGl0s6RpdKVgY0CAIAWbBQ5XV0f729m6xyVdo4slXaOLJV2jiyVrgxsFAAAtGCjyOnq+nh/M1vnqLRzZKm0c2SptHNkqXRlYKMAAKAFG0VOV9fH+5vZOkelnSNLpZ0jS6WdI0ulKwMbBQAALdgocrq6Pt7fzNY5Ku0cWSrtHFkq7RxZKl0Z2CgAAGjBRpHT1fXx/ma2zlFp58hSaefIUmnnyFLpysBGAQBACzaKnK6uj/c3s3WOSjtHlko7R5ZKO0eWSlcGNgoAAFqwUeR0dX28v5mtc1TaObJU2jmyVNo5slS6MrBRAADQ4qtsFP98/0vn7fz90zfOqPOcI65KO0TW8c5its5RaefIUmnnmPDvj2869eTtl28bpLOcI0ulKwMbBQAALb7CRvHzb51yzV/f//FRg+oc54ir0g6RdbyjmK1zVNo5slTaOcZcWSY2M1uFznCOLJWuDGwUAAC0+AIbxbWXJ3YmX6moM5wjrko7RNbxbmK2zlFp58hSaecYcW+fOBjfKXS8c2SpdGVgowAAoMWX2Sj2i8P5jjG3UtQJzhFXpR0i63gvMVvnqLRzZKm0cwzYLRTffvzrL9746gM63jmyVLoysFEAANDii/5l9n6nYKN44HgvMVvnqLRzZKm0cwz49aYzLl+M2L7ORgEAAB6a3Ci2Jy+vvhni/q3vdIhngUW7jWLyLynqDOeIq9IOkXW8m5itc1TaObJU2jkG7F6N2P9He2vRuEfHO0eWSlcGNgoAAFqMbxSnIePgctC4f+sZHeJZYMXZm55m/wef6hTniKvSDpF1vJ+YrXNU2jmyVNo5hpz9l3v8D3f3lfF94r/RNRsFAAAtRjeK43OZ3378+/6c5vmocf/WC8cjJieP87+c2Ez/Lz2xUWSptHNkqbRzZKm0c2SptHMM2r1OsTf+fifRWc6RpdKVgY0CAIAWs39HcX9nCG8UCwsFG0WUSjtHlko7R5ZKO0eWSjvHhCtbBRsFAAAY9KU3iiP+juKR493EbJ2j0s6RpdLOMebKMrGZ2Sp0hnNkqXRlYKMAAKDFF9koLpz/f95N7RR1vHPEVWmHyDreSczWOSrtHFkq7RwjTn80cdoeznaMu/8t7+lw58hS6crARgEAQIuvuVGU/VIxs1LU4c4RV6UdIut4HzFb56i0c2SptHM8dtonLv6T3S0VoyuFjnaOLJWuDGwUAAC0YKPIqdIOkXW8j5itc1TaObJU2jkeurM3XHvt4j4d7RxZKl0Z2CgAAGjx398ojn9CcbkznL3tiXc93Xe8k5itc1TaObJU2jke2/0PxZ4tDruv3/+PeUdHO0eWSlcGNgoAAFp8kY3iHv4/sx843kvM1jkq7RxZKu0cj+1epLhldKFgowAA4HUNbxT7Zy1P3seN+7ee022eBQac/xn2hanXJw7qHOeIq9IOkXW8o5itc1TaObJU2jlG3N8p+N96AgAAA77ARnFw7YWK2f+3bKkTnSOuSjtE1vHeYrbOUWnnyFJp5xh2ba2YWSaOdJpzZKl0ZWCjAACgxey7np5Av/49C8Rp8mjR1fXx/ma2zlFp58hSaefIUmnnyFLpysBGAQBACzaKnK6uj/c3s3WOSjtHlko7R5ZKO0eWSlcGNgoAAFqwUeR0dX28v5mtc1TaObJU2jmyVNo5slS6MrBRAADQgo0ip6vr4/3NbJ2j0s6RpdLOkaXSzpGl0pWBjQIAgBZsFDldXR/vb2brHJV2jiyVdo4slXaOLJWuDGwUAAC0YKPI6er6eH8zW+eotHNkqbRzZKm0c2SpdGVgowAAoAUbRU5X18f7m9k6R6WdI0ulnSNLpZ0jS6UrAxsFAAAt2jYKhPnez1Jpz31ZKu0cWSrtHFkq7RxZKu0cWSpdGdgoAABocdgowv/06x8Ankg/XvyDDQAABLW9RuFP4qq0n9iMe8GuD1eaFwqCVNo5slTaObK20mwUAAC0YKPIecGuD1ea2TpIpZ0jS6WdI2srzUYBAEALNoqcF+z6cKWZrYNU2jmyVNo5srbSbBQAALRgo8h5wa4PV5rZOkilnSNLpZ0jayvNRgEAQAs2ipwX7PpwpZmtg1TaObJU2jmyttJsFAAAtGCjyHnBrg9Xmtk6SKWdI0ulnSNrK81GAQBACzaKnBfs+nClma2DVNo5slTaObK20mwUAAC0YKPIecGuD1ea2TpIpZ0jS6WdI2srzUYBAEALNoqcF+z6cKWZrYNU2jmyVNo5srbSbBQAALRgo8h5wa4PV5rZOkilnSNLpZ0jayvNRgEAQAs2ipwX7PpwpZmtg1TaObJU2jmyttJsFAAAtGCjyHnBrg9Xmtk6SKWdI0ulnSNrK81GAQBACzaKnBfs+nClma2DVNo5slTaObK20mwUAAC0+Hobxa83fQP59uNff31QneMJaN7Pv1VU/vr+j78+qM5xiHlftGud4xBZKu0ck/75/pdO3/z90zeN0CnOkaXSzpGl0s6RtZVmowAAoMVX2yjOJ+vobH0+WUc3ii/btc5xiCyVdo5xH5cJm9gpdIJzZKm0c2SptHNkbaXZKAAAaPG1NorLyTo4W19O1sGN4gt3rXMcIkulnWPQzXWisFE8oNLOkbWVZqMAAKDFV9ootsn6248fpw8js/U2Wf/1/fvpw8hG8aW71jkOkaXSzjFmvz9dLBA/v0/0re/gHFkq7RxZKu0cWVtpNgoAAFp8nY3i3x/fdOb/3n7tx+zAbH166rrmzN2YHdgovnjXOschslTaOUac+p2+shf0XZwjS6WdI0ulnSNrK81GAQBAi4mN4jTcHtSAe+b+rXs6wp+MOpusz564/+2z9dlkffbE/W/fKL581zrHIbJU2jkGPG+hYKNI20qzUQAA0GJwozjfF2xbG+7fekk3+5MxF5N1cra+mKyTG8Uf0LXOcYgslXaOAVuH1fKpfZm81DrJObJU2jmyVNo5srbSbBQAALSY2CjeV4TToPs+2N6/9ZJu9ScjrnzL1Gx95Ynr1EbxR3StcxwiS6WdY8Bpo7huonGd4BxZKu0cWSrtHFlbaTYKAABarPwdxTbrXh1s799adKs/GXBtjg7N1tfm6NBG8Wd0rXMcIkulneOxy5clrvDLNY/pcOfIUmnnyFJp58jaSrNRAADQYmWj2Abbq29sun9r0a3+5KHrC0pktt6GzLMpOrJR/Cld6xyHyFJp53hsv1Hse9x/fXSl0NHOkaXSzpGl0s6RtZVmowAAoMXCRvE+114fa+/feqDb/ckjp/f+3DMxYdfRnoAeGXjWukxM2HW0Qzzyx3Stox0iS6Wd47Fd3xeLw7ZM/YFdP5NKO0fWVpqNAgCAFrMbxf33NN2/1XSEP3mEjeI2Nop7VNo5BtxcHNgoxqi0c2RtpdkoAABoMbdR3H9H0/1bNzrGnzy0fdN7fstsvRsl7/gtG8Uf07WOdogslXaOAbdepLj94sVNOto5slTaObJU2jmyttJsFAAAtJjYKJ6yThQd5k8WbdUmpmqpczwBLdom7oldQuoch1j09brWOQ6RpdLOMWK/Sm27w/4lm9GFgo0ibSvNRgEAQIvRjeJZ60TRkf5kERuFvzSoznGIRS+wUTx4w9dE4zrBObJU2jmyVNo5srbSbBQAALQY3Ci2WfaCNoj7t17Sbf5kERuFvzSoznGIRa+wUdzbKYZfnzjQKc6RpdLOkaXSzpG1lWajAACgBRvFLDYKf2mEznGILJV2jgkftoqpZeJI5zlHlko7R5ZKO0fWVpqNAgCAFnN/mf0U26//FlXaE1DcC3Z9uNLM1kEq7RxZKu0cWVtpNgoAAFqwUeS8YNeHK81sHaTSzpGl0s6RtZVmowAAoAUbRc4Ldn240szWQSrtHFkq7RxZW2k2CgAAWrBR5Lxg14crzWwdpNLOkaXSzpG1lWajAACgBRtFzgt2fbjSzNZBKu0cWSrtHFlbaTYKAABasFHkvGDXhyvNbB2k0s6RpdLOkbWVZqMAAKAFG0XOC3Z9uNLM1kEq7RxZKu0cWVtpNgoAAFq0bRR4Hb7wWSrtaTdLpZ0jS6WdI0ulnSNrK81GAQBAi8NGEf6nX/8A8ET68eIfbAAAIKjtNQo/sRlXpZ0jjq6Tqm5X1yrtHFkq7RxZKu0cWSpdGdgoAABowUaRQ9dJVbera5V2jiyVdo4slXaOLJWuDGwUAAC0YKPIoeukqtvVtUo7R5ZKO0eWSjtHlkpXBjYKAABasFHk0HVS1e3qWqWdI0ulnSNLpZ0jS6UrAxsFAAAt2Chy6Dqp6nZ1rdLOkaXSzpGl0s6RpdKVgY0CAIAWbBQ5dJ1Udbu6VmnnyFJp58hSaefIUunKwEYBAEALNoocuk6qul1dq7RzZKm0c2SptHNkqXRlYKMAAKAFG0UOXSdV3a6uVdo5slTaObJU2jmyVLoysFEAANCCjSKHrpOqblfXKu0cWSrtHFkq7RxZKl0Z2CgAAGjBRpFD10lVt6trlXaOLJV2jiyVdo4sla4MbBQAALRgo8ih66Sq29W1SjtHlko7R5ZKO0eWSlcGNgoAAFqwUeTQdVLV7epapZ0jS6WdI0ulnSNLpSsDGwUAAC3YKHLoOqnqdnWt0s6RpdLOkaXSzpGl0pWBjQIAgBZfYqP4+bfOueav7//4qDF1inMM+fWmMtd8+/GvjxpTpzjEkNfs+mmU1iEm/fvjm07fvP3yTSN0inM89s/3v3TGbX//9LGP6HDnyFJp55jwof3ZBzcbBQAA3b78RjE+bEmd4RxD7s3Wc2Pm9Gz9ml0/jcI6xLiPy4RNtK0TnOOxuxdahodsHe4cWSrtHINutj63VeicysBGAQBAC16juI/XKC79ya9R3Fwnyu/bKF71NYr7fc88xHVGZWCjAACgxdfaKCafmb+mvotzDNlm68ln5q+p7+IQQ16z66dRAw4xZr9IXXT+68fEIqXv4BzLdgP3+HSt450jS6WdY8BuYz71t1+jxx/3Or4ysFEAANCCjeI+NorPqu/iEFlqwCFGnF6gmH0Z5pK+i3Os2s3WEw8AneAcWSrtHI+d+jvfl1b61uGVgY0CAIAW0xvF6Xnc87nr/A0j9yZRHeFZYAgbxWfVd3GIIa+4UTxvoXjGRrH0AkXRKc6RpdLO8dhpc7h4fN9aNe7Q4ZWBjQIAgBaTG8Vpn9gPXlfffn5zGNXNngWG7J623Jsatd7Vec4xZN/wztLQWec5xJDX7PppFNkhBpx6fvt1+YCebFwnOceS3bWfu946xzmyVNo5HmOjAADgzzG1UWjo+vb2dpy3zjeK9wXi8VO9utWzwJAbs/XR7BP4dYpzDLkxWx/NPoFfpzjEkNfs+mmU1iEG3Ov5YGKr0AnOsWD/J8uTV1onOUeWSjvHY7eaXFmmdHhlYKMAAKDFxEbhXWF7BvfGiLWtFJmNYuFJXOcYcn/OnJgyS53gEENes+unUVaHeOy0Cd80vEvpcOeYt/qOpwOd5hxZKu0cA+4/vg/YKAAA+CKGN4ptn9g+vDFYbtPorQFMt3oWWHQ2jUyNXXW8cyw6m7anhus63iEWvWbXixTVIR7bbxT7/vZfH10pdLRzTNtd5emF4ittFI93CjYKAAC+iMGNYrdPPNgo3kfP21OnbvcssGz1nSF1uHMsWxkyD+pwh1j2ml0vUVKHeGzX3kV3p2VqdJPS0c4x6RPveDrQic6RpdLOMexiq6gl4nQPDPevwysDGwUAAC2GNoqLFeL2RrGNZfdmLx3hWWDdbhQJz9b7J+zTs/Vrdr1CSR1iwM3FIbpRfOoFiqJTnSNLpZ3jE7a7YPwO0PGVgY0CAIAWQxvFbpa8tJ8tt8PuD5w6xrPAstU3m9fxzrFs93T26Ix5VMc7xLLX7HqJojrEgF1/Z4/fW1+/Q0c7x4z9CxRLC8XX3yhOd8HEHaATKgMbBQAALZ62UQyuE0WHeRYYcHjO8mK62E9ek6NXneAcAw5NXYzPuwFzcrSem61fs+snUlaHGLF/lG8P4n3jowvF8my9v8AL73g60MnOkaXSzjHi59+XD+LdKzSzL8GVysBGAQBAi+G/zN7xlLUbLMfXiaIjPQsM2I8ZV0yOXnWGcwzYD5lXDI+YUmc4xIDX7PqJFNYhhpytTR9M7FE6wTnG7S753L64o9OdI0ulnWPA2YJ8aXphLpWBjQIAgBZP2ShujaDXZ0/d5llgwL3Zev6Z3DrJOQbcm60nB+tSJznEgNfs+omU1yEG3d4ppvrWKc4xaj9gLy8UX2mjuP0Qn25fp1UGNgoAAFp8gY3i4OPzmatDV53qHIM+Tplz7/o5qVMdYtBrdv0kSu0QEz50vrREFecY9IR3PB3oGzhHlko7x5iPD/C11nVuZWCjAACgxcpG8Un69e9ZIE6TRwu6Tqq6XV2rtHNkqbRzZKm0c2SpdGVgowAAoAUbRQ5dJ1Xdrq5V2jmyVNo5slTaObJUujKwUQAA0IKNIoeuk6puV9cq7RxZKu0cWSrtHFkqXRnYKAAAaMFGkUPXSVW3q2uVdo4slXaOLJV2jiyVrgxsFAAAtGCjyKHrpKrb1bVKO0eWSjtHlko7R5ZKVwY2CgAAWrBR5NB1UtXt6lqlnSNLpZ0jS6WdI0ulKwMbBQAALdgocug6qep2da3SzpGl0s6RpdLOkaXSlYGNAgCAFm0bBRDgx1yWSnvazVJp58hSaefIUunKwEYBAECLw0YR/qdf/wDwRPrx4h9sAAAgqO01Cn8SV6X9xGYcXYd1dV11u7pWaefIUmnnyNpKs1EAANCCjSKHrsO6uq66XV2rtHNkqbRzZG2l2SgAAGjBRpFD12FdXVfdrq5V2jmyVNo5srbSbBQAALRgo8ih67CurqtuV9cq7RxZKu0cWVtpNgoAAFqwUeTQdVhX11W3q2uVdo4slXaOrK00GwUAAC3YKHLoOqyr66rb1bVKO0eWSjtH1laajQIAgBZsFDl0HdbVddXt6lqlnSNLpZ0jayvNRgEAQAs2ihy6Duvquup2da3SzpGl0s6RtZVmowAAoAUbRQ5dh3V1XXW7ulZp58hSaefI2kqzUQAA0IKNIoeuw7q6rrpdXau0c2SptHNkbaXZKAAAaMFGkUPXYV1dV92urlXaObJU2jmyttJsFAAAtGCjyKHrsK6uq25X1yrtHFkq7RxZW2k2CgAAWrBR5NB1WFfXVbera5V2jiyVdo6srTQbBQAALdgocpa7/vfHt+N9dvL2yzcNqlMcIq5KO0Tcctf/fP/rcC/v/P3TN43QKQ7x2MfL+8Hw9dbhzjHhY8dzLRed5RwTPrT/7ce/vmmUzqsP2CgAAGjBRpGz0vXNaXNup6gTHCKuSjtE3ErXV0ZrmRiwdYJDPPbrTSfcMTxk63DnGHOz4zKzVegM5xh0s/W5rULn1AdsFAAAtGCjyJnu+t6T12wUj013/aThWic4xGOtr1Hca/lgvG0d7xwj7vc9s1PojPqAjQIAgBZsFDmzXe+fwL0YKX/9mHtnSH0Hh4ir0g4RN9v1z78Pd7VcTNI/v3//xx8+pu/gEMt2A/f4dK3jnWPAbqH469Th9a8+oOOdY8Du4X3q785j/g4dXx+wUQAA0IKNImeu69NAOfcOkKvquzhEXJV2iLi5rk9j9PgUfZ2+i0Os2s3WE69H6QTnGHBaos5XqO3rv22jOPV3/vhe6VuH1wdsFAAAtJjYKPZPH14fcx8fcaBb/UlclfYEFDfV9VMXii/T9XNNdf28heIZG8XSCxRFpzjHgN2rEfuV4taicY+Od47HTj8sLl9/u7Fq3KHD6wM2CgAAWgxuFFff8nz2C/98mzi68RSjbvQncVXaE1DcVNf7gevy3p/fMeokh4ir0g4RN9X1fojezdlHkzuGTnKIJbv/muYuts5xjiH7t3ppf9h9ZXyfYKMAAOCFDW4Uh9/y2y/+bcA9/cb3FDA0AhyP/BpT5nNNdb2bKa+aHjQdIq5KO0TcVNdnk/UVE1uFTnCIBfsNcvidP6KTnGPQ5f5ksy/V6CzneOxWk7sHPhsFAABfxNLfUbwPA9tvfE0BgwPA8dSvMWU+10zXly9LXDEza9bhDhFXpR0ibqbrG2P13vAT9jrcIebtrv3c3lh0mnNMuNL+b94oHu7MbBQAAHwZKxvF+yhwsVD87+1tPyPcHHh1sz+Jq9KegOJmut5vFPvB6tYzuw/U0Q4RV6UdIm6m6/1IvZ+l918fXSl0tENMW3mSfqPznGPMvV1qZqvQGc4x5NFOwUYBAMAXMb5RXPz63/+2vzUZXB95dZs/iavSnoDiZrrebQ4X9+Lpzp6YN+toh4ir0g4RN9P1bq6+WBxOb4cana91tENMWlwZ3+lE5xhxrbuzHeM3vzLz8cfK6R4Y7l+H1wdsFAAAtFjeKMr7RPs+Apwm3Pdjr44EusmfxFVpT0BxU13fXBzYKIZNdX1zcYhuFLv/yiYu74lOdY7HTr1dLA63F6ybdLRzfMJ2F4zfATq+PmCjAACgxaf+juJ9ZfAMsNsf/JWrM8Hxlq8xZT7XVNe3XqS49fX76miHiKvSDhE31fWtGTo5W+8u7tpC4f+4nOOhO71lX5k5Od0FcwtzqQ/YKAAAaLG0UZyeR9Rv/Y/7w8cd4+R4y9eYMp9rruv3u/hgux/3I+fEQvF1un6qua5PM/Ruvt6/AWh0oVierVev7o5Odo7Hdj2fLQ5X74sHdLRzjPj1drk0XH3MD9AZ9QEbBQAALcY2isOos//tv/3m96/998/96ftkdP1ZxuNNX2TKfKrJrvfz5UfX79tb6gSHiKvSDhE32fV+e/ho9Kn6ohMcYtxunp67ujs63Tkeu9/y0W/bo+4+vqcf3qU+YKMAAKDF+EZxxenX/v7JxXe3hgLd6k/iqrQnoLjprm/PXLPPYNcpDhFXpR0ibrrr2wP28Fx9oFMcYtT+Yi8vFP6PyzlGPG2Nmu/62g+No+n2dVp9wEYBAECL5b/M/jDTno+/d0ZeHeBP4qq0J6C4pa4/bBWzy8RRnecQcVXaIeKWuv4wYk8tE0c6zyEG7a/z0iUWfQPnGHZtrZhZJo50mnOM+bgyr7Wuc+sDNgoAAFos/h3FZ2y//ltUaU9AcXQd1tV11e3qWqWdI0ulnSNrK81GAQBACzaKHLoO6+q66nZ1rdLOkaXSzpG1lWajAACgBRtFDl2HdXVddbu6VmnnyFJp58jaSrNRAADQgo0ih67Durquul1dq7RzZKm0c2RtpdkoAABowUaRQ9dhXV1X3a6uVdo5slTaObK20mwUAAC0YKPIoeuwrq6rblfXKu0cWSrtHFlbaTYKAABasFHk0HVYV9dVt6trlXaOLJV2jqytNBsFAAAt2jYK4M/mh3uWSnvGz1Jp58jaSrNRAADQ4rBRhP/p1z8APJF+vPgHGwAACGp7jcJPbMZVaeeIo+uwF+y66nZ1rdLOkaXSlYGNAgCAFmwUOXQd9oJdV92urlXaObJUujKwUQAA0IKNIoeuw16w66rb1bVKO0eWSlcGNgoAAFqwUeTQddgLdl11u7pWaefIUunKwEYBAEALNoocug57wa6rblfXKu0cWSpdGdgoAABowUaRQ9dhL9h11e3qWqWdI0ulKwMbBQAALdgocug67AW7rrpdXau0c2SpdGVgowAAoAUbRQ5dh71g11W3q2uVdo4sla4MbBQAALRgo8ih67AX7LrqdnWt0s6RpdKVgY0CAIAWbBQ5dB32gl1X3a6uVdo5slS6MrBRAADQgo0ih67DXrDrqtvVtUo7R5ZKVwY2CgAAWrBR5NB12At2XXW7ulZp58hS6crARgEAQAs2ihy6DnvBrqtuV9cq7RxZKl0Z2CgAAGjx398o/vn+l8647e+fPnZAHe4ccVXaIR5r7PrfH99U4La3Xz52QB3uEHFV2iHiuro+XJ2Vrq9c9JmLfKCznCNLpSsDGwUAAC3++xvFz791wh1/ff/HBz9WhztHXJV2iMcau/71pu9/x7cf//rgx+pwh4ir0g4R19X14epMdn1vg5xcHYtzZKl0ZWCjAACgBa9R5FRph3iM1yieoEo7RFxX14erM9X1o6s9fql1vHNkqXRlYKMAAKDFl/07it3IPfNk/RefMhu73o2eMy9RsFFEHS7PTNfXr+rStdbxzpGl0pWBjQIAgBZfdaPYvSto5rn6Lz5lNna9ey/U3Bvs6wSHiKvSDhHX1fXh+sx0fbqs51d1+zobBQAAeGhiozh/f8SHsfL87fd3pk4d4FlgzepT9aVOcY64Ku0Qaxq7Xn2BotQpDhFXpR0irqvrwxWa6Xp3Yff/yd5aNO7R8c6RpdKVgY0CAIAWgxvF+TZhp2Hjwc3ndKtngSW7p+pnR+svPGU2dr3bFmcXCjaKqMMlmuv67JmA43+zu6+M7xPP+O96mUpXBjYKAABaTGwU79PFaX14ny49grx/+n7AjeHzeNsnJo/9Hy3PvffnoE5yjrgq7RALGrve74szI6bUSQ4RV6UdIq6r68M1mu366vMBSy9GFefIUunKwEYBAECLlb+j2CYQzxz+fDeBXKwY5443rU8en3jvz0Gd5hxxVdoh5jV2vRs4Z4fMgzrNIeKqtEPEdXV9uEorXV/ZKtgoAADAoJWNYntXhJ+w/rg/fNwxdo4HL08en3nvz0Gd5xxxVdohpjV2vXsPzMpCwUYRdbhMk11fWSY2M1dcZzhHlkpXBjYKAABaLGwU7yPmNm28jySn8eO3vUbxuff+HNSJzhFXpR1iUmPX+3Fz/h1PB3WiQ8RVaYeI6+r6cJ2muj4tjKf/Ws92jOGrrsOdI0ulKwMbBQAALWY3im3Y2G8Lt57lfPpG8dmn6kud6hxxVdoh5jR2/dkXKEqd6hBxVdoh4rq6Plypia5P1/dicdj9Jz26Uuho58hS6crARgEAQIu5jWIbQD5MGWdLxbe3t+Nn12eR4yErk8f+qfrV0frrTZmNXe8v6upCwUYRdbhU413f2RuuvXZxn452jiyVrgxsFAAAtJjYKG6vEx/o0BujyPF7LEwen3/vz0Gd7BxxVdohJjR2vV8oRp+o/qhOdoi4Ku0QcV1dH67VRNenveH8v9bd14cvvY52jiyVrgxsFAAAtBjdKCbWifdB9NZzm8cb5yePJ7z356BOd464Ku0Q4xq7vjVtTqrTHSKuSjtEXFfXh6s10fXZS4vXDe+SOtw5slS6MrBRAADQYnCj2D9nuadx49pccnsI1e2eBUY95b0/B3W+c8RVaYcY1dj1/pp+ZqFgo4g6XK6pru/vFDNXXmc4R5ZKVwY2CgAAWjxlo7gcS+4/raljPAsMes57fw7qGzhHXJV2iEGNXe+v6PCz1FfVN3CIuCrtEHFdXR+u13zXc08J3KDTnCNLpSsDGwUAAC3m/jL7KfTr37NAnCaPFnQd9oJdV92urlXaObJUujKwUQAA0IKNIoeuw16w66rb1bVKO0eWSlcGNgoAAFqwUeTQddgLdl11u7pWaefIUunKwEYBAEALNoocug57wa6rblfXKu0cWSpdGdgoAABowUaRQ9dhL9h11e3qWqWdI0ulKwMbBQAALdgocug67AW7rrpdXau0c2SpdGVgowAAoAUbRQ5dh71g11W3q2uVdo4sla4MbBQAALRo2ygA/Cb+Ly1LpT3jZ6l0ZWCjAACgxWGjCP/Tr38AeCL9ePEPNgAAENT2GoU/iavSfmIzjq7D6Dqp6nZ1vZVmowAAoAUbRQ5dh9F1UtXt6norzUYBAEALNoocug6j66Sq29X1VpqNAgCAFmwUOXQdRtdJVber6600GwUAAC3YKHLoOoyuk6puV9dbaTYKAABasFHk0HUYXSdV3a6ut9JsFAAAtGCjyKHrMLpOqrpdXW+l2SgAAGjBRpFD12F0nVR1u7reSrNRAADQgo0ih67D6Dqp6nZ1vZVmowAAoAUbRQ5dh9F1UtXt6norzUYBAEALNoocug6j66Sq29X1VpqNAgCAFmwUOXQdRtdJVber6600GwUAAC3YKHLoOoyuk6puV9dbaTYKAABasFGM+Of7X0p98vdP3zauznKICf/++KaCJ2+/fNu4Ossh4qq0Q8Qtdd14rZ+jSjvEhCd0rbMcImsrzUYBAEALNooHroxam8mZq85wiDFXlonN5FZRZzhEXJV2iLjZrhuv9RNVaYcY86yudYZDZG2l2SgAAGjBRnHXvWnrYGrOrOMdYsS9feJgaqeo4x0irko7RNxc143X+qmqtEOMeF7XOt4hsrbSbBQAALRgo7hnN2799f0ff/HGVx+r4x1iwG6h+PbjX3/xxlcfq+MdIq5KO0TcVNeN1/q5qrRDDHhi1zreIbK20mwUAAC0YKO45+ffCnv5VO329d83Zf56U4XLFyO2r7NRPDTVdeO1fq4q7RADnti1jneIrK00GwUAAC0mNorTjHtwOdCev0nn3ltydIQ/iavSnoAG7J6r3Q9ct8awB+p4hxiwuz/3d+atReOBOt4h4qq0Q8RNdd14rZ+rSjvEgCd2reMdImsrzUYBAECLwY3i6pv6t6Xi6q03J17d7E/iqrQnoCGn0aocp6vdV6ZmzOkp82yDO96bu69M7RPTXT9TlXaIuMmuG6/1M1VphxjytK51hkNkbaXZKAAAaDG4URxm2W2I3RaI95Xi8IX3W0/bxa235ehWfxJXpT0BDdo9i7s39R4YqbMcYtDVTW3y/U5SZzlEXJV2iLjprhuv9fNUaYcY9KSudZZDZG2l2SgAAGix9HcU75Pu1dH2w75xSbf6k7gq7QlowpWZKzVlXtkq2CgGLXXdeK2fo0o7xIQndK2zHCJrK81GAQBAi5WN4v3NN9cn2+2tObfemKNb/UlclfYENObGE7hHkzNXneEQY268RHE0uVXUGQ4RV6UdIm6268Zr/URV2iHGPKtrneEQWVtpNgoAAFqMbxRnb+u/PdLeXzcOdLs/iavSnoBGnN5SfpqtziawyTeaO8SI0/19uivPdoyZP6Wowx0irko7RNxc143X+qmqtEOMeF7XOtwhsrbSbBQAALRY3ijKx6Xh4TueDnSEP4mr0p6AHjtNWxdj1W7kmhgz62iHeOx0b18sDrulYmKlqKMdIq5KO0TcTNeN1/rJqrRDPPbMrnW0Q2RtpdkoAABo8am/o7gYarcp+P6oq2P8SVyV9gT00J2p6tozuw/V0Q7x0J294dprFw/V0Q4RV6UdIm6i68Zr/WxV2iEeemrXOtohsrbSbBQAALRY2ihOY+1pqB1cJ4oO8ydxVdoT0GOnqep8rNp9ffgZ3FJHO8Rjp73hfHHYfZ3XKB6Z6brxWj9ZlXaIx57ZtY52iKytNBsFAAAtxjaKw1Pm+8H2cn0YXyeKjvQncVXaE9Bju6dwb5kYMqemzN2LFLdMLBRTXT9ZlXaIuJmuG6/1k1Vph3jsmV3rcIfI2kqzUQAA0GJ8o7jifcnYP3G+d33m1W3+JK5KewIacX/imngXzEGd4RAj7u8UE+94OqgzHCKuSjtE3FzXjdf6qaq0Q4x4Xtc6wyGyttJsFAAAtFj+y+z9tvDnbhRH14auyQHzqE5ziGHX1orJZeKoTnOIuCrtEHELXTde62ep0g4x7Cld6zSHyNpKs1EAANBi8e8oPmP79d+iSnsCiqPrMLpOqrpdXW+l2SgAAGjBRpFD12F0nVR1u7reSrNRAADQgo0ih67D6Dqp6nZ1vZVmowAAoAUbRQ5dh9F1UtXt6norzUYBAEALNoocug6j66Sq29X1VpqNAgCAFmwUOXQdRtdJVber6600GwUAAC3YKHLoOoyuk6puV9dbaTYKAABatG0UAP48/o88ayvNRgEAQIvDRhH+p1//APBE+vHiH2wAACCo7TUKv1Uirko7Rxxdh9F1WFfXVVdds1EAANCCjSKHrsPoOqyr66qrrtkoAABowUaRQ9dhdB3W1XXVVddsFAAAtGCjyKHrMLoO6+q66qprNgoAAFqwUeTQdRhdh3V1XXXVNRsFAAAt2Chy6DqMrsO6uq666pqNAgCAFmwUOXQdRtdhXV1XXXXNRgEAQAs2ihy6DqPrsK6uq666ZqMAAKAFG0UOXYfRdVhX11VXXbNRAADQgo0ih67D6Dqsq+uqq67ZKAAAaMFGkUPXYXQd1tV11VXXbBQAALRgo8ih6zC6DuvquuqqazYKAABasFHk0HUYXYd1dV111TUbBQAALb7QRvHP97906ru/vv/jmybUec4RV6UdYsJrdv0cS13/++Pb4W4++fbjX980oc5ziLgq7RATGrt+wiNc51UANgoAAFp8kY3i598664Pp6aPOcY64Ku0Qg16z6+eZ7vrX2+HevWJ6vq5zHCKuSjvEoMaun/QI1zkVgI0CAIAWX2Gj+PAk5pnJ6brOcI64Ku0QI16z66ea6/rD0/RnJqfrOsMh4qq0Q4xo7Pp5j3CdUQHYKAAAaPEFNord85inKWP/5ObfP/3FEXW8c8RVaYcY8JpdP9dU17tn6k9z9P7p+7df/uKIOt4h4qq0Qwxo7PqJj3AdXwHYKAAAaPHf3yhOM8b5s5a72WNmuK7DnSOuSjvEY6/Z9ZPNdH2aos+fl99N1zPDdR3uEHFV2iEea+z6mY9wHV4B2CgAAGgxvVFcnUF2A8jJrVFEt3oWeOw0YVwMGLdGkvvqcOeIq9IO8dhrdv1kM12fHsIXj9tbQ/d9dbhDxFVph3issetnPsJ1eAVgowAAoMXkRrFfHdgoJlVph3jsNbt+spmuG2frJ6vSDvFYY9fPfITr8ArARgEAQIupjUJjxre3t+Mfc37YKAZnj8OhE5PH/u8397PHafD4E2fr1+z6yWa63v+F8n66Po3Wf+JG0dj1Mx/hOrwCsFEAANBiYqPw9PH2yx+ENor9iHHDnzhbv2bXzzXV9W6IvuEP3Cg6u37iI1yHVwA2CgAAWgxvFNs+sX34YaPYu3gTxZ4O8Cww5NHs8WfO1q/Z9TNNdv1ouv4TN4rWrp/2CNfhFYCNAgCAFoMbxW6fGNsoyq1RRLd6Fhh2MX3UsHF628TFG7HvqsOdI65KO8Sw1+z6WRa6vngk12PYj/ZyZ0v+oA53iLgq7RDDGrt+yiNch1cANgoAAFoMbRQXK8THjeLMNozcOEA3ehb4hG0WmXmy/svP1q/Z9ZqndL1N27ce71fV8Q4RV6Ud4hMau154hOv4CsBGAQBAi6GN4upLEHL1Gcz3468/vanbPAssOz2TOTVaf/HZ+jW7XvWErk/P1U+N1nS9aukRrhMqABsFAAAtvsJG8fPvy+Fi/1aJmTf/lDrDOeKqtEOMeM2un2qu619vl+Pz/nE/8+afUmc4RFyVdogRjV0/7xGuMyoAGwUAAC2G/zJ75/JdT4fPd6PHNpHcGEd0o2eBAadnLa+Ye6q+1DnOEVelHWLAa3b9XFNdn56Xv2LuqfpS5zhEXJV2iAGNXT/xEa5zKgAbBQAALZ61UXx08+lN3exZYMT+mcsz04N1qdOcI65KO8SI1+z6qea6vvlK3PRgXeo0h4ir0g4xorHr5z3CdVoFYKMAAKDFMzaKg/PB5O6bJXSIZ4ExH5/OnHzXz0md6xxxVdohxrxm10802/XH1XjyXT8nda5DxFVphxjT2PWzHuE6twKwUQAA0GJlo/gk/fr3LBCnyaMFXYfRdVhX11VXXbNRAADQgo0ih67D6Dqsq+uqq67ZKAAAaMFGkUPXYXQd1tV11VXXbBQAALRgo8ih6zC6DuvquuqqazYKAABasFHk0HUYXYd1dV111TUbBQAALdgocug6jK7DurquuuqajQIAgBZsFDl0HUbXYV1dV111zUYBAECLto0CAJ6ofrawUQAA0OKwUYT/+fc/ADyPfrz4BxsAAAhqeI2iNP7ip3QYpcNeuXRjAAAAXlnDaxT1r+o2/rsIwz/+8e+P+ecfbAAAIKgmbAAAAABYxEYBAAAAYB0bBQAAAIB1bBQAAAAA1rFRAAAAAFjHRgEAAABgHRsFAAAAgHVsFAAAAADWsVEAAAAAWMdGAQAAAGAdGwUAAACAdWwUAAAAANaxUQAAAABYx0YBAAAAYB0bBQAAAIB1bBQAAAAA1rFRAAAAAFjHRgEAAABgHRsFAAAAgHVsFAAAAADWsVEAAAAAWMdGAQAAAGAdGwUAAACAdWwUAAAAANaxUQAAAABYx0YBAAAAYB0bBQAAAIB1bBQAAAAA1rFRAAAAAFjHRgEAAABgHRsFAAAAgHVsFAAAAADWsVEAAAAAWMdGAQAAAGAdGwUAAACAdWwUAAAAANaxUQAAAABYx0YBAAAAYB0bBQAAAIB1bBQAAAAA1rFRAAAAAFjHRgEAAABgHRsFAAAAgHVsFAAAAADWsVEAAAAAWMdGAQAAAGAdGwUAAACAdWwUAAAAANaxUQAAAABYx0YBAAAAYB0bBQAAAIB1bBQAAAAA1rFRAAAAAFjHRgEAAABgHRsFAAAAgHVsFAAAAADWsVEAAAAAWMdGAQAAAGAdGwUAAACAdWwUAAAAANaxUQAAAABYx0YBAAAAYB0bBQAAAIB1bBQAAAAA1rFRAAAAAFjHRgEAAABgHRsFAAAAgHVsFAAAAADWsVEAAAAAWMdGAQAAAGAdGwUAAACAdWwUAAAAANaxUQAAAABYx0YBAAAAYB0bBQAAAIB1bBQAAAAA1rFRAAAAAFjHRgEAAABgHRsFAAAAgHVsFAAAAADWsVEAAAAAWMdGAQAAAGAdGwUAAACAdWwUAAAAANaxUQAAAABYx0YBAAAAYB0bBQAAAIB1bBQAAAAA1rFRAAAAAFjHRgEAAABgHRsFAAAAgHVsFAAAAADWsVEAAAAAWMdGAQAAAGAdGwUAAACAdWwUAAAAANaxUQAAAABYx0YBAAAAYB0bBQAAAIB1bBQAAAAA1rFRAAAAAFjHRgEAAABgHRsFAAAAgHVsFAAAAADWsVEAAAAAWMdGAQAAAGAdGwUAAACAdWwUAAAAANaxUQAAAABYx0YBAAAAYB0bBQAAAIB1bBQAAAAA1rFRAAAAAFjHRgEAAABgHRsFAAAAgHVsFAAAAADWsVEAAAAAWMdGAQAAAGAdGwUAAACAdWwUAAAAANaxUQAAAABYx0YBAAAAYB0bBQAAAIB1bBQAAAAA1rFRAAAAAFjHRgEAAABgHRsFAAAAgHVsFAAAAADWsVEAAAAAWMdGAQAAAGAdGwUAAACAdWwUAAAAANaxUQAAAABYx0YBAAAAYB0bBQAAAIB1bBQAAAAA1rFRAAAAAFjHRgEAAABgHRsFAAAAgHVsFAAAAADWsVEAAAAAWMdGAQAAAGAdGwUAAACAdWwUAAAAANaxUQAAAABY9X//9/8B+KXsy0YuJVYAAAAASUVORK5CYII=;clipPath=inset(0% 59.33% 23.38% 0%);" vertex="1" parent="1">
          <mxGeometry x="280" y="180" width="299.83" height="290" as="geometry" />
        </mxCell>
      </root>
    </mxGraphModel>
  </diagram>
</mxfile>
